<?xml version="1.0" encoding="utf-8"?>
<!-- Generator: Adobe Illustrator 23.0.6, SVG Export Plug-In . SVG Version: 6.00 Build 0)  -->
<svg version="1.1" id="Layer_1" xmlns="http://www.w3.org/2000/svg" xmlns:xlink="http://www.w3.org/1999/xlink" x="0px" y="0px"
	 viewBox="0 0 320 384" style="enable-background:new 0 0 320 384;" xml:space="preserve">
<style type="text/css">
	.st0{fill:none;}
	.st1{fill:#2CC66D;}
	.st2{fill:#27AE60;}
	.st3{fill:#25A65B;}
	.st4{fill:#1D8548;}
	.st5{fill:#C985D0;}
	.st6{fill:#D890E0;}
	.st7{fill:#E599EE;}
	.st8{fill:#AF75B6;}
	.st9{fill:#2F8AC6;}
	.st10{fill:#3498DB;}
	.st11{fill:#37A5EE;}
	.st12{fill:#2C84BF;}
	.st13{fill:#BF3D31;}
	.st14{fill:#E74C3C;}
	.st15{fill:#F5503F;}
	.st16{fill:#EC8D00;}
	.st17{fill:#FCB245;}
	.st18{fill:#CD7B00;}
	.st19{fill:#FF9900;}
	.st20{fill:#A16E39;}
	.st21{fill:#EEE4B7;}
	.st22{fill:#C48647;}
	.st23{fill:#E2D9AE;}
</style>
<g>
	<rect x="192" class="st0" width="64" height="64"/>
	<g>
		<g transform="matrix( 1, 0, 0, 1, 0,0) ">
			<g>
				<g id="Layer0_2_MEMBER_0_FILL">
					<path class="st1" d="M210.8,26.2c-2-1.9-4-1.9-6,0l-6.3,6.2c-2,1.9-2,3.9,0,5.8l6.3,6.2c2,1.9,4,1.9,6,0l6.3-6.2
						c2-1.9,2-3.9,0-5.8L210.8,26.2z"/>
				</g>
			</g>
		</g>
		<g transform="matrix( 1, 0, 0, 1, 0,0) ">
			<g>
				<g id="Layer0_2_MEMBER_1_FILL">
					<path class="st1" d="M241.2,51.5c0.2-0.2,0.3-0.5,0.4-0.8l0.9-5.9c0-0.3,0-0.5-0.1-0.8s-0.3-0.5-0.6-0.6
						c-0.2-0.1-0.5-0.2-0.8-0.2c-5.1,0.4-10.2-0.5-15.4-2.5c-0.2-0.1-0.5-0.1-0.8-0.1c-0.3,0.1-0.5,0.2-0.7,0.4s-0.3,0.4-0.4,0.7
						l-1.2,5.7c-0.1,0.3,0,0.5,0.2,0.8c0.1,0.3,0.3,0.5,0.5,0.6c4.8,2.6,10.5,3.5,17,2.9C240.7,51.8,240.9,51.6,241.2,51.5z"/>
				</g>
			</g>
		</g>
		<g transform="matrix( 1, 0, 0, 1, 0,0) ">
			<g>
				<g id="Layer0_2_MEMBER_2_FILL">
					<path class="st1" d="M241.4,15.3c0-0.4-0.1-0.7-0.3-0.9c-0.3-0.2-0.6-0.4-1-0.4c-8.6,0-16.1,2.5-22.8,7.4
						c-0.3,0.2-0.4,0.5-0.5,0.8s0,0.6,0.1,0.9l3.8,8.1c0.1,0.3,0.3,0.5,0.6,0.6c0.3,0.2,0.6,0.2,0.9,0.1l18.2-4
						c0.3-0.1,0.6-0.2,0.8-0.5c0.2-0.2,0.3-0.5,0.3-0.8V15.3H241.4z"/>
				</g>
			</g>
		</g>
		<g transform="matrix( 1, 0, 0, 1, 0,0) ">
			<g>
				<g id="Layer0_2_MEMBER_3_FILL">
					<path class="st2" d="M232.3,22.5c-5.1,0.5-9.6,1.6-13.5,3.6c-5.1,2.5-7.7,5.6-7.7,9.2s2.6,6.6,7.7,9.2c4.1,2,9,3.3,14.5,3.7
						c-0.2-0.3-0.4-0.5-0.6-0.8c-2.7-3.5-4-7.7-4-12.7C228.7,30,229.9,25.9,232.3,22.5z"/>
					<path class="st3" d="M247.1,44.5c2.6-2.5,3.9-5.6,3.9-9.2s-1.3-6.7-3.9-9.2c-2.5-2.5-5.6-3.7-9.2-3.8c-0.1,0-0.3,0-0.4,0
						c-1.8,0-3.5,0.1-5.2,0.3c-2.4,3.4-3.7,7.5-3.7,12.2c0,5,1.3,9.2,4,12.7c0.2,0.2,0.4,0.5,0.6,0.8c1.3,0.1,2.7,0.1,4.2,0.1
						c0.1,0,0.3,0,0.4,0C241.5,48.2,244.6,47,247.1,44.5z"/>
				</g>
			</g>
		</g>
		<g transform="matrix( 1, 0, 0, 1, 0,0) ">
			<g>
				<g id="Layer0_2_MEMBER_4_FILL">
					<path class="st4" d="M244.6,31.5c-0.5-0.5-1.2-0.8-1.9-0.8s-1.4,0.3-1.9,0.8s-0.8,1.1-0.8,1.8s0.3,1.4,0.8,1.9s1.2,0.8,1.9,0.8
						s1.4-0.3,1.9-0.8s0.8-1.1,0.8-1.9C245.3,32.6,245.1,32,244.6,31.5z"/>
				</g>
			</g>
		</g>
		<g transform="matrix( 1, 0, 0, 1, 0,0) ">
			<g>
				<g id="Layer0_2_MEMBER_5_FILL">
					<path class="st1" d="M235.5,38.1c-0.1-0.3-0.3-0.5-0.5-0.6c-0.2-0.2-0.5-0.2-0.7-0.3c-4.8-0.2-9.6-1.1-14.3-2.5
						c-0.3-0.1-0.5-0.1-0.8,0s-0.5,0.2-0.7,0.4s-0.3,0.4-0.3,0.6l-0.2,2.8c0,0.3,0,0.5,0.1,0.7c0.1,0.3,0.3,0.5,0.5,0.6
						c4.3,2.2,9,3.7,14,4.4c0.3,0,0.6,0,0.9-0.2c0.3-0.1,0.5-0.3,0.6-0.6l1.4-4.4C235.5,38.6,235.5,38.3,235.5,38.1z"/>
				</g>
			</g>
		</g>
	</g>
</g>
<g>
	<rect class="st0" width="64" height="64"/>
	<g>
		<g transform="matrix( 1, 0, 0, 1, 0,0) ">
			<g>
				<g id="Layer0_41_MEMBER_0_FILL">
					<path class="st5" d="M28.4,33.5c1.6-1.3,1.6-2.6,0-3.9l-4.9-4.3c-1.5-1.3-3.1-1.3-4.6,0l-5,4.3c-1.6,1.3-1.6,2.6,0,3.9l5,4.3
						c1.5,1.3,3.1,1.3,4.6,0L28.4,33.5z"/>
				</g>
			</g>
		</g>
		<g transform="matrix( 1, 0, 0, 1, 0,0) ">
			<g>
				<g id="Layer0_41_MEMBER_1_FILL">
					<path class="st5" d="M40.2,36.5c0.1-0.1,0.1-0.3,0.1-0.5s-0.1-0.4-0.2-0.5l-2.2-2.8c-0.1-0.1-0.2-0.2-0.4-0.2
						c-0.2-0.1-0.3-0.1-0.5,0c-0.1,0.1-0.3,0.2-0.4,0.3c-1.7,2.5-3.9,4.6-6.6,6.2c-0.1,0-0.2,0.1-0.3,0.3c-0.1,0.2-0.1,0.3-0.1,0.5
						s0.1,0.3,0.1,0.4l2,2.8c0.1,0.1,0.2,0.2,0.4,0.2c0.2,0.1,0.4,0.1,0.5,0C35.6,41.9,38.1,39.7,40.2,36.5z"/>
				</g>
			</g>
		</g>
		<g transform="matrix( 1, 0, 0, 1, 0,0) ">
			<g>
				<g id="Layer0_41_MEMBER_2_FILL">
					<path class="st5" d="M30.3,28.1c0.1,0.2,0.3,0.3,0.4,0.3l10.1,1.8c0.2,0,0.3,0,0.5,0c0.1-0.1,0.2-0.3,0.3-0.4l1.6-6.4
						c0-0.2,0-0.4,0-0.6c-0.1-0.2-0.3-0.3-0.5-0.4c-4.5-1.9-8.8-2.3-13-1.1c-0.1,0.1-0.2,0.2-0.3,0.3c-0.1,0.2-0.1,0.4-0.1,0.5
						l0.8,5.5C30,27.9,30.1,28.1,30.3,28.1z"/>
				</g>
			</g>
		</g>
		<g transform="matrix( 1, 0, 0, 1, 0,0) ">
			<g>
				<g id="Layer0_41_MEMBER_3_FILL">
					<path class="st6" d="M44.5,25c-0.1,0-0.3,0-0.4,0l-6.8,6.8l6.8,6.8c0.1,0,0.3,0,0.4,0c1.9,0,3.4-0.7,4.8-2c1.3-1.3,2-2.9,2-4.8
						c0-1.9-0.7-3.5-2-4.8C47.9,25.6,46.4,25,44.5,25z"/>
					<path class="st7" d="M44.1,25c-5.9,0.1-10.9,0.7-15.2,1.9c-4.5,1.3-6.8,2.9-6.8,4.8s2.3,3.5,6.8,4.8c1,0.3,2,0.5,3,0.7
						c3.6,0.8,7.7,1.2,12.3,1.3l-6.8-6.8L44.1,25z"/>
				</g>
			</g>
		</g>
		<g transform="matrix( 1, 0, 0, 1, 0,0) ">
			<g>
				<g id="Layer0_41_MEMBER_4_FILL">
					<path class="st8" d="M49.1,31c0-0.5-0.2-1-0.6-1.4S47.7,29,47.1,29c-0.5,0-1,0.2-1.4,0.6s-0.6,0.9-0.6,1.4c0,0.6,0.2,1,0.6,1.4
						s0.9,0.6,1.4,0.6c0.6,0,1-0.2,1.4-0.6C48.9,32,49.1,31.6,49.1,31z"/>
				</g>
			</g>
		</g>
	</g>
</g>
<g>
	<rect x="64" class="st0" width="64" height="64"/>
	<g>
		<g transform="matrix( 1, 0, 0, 1, 0,0) ">
			<g>
				<g id="Layer0_44_MEMBER_0_FILL">
					<path class="st9" d="M91.1,37.5l-1.9,3.9c-0.1,0.1-0.1,0.3-0.1,0.6c0,0.2,0.1,0.4,0.3,0.6c3,2.8,7,4.7,12,5.5
						c0.2,0,0.5,0,0.6-0.1s0.4-0.3,0.5-0.5l1.8-4.1c0.1-0.2,0.1-0.4,0-0.6c0-0.2-0.1-0.4-0.3-0.5c-0.1-0.1-0.3-0.2-0.5-0.3
						c-3.8-0.7-7.4-2.4-10.8-4.9c-0.2-0.1-0.3-0.2-0.5-0.3c-0.2,0-0.4,0.1-0.5,0.1C91.4,37.1,91.3,37.3,91.1,37.5z"/>
				</g>
			</g>
		</g>
		<g transform="matrix( 1, 0, 0, 1, 0,0) ">
			<g>
				<g id="Layer0_44_MEMBER_1_FILL">
					<path class="st9" d="M76.6,24.1c-0.8,0-1.7,0.4-2.5,1.2l-5.2,5.1c-1.6,1.6-1.6,3.1,0,4.8l5.2,5.1c0.8,0.8,1.7,1.1,2.5,1.1
						c1.3,0,2.5-0.4,3.7-1.1l8.1-5.1c2.5-1.6,2.5-3.2,0-4.8l-8.1-5.1C79.1,24.6,77.9,24.1,76.6,24.1z"/>
				</g>
			</g>
		</g>
		<g transform="matrix( 1, 0, 0, 1, 0,0) ">
			<g>
				<g id="Layer0_44_MEMBER_2_FILL">
					<path class="st9" d="M111.9,26.6v-9.5c0-0.3-0.1-0.6-0.3-0.8c-0.2-0.2-0.5-0.3-0.9-0.3c-7.2,0-13.6,2.1-19.2,6.2
						c-0.2,0.2-0.4,0.4-0.4,0.6c-0.1,0.2,0,0.5,0.1,0.8l3.2,6.9c0.1,0.3,0.3,0.4,0.6,0.5c0.2,0.2,0.5,0.2,0.8,0.1l15.3-3.4
						c0.2-0.1,0.5-0.2,0.7-0.4C111.8,27.1,111.9,26.9,111.9,26.6z"/>
				</g>
			</g>
		</g>
		<g transform="matrix( 1, 0, 0, 1, 0,0) ">
			<g>
				<g id="Layer0_44_MEMBER_3_FILL">
					<path class="st10" d="M105,23.2c-0.1,0-0.2,0-0.4,0c-6.1,0.1-11.3,1.1-15.6,2.9c-4.6,1.9-6.9,4.3-6.9,7c0,2.7,2.3,5.1,6.9,7
						c4.4,1.9,9.6,2.8,15.6,2.9c0.1,0,0.3,0,0.4,0C102.5,36.3,102.5,29.6,105,23.2z"/>
					<path class="st11" d="M108.4,23.4c-2.2-0.1-3.3-0.2-3.4-0.2c-2.4,6.4-2.4,13,0,19.8c0.1,0,0.1,0,0.2,0c4.6-0.1,9.2-1.6,14-4.6
						c4.7-3,6.3-5.3,4.6-7c-1.7-1.6-4.2-3.4-7.4-5.2C113.1,24.4,110.5,23.5,108.4,23.4 M113.9,30.8c0.3-0.3,0.7-0.4,1.1-0.4
						s0.8,0.1,1.1,0.4s0.5,0.6,0.5,1.1c0,0.4-0.1,0.8-0.5,1c-0.3,0.3-0.7,0.5-1.1,0.5s-0.8-0.2-1.1-0.5s-0.4-0.6-0.4-1
						C113.5,31.4,113.6,31.1,113.9,30.8z"/>
					<path class="st12" d="M115,30.4c-0.4,0-0.8,0.1-1.1,0.4s-0.4,0.6-0.4,1.1c0,0.4,0.1,0.8,0.4,1s0.7,0.5,1.1,0.5s0.8-0.2,1.1-0.5
						s0.5-0.6,0.5-1c0-0.4-0.1-0.8-0.5-1.1C115.8,30.5,115.4,30.4,115,30.4z"/>
				</g>
			</g>
		</g>
		<g transform="matrix( 1, 0, 0, 1, 0,0) ">
			<g>
				<g id="Layer0_44_MEMBER_4_FILL">
					<path class="st9" d="M106.9,39.6L107,36c0-0.2,0-0.4-0.1-0.6c-0.2-0.2-0.4-0.3-0.6-0.4s-0.4-0.1-0.5,0c-3.7,0.8-7.5,1.1-11.4,1
						c-0.2,0-0.4,0.1-0.6,0.1c-0.2,0.1-0.3,0.3-0.4,0.4c-0.1,0.2-0.1,0.4-0.1,0.6l0.3,2.1c0,0.2,0.1,0.4,0.3,0.5
						c0.1,0.2,0.3,0.3,0.6,0.3c3.7,0.8,7.5,1,11.4,0.5c0.3,0,0.5-0.1,0.7-0.3C106.8,40.1,106.9,39.9,106.9,39.6z"/>
				</g>
			</g>
		</g>
	</g>
</g>
<g>
	<rect x="256" class="st0" width="64" height="64"/>
	<g>
		<g transform="matrix( 1, 0, 0, 1, 0,0) ">
			<g>
				<g id="Layer0_47_MEMBER_0_FILL">
					<path class="st13" d="M273.1,23.5c-1.2-1.1-2.5-1.6-3.8-1.6c-0.8,0-1.7,0.5-2.5,1.6l-5.3,7c-1.7,2.1-1.7,4.2,0,6.4l5.3,6.9
						c0.9,1,1.7,1.6,2.5,1.6c1.3,0,2.6-0.5,3.8-1.6l8.2-6.9c2.6-2.2,2.6-4.3,0-6.4L273.1,23.5z"/>
				</g>
			</g>
		</g>
		<g transform="matrix( 1, 0, 0, 1, 0,0) ">
			<g>
				<g id="Layer0_47_MEMBER_1_FILL">
					<path class="st13" d="M303.8,43.7c-0.3-0.2-0.6-0.2-1-0.3c-6,0.4-12.1-0.6-18.3-3c-0.3-0.1-0.6-0.1-0.9-0.1
						c-0.3,0.1-0.5,0.3-0.7,0.4c-0.2,0.3-0.4,0.6-0.5,0.9l-1.4,6.8c-0.1,0.3,0,0.5,0.2,0.9c0.1,0.4,0.3,0.6,0.7,0.8
						c5.7,3.1,12.5,4.2,20.3,3.5c0.3,0,0.6-0.2,0.9-0.4s0.4-0.5,0.5-1l1.1-6.9c0.1-0.3,0-0.6-0.2-1C304.3,44,304.1,43.8,303.8,43.7z
						"/>
				</g>
			</g>
		</g>
		<g transform="matrix( 1, 0, 0, 1, 0,0) ">
			<g>
				<g id="Layer0_47_MEMBER_2_FILL">
					<path class="st13" d="M305.6,25.6c0.3-0.1,0.6-0.3,0.9-0.5c0.2-0.3,0.3-0.5,0.3-0.9V11.7c0-0.4-0.1-0.8-0.4-1.1
						s-0.7-0.4-1.1-0.4c-9.5,0.1-17.9,2.8-25.3,8.1c-0.3,0.2-0.5,0.5-0.5,0.9c-0.1,0.3-0.1,0.6,0,1l4.2,9c0.1,0.3,0.4,0.6,0.7,0.7
						c0.3,0.2,0.7,0.3,1,0.1L305.6,25.6z"/>
				</g>
			</g>
		</g>
		<g transform="matrix( 1, 0, 0, 1, 0,0) ">
			<g>
				<g id="Layer0_47_MEMBER_3_FILL">
					<path class="st14" d="M302.7,49.5c-2.2-10-2.2-20.4,0-30.9c-7.2,0.5-13.6,1.9-19.2,4.3C276.5,26,273,29.7,273,34
						s3.5,8,10.5,11.1C289.1,47.5,295.5,49,302.7,49.5z"/>
					<path class="st15" d="M305.2,18.5c-0.8,0-1.6,0.1-2.5,0.1c-2.2,10.6-2.2,20.9,0,30.9c0.8,0,1.7,0.1,2.5,0.1
						c0.7,0,1.3,0.1,2,0.1c0.3,0,0.6,0,0.9,0h0.1c0.1,0,0.1,0,0.3,0c2-0.2,3.7-1.7,5.1-4.6c1.5-3,2.3-6.7,2.3-11.1
						s-0.8-8.1-2.3-11.1c-1.5-2.8-3.2-4.3-5.1-4.5l0,0c-0.1,0-0.2,0-0.3,0h-0.1c-0.3,0-0.6,0-0.9,0
						C306.5,18.4,305.8,18.4,305.2,18.5 M311.4,32.3c-0.3,0.4-0.8,0.6-1.4,0.6c-0.5,0-0.9-0.2-1.3-0.6c-0.4-0.4-0.5-0.8-0.5-1.4
						c0-0.5,0.2-1,0.5-1.4c0.4-0.4,0.8-0.6,1.3-0.6c0.6,0,1,0.2,1.4,0.6s0.6,0.9,0.6,1.4S311.8,31.9,311.4,32.3z"/>
					<path class="st13" d="M310,32.9c0.6,0,1-0.2,1.4-0.6c0.4-0.4,0.6-0.8,0.6-1.4c0-0.5-0.2-1-0.6-1.4c-0.3-0.4-0.8-0.6-1.4-0.6
						c-0.5,0-0.9,0.2-1.3,0.6s-0.5,0.9-0.5,1.4s0.2,1,0.5,1.4C309.1,32.7,309.5,32.9,310,32.9z"/>
				</g>
			</g>
		</g>
		<g transform="matrix( 1, 0, 0, 1, 0,0) ">
			<g>
				<g id="Layer0_47_MEMBER_4_FILL">
					<path class="st13" d="M297.9,35.5c-0.2-0.3-0.4-0.6-0.6-0.8s-0.5-0.3-0.8-0.3c-5.3-0.3-10.5-1.2-15.7-2.8c-0.3,0-0.6,0-0.8,0
						c-0.3,0.1-0.5,0.3-0.7,0.5s-0.3,0.4-0.4,0.7l-0.4,2.9c0,0.3,0,0.6,0.1,0.9c0.2,0.3,0.4,0.5,0.6,0.6c4.7,2.4,9.8,4.1,15.3,4.9
						c0.4,0,0.7,0,1-0.3c0.3-0.1,0.4-0.4,0.5-0.8l1.6-4.8C297.9,36,297.9,35.8,297.9,35.5z"/>
				</g>
			</g>
		</g>
	</g>
</g>
<g>
	<rect x="128" class="st0" width="64" height="64"/>
	<g>
		<g transform="matrix( 1, 0, 0, 1, 0,0) ">
			<g>
				<g id="Layer0_49_MEMBER_0_FILL">
					<path class="st16" d="M146,23.5c-1.2,0-2.3,0.4-3.4,1.3l-7.4,5.2c-2.4,1.5-2.4,3.1,0,4.7l7.4,5.1c1.1,0.8,2.2,1.1,3.4,1.1
						c0.8,0,1.5-0.4,2.3-1.1l4.8-5.1c1.5-1.6,1.5-3.2,0-4.7l-4.8-5.2C147.5,24,146.7,23.5,146,23.5z"/>
				</g>
			</g>
		</g>
		<g transform="matrix( 1, 0, 0, 1, 0,0) ">
			<g>
				<g id="Layer0_49_MEMBER_1_FILL">
					<path class="st17" d="M172,38.9c0.1-0.3,0-0.5-0.2-0.8c-0.2-0.2-0.4-0.4-0.6-0.6c-0.2-0.1-0.5-0.2-0.9-0.2
						c-5.3,0.4-10.7-0.5-16.1-2.6c-0.3,0-0.6-0.1-0.9-0.1c-0.3,0.1-0.5,0.2-0.6,0.4c-0.2,0.3-0.4,0.6-0.5,0.8l-1.2,6
						c-0.1,0.2-0.1,0.5,0.1,0.8c0.1,0.3,0.3,0.6,0.6,0.7c5,2.7,11,3.8,18,3.1c0.3,0,0.6-0.1,0.8-0.4c0.2-0.2,0.4-0.5,0.5-0.8
						L172,38.9z"/>
				</g>
			</g>
		</g>
		<g transform="matrix( 1, 0, 0, 1, 0,0) ">
			<g>
				<g id="Layer0_49_MEMBER_2_FILL">
					<path class="st17" d="M154.2,25.5c-0.1,0.3-0.1,0.6,0,0.9l3.7,7.9c0.1,0.3,0.3,0.5,0.6,0.6c0.3,0.2,0.6,0.3,0.9,0.2L177,31
						c0.3-0.1,0.5-0.3,0.7-0.5s0.3-0.5,0.3-0.7v-11c0-0.4-0.1-0.7-0.3-0.9c-0.3-0.2-0.6-0.4-1-0.4c-8.3,0.1-15.6,2.4-22,7.1
						C154.4,24.9,154.2,25.2,154.2,25.5z"/>
				</g>
			</g>
		</g>
		<g transform="matrix( 1, 0, 0, 1, 0,0) ">
			<g>
				<g id="Layer0_49_MEMBER_3_FILL">
					<path class="st16" d="M181.8,38.9c4.1-3.4,5.6-6.4,4.5-9c-1.1-2.5-2.9-4.5-5.6-6c-3.3-1.8-7.3-2.2-12.2-1.1
						c0,7.4,3,13.8,9,19.3c0.4-0.2,0.7-0.4,1-0.6C179.5,40.7,180.6,39.9,181.8,38.9 M179.8,30.3c0.5,0,0.9,0.2,1.2,0.5
						c0.4,0.4,0.6,0.8,0.6,1.2c0,0.5-0.2,0.9-0.6,1.3c-0.3,0.4-0.7,0.5-1.2,0.5s-0.9-0.2-1.3-0.5c-0.3-0.4-0.5-0.8-0.5-1.3
						c0-0.4,0.2-0.8,0.5-1.2C179,30.4,179.4,30.3,179.8,30.3z"/>
					<path class="st18" d="M181,30.8c-0.3-0.4-0.7-0.5-1.2-0.5s-0.9,0.2-1.3,0.5c-0.3,0.4-0.5,0.8-0.5,1.2c0,0.5,0.2,0.9,0.5,1.3
						c0.4,0.4,0.8,0.5,1.3,0.5s0.9-0.2,1.2-0.5c0.4-0.4,0.6-0.8,0.6-1.3C181.7,31.6,181.5,31.2,181,30.8z"/>
					<path class="st19" d="M166.7,23.2c-3.8,1.2-7.7,2.4-11.8,3.8c-4.1,1.3-6.1,3.4-5.9,6.3c0.2,2.8,2.5,5.3,7.1,7.5
						c3.4,1.7,7.4,2.7,12,3.1c3.5,0.2,6.7-0.4,9.5-1.8c-6-5.5-9-11.9-9-19.3c-0.3,0-0.6,0.1-0.9,0.2C167.4,23,167,23.1,166.7,23.2z"
						/>
				</g>
			</g>
		</g>
		<g transform="matrix( 1, 0, 0, 1, 0,0) ">
			<g>
				<g id="Layer0_49_MEMBER_4_FILL">
					<path class="st16" d="M166.9,39.9l0.9-2.9c0-0.2,0.1-0.3,0.1-0.5c-0.1-0.2-0.2-0.4-0.4-0.4c-0.2-0.1-0.3-0.2-0.5-0.1
						c-3.1-0.2-6.2-0.7-9.3-1.7c-0.2,0-0.3,0-0.5,0c-0.2,0.1-0.3,0.2-0.4,0.3s-0.2,0.2-0.3,0.4l-0.2,1.7c0,0.2,0,0.4,0,0.5
						c0.1,0.2,0.2,0.3,0.4,0.3c2.8,1.5,5.8,2.4,9,2.9c0.2,0,0.4-0.1,0.6-0.2C166.7,40.2,166.8,40.1,166.9,39.9z"/>
				</g>
			</g>
		</g>
	</g>
</g>
<g>
	<rect x="192" y="64" class="st0" width="64" height="64"/>
	<g>
		<g transform="matrix( 1, 0, 0, 1, 0,0) ">
			<g>
				<g id="Layer0_2_MEMBER_0_FILL_1_">
					<path class="st1" d="M230.9,96.4c-2,1.9-2,3.9,0,5.8l6.3,6.2c2,1.9,4,1.9,6,0l6.3-6.2c2-1.9,2-3.9,0-5.8l-6.3-6.2
						c-2-1.9-4-1.9-6,0L230.9,96.4z"/>
				</g>
			</g>
		</g>
		<g transform="matrix( 1, 0, 0, 1, 0,0) ">
			<g>
				<g id="Layer0_2_MEMBER_1_FILL_1_">
					<path class="st1" d="M207.7,115.8c6.6,0.6,12.3-0.4,17-2.9c0.3-0.1,0.4-0.4,0.5-0.6c0.2-0.2,0.2-0.5,0.2-0.8l-1.2-5.7
						c-0.1-0.3-0.2-0.5-0.4-0.7s-0.4-0.3-0.7-0.4c-0.3,0-0.5,0-0.8,0.1c-5.2,2-10.3,2.9-15.4,2.5c-0.3,0-0.6,0.1-0.8,0.2
						s-0.4,0.3-0.6,0.6c-0.1,0.2-0.2,0.5-0.1,0.8l0.9,5.9c0.1,0.3,0.2,0.5,0.4,0.8C207.1,115.6,207.3,115.8,207.7,115.8z"/>
				</g>
			</g>
		</g>
		<g transform="matrix( 1, 0, 0, 1, 0,0) ">
			<g>
				<g id="Layer0_2_MEMBER_2_FILL_1_">
					<path class="st1" d="M206.6,90.6c0,0.3,0.1,0.6,0.3,0.8c0.2,0.2,0.4,0.4,0.8,0.5l18.2,4c0.3,0.1,0.6,0.1,0.9-0.1
						c0.3-0.1,0.5-0.4,0.6-0.6l3.8-8.1c0.1-0.3,0.1-0.6,0.1-0.9c-0.1-0.3-0.2-0.5-0.5-0.8c-6.8-4.9-14.3-7.4-22.9-7.4
						c-0.4,0-0.7,0.1-1,0.4c-0.2,0.2-0.3,0.5-0.3,0.9C206.6,79.3,206.6,90.6,206.6,90.6z"/>
				</g>
			</g>
		</g>
		<g transform="matrix( 1, 0, 0, 1, 0,0) ">
			<g>
				<g id="Layer0_2_MEMBER_3_FILL_1_">
					<path class="st2" d="M219.3,98.7c0,5-1.3,9.2-4,12.7c-0.2,0.2-0.4,0.5-0.6,0.8c5.5-0.4,10.4-1.7,14.5-3.7
						c5.1-2.5,7.7-5.6,7.7-9.2s-2.6-6.7-7.7-9.2c-3.9-1.9-8.4-3.1-13.5-3.6C218.1,89.9,219.3,94,219.3,98.7z"/>
					<path class="st3" d="M210.1,112.3c0.1,0,0.3,0,0.4,0c1.5,0,2.9,0,4.2-0.1c0.2-0.3,0.4-0.5,0.6-0.8c2.7-3.5,4-7.7,4-12.7
						c0-4.7-1.2-8.8-3.7-12.2c-1.7-0.2-3.4-0.3-5.2-0.3c-0.1,0-0.3,0-0.4,0c-3.6,0.1-6.7,1.3-9.2,3.8c-2.5,2.6-3.8,5.7-3.8,9.3
						c0,3.6,1.3,6.6,3.9,9.2C203.4,111,206.5,112.2,210.1,112.3z"/>
				</g>
			</g>
		</g>
		<g transform="matrix( 1, 0, 0, 1, 0,0) ">
			<g>
				<g id="Layer0_2_MEMBER_4_FILL_1_">
					<path class="st4" d="M202.7,97.3c0,0.7,0.3,1.4,0.8,1.9s1.2,0.8,1.9,0.8s1.4-0.3,1.9-0.8s0.8-1.1,0.8-1.9
						c0-0.7-0.3-1.3-0.8-1.8s-1.2-0.8-1.9-0.8s-1.4,0.3-1.9,0.8C202.9,96,202.7,96.6,202.7,97.3z"/>
				</g>
			</g>
		</g>
		<g transform="matrix( 1, 0, 0, 1, 0,0) ">
			<g>
				<g id="Layer0_2_MEMBER_5_FILL_1_">
					<path class="st1" d="M212.6,102.9l1.4,4.4c0.1,0.3,0.3,0.5,0.6,0.6c0.3,0.2,0.6,0.2,0.9,0.2c5-0.7,9.6-2.2,14-4.4
						c0.3-0.1,0.5-0.3,0.5-0.6c0.1-0.2,0.1-0.4,0.1-0.7l-0.3-2.7c0-0.3-0.1-0.5-0.3-0.6c-0.2-0.2-0.4-0.3-0.7-0.4
						c-0.2-0.1-0.5-0.1-0.8,0c-4.7,1.4-9.5,2.3-14.3,2.5c-0.2,0-0.5,0.1-0.7,0.3c-0.2,0.2-0.4,0.4-0.5,0.6
						C212.5,102.3,212.5,102.6,212.6,102.9z"/>
				</g>
			</g>
		</g>
	</g>
</g>
<g>
	<rect y="64" class="st0" width="64" height="64"/>
	<g>
		<g transform="matrix( 1, 0, 0, 1, 0,0) ">
			<g>
				<g id="Layer0_41_MEMBER_0_FILL_1_">
					<path class="st5" d="M40.6,101.8c1.5,1.3,3.1,1.3,4.6,0l5-4.3c1.6-1.3,1.6-2.6,0-3.9l-5-4.3c-1.5-1.3-3.1-1.3-4.6,0l-4.9,4.3
						c-1.6,1.3-1.6,2.6,0,3.9L40.6,101.8z"/>
				</g>
			</g>
		</g>
		<g transform="matrix( 1, 0, 0, 1, 0,0) ">
			<g>
				<g id="Layer0_41_MEMBER_1_FILL_1_">
					<path class="st5" d="M31.1,107.1c0.1,0.1,0.3,0.1,0.5,0c0.2,0,0.3-0.1,0.4-0.2l2-2.8c0.1-0.1,0.1-0.3,0.1-0.4s0-0.3-0.1-0.5
						s-0.2-0.3-0.3-0.3c-2.7-1.6-4.9-3.7-6.6-6.2c-0.1-0.1-0.2-0.2-0.4-0.3c-0.1-0.1-0.3-0.1-0.5,0c-0.2,0-0.3,0.1-0.4,0.2l-2.2,2.8
						c-0.1,0.1-0.2,0.3-0.2,0.5s0,0.4,0.1,0.5C25.9,103.7,28.4,105.9,31.1,107.1z"/>
				</g>
			</g>
		</g>
		<g transform="matrix( 1, 0, 0, 1, 0,0) ">
			<g>
				<g id="Layer0_41_MEMBER_2_FILL_1_">
					<path class="st5" d="M34,91.7l0.8-5.5c0-0.2,0-0.4-0.1-0.5s-0.2-0.2-0.3-0.3c-4.2-1.2-8.5-0.8-13,1.1c-0.2,0.1-0.4,0.2-0.5,0.4
						c-0.1,0.2-0.1,0.4,0,0.6l1.6,6.4c0,0.1,0.1,0.3,0.3,0.4c0.1,0,0.3,0,0.5,0l10.1-1.8c0.2,0,0.3-0.1,0.4-0.3
						C33.9,92.1,34,91.9,34,91.7z"/>
				</g>
			</g>
		</g>
		<g transform="matrix( 1, 0, 0, 1, 0,0) ">
			<g>
				<g id="Layer0_41_MEMBER_3_FILL_1_">
					<path class="st6" d="M14.8,90.9c-1.3,1.3-2,2.9-2,4.8s0.7,3.5,2,4.8s2.9,2,4.8,2c0.1,0,0.3,0,0.4,0l6.8-6.8L19.9,89
						c-0.1,0-0.3,0-0.4,0C17.6,89,16.1,89.6,14.8,90.9z"/>
					<path class="st7" d="M26.6,95.8l-6.8,6.8c4.6-0.1,8.7-0.5,12.3-1.3c1-0.2,2-0.4,3-0.7c4.5-1.3,6.8-2.9,6.8-4.8
						s-2.3-3.5-6.8-4.8c-4.3-1.2-9.3-1.8-15.2-1.9L26.6,95.8z"/>
				</g>
			</g>
		</g>
		<g transform="matrix( 1, 0, 0, 1, 0,0) ">
			<g>
				<g id="Layer0_41_MEMBER_4_FILL_1_">
					<path class="st8" d="M15.5,96.4c0.4,0.4,0.8,0.6,1.4,0.6c0.5,0,1-0.2,1.4-0.6s0.6-0.8,0.6-1.4c0-0.5-0.2-1-0.6-1.4
						S17.4,93,16.9,93c-0.6,0-1,0.2-1.4,0.6s-0.6,0.9-0.6,1.4C14.9,95.6,15.1,96,15.5,96.4z"/>
				</g>
			</g>
		</g>
	</g>
</g>
<g>
	<rect x="64" y="64" class="st0" width="64" height="64"/>
	<g>
		<g transform="matrix( 1, 0, 0, 1, 0,0) ">
			<g>
				<g id="Layer0_44_MEMBER_0_FILL_1_">
					<path class="st9" d="M100.4,101c-0.1-0.1-0.3-0.1-0.5-0.1c-0.2,0.1-0.4,0.1-0.5,0.3c-3.4,2.5-7,4.1-10.8,4.9
						c-0.2,0.1-0.4,0.2-0.5,0.3c-0.2,0.1-0.3,0.3-0.3,0.5c-0.1,0.2-0.1,0.4,0,0.6l1.8,4.1c0.1,0.2,0.3,0.4,0.5,0.5s0.4,0.1,0.6,0.1
						c4.9-0.8,8.9-2.7,12-5.5c0.2-0.2,0.3-0.4,0.3-0.6c0.1-0.2,0-0.4-0.1-0.6l-1.9-3.9C100.8,101.3,100.6,101.1,100.4,101z"/>
				</g>
			</g>
		</g>
		<g transform="matrix( 1, 0, 0, 1, 0,0) ">
			<g>
				<g id="Layer0_44_MEMBER_1_FILL_1_">
					<path class="st9" d="M111.7,89.4l-8.1,5.1c-2.5,1.6-2.5,3.1,0,4.8l8.1,5.1c1.2,0.8,2.4,1.1,3.7,1.1c0.8,0,1.7-0.4,2.5-1.1
						l5.2-5.1c1.6-1.6,1.6-3.2,0-4.8l-5.2-5.1c-0.8-0.8-1.7-1.2-2.5-1.2C114.1,88.1,112.9,88.6,111.7,89.4z"/>
				</g>
			</g>
		</g>
		<g transform="matrix( 1, 0, 0, 1, 0,0) ">
			<g>
				<g id="Layer0_44_MEMBER_2_FILL_1_">
					<path class="st9" d="M80.3,91.3c0.2,0.2,0.4,0.3,0.7,0.4l15.3,3.4c0.3,0.1,0.5,0.1,0.8-0.1c0.3-0.1,0.5-0.3,0.6-0.5l3.2-6.9
						c0.1-0.3,0.1-0.5,0.1-0.8s-0.2-0.5-0.4-0.6C95,82.1,88.6,80,81.4,80c-0.3,0-0.6,0.1-0.9,0.3c-0.2,0.2-0.3,0.5-0.3,0.8v9.5
						C80.1,90.9,80.2,91.1,80.3,91.3z"/>
				</g>
			</g>
		</g>
		<g transform="matrix( 1, 0, 0, 1, 0,0) ">
			<g>
				<g id="Layer0_44_MEMBER_3_FILL_1_">
					<path class="st10" d="M87,107c0.1,0,0.2,0,0.4,0c6.1-0.1,11.3-1,15.6-2.9c4.6-1.9,6.9-4.3,6.9-7c0-2.8-2.3-5.1-6.9-7
						c-4.4-1.8-9.6-2.8-15.6-2.9c-0.1,0-0.3,0-0.4,0C89.5,93.6,89.5,100.3,87,107z"/>
					<path class="st11" d="M83.6,87.4c-2.1,0.1-4.8,1-8,2.9c-3.2,1.8-5.6,3.6-7.4,5.2c-1.7,1.7-0.2,4,4.6,7s9.4,4.5,14,4.6
						c0.1,0,0.1,0,0.2,0c2.4-6.8,2.4-13.4,0-19.8C87,87.2,85.9,87.3,83.6,87.4 M78.5,95.9c0,0.4-0.1,0.8-0.4,1s-0.7,0.5-1.1,0.5
						s-0.8-0.2-1.1-0.5s-0.5-0.6-0.5-1s0.1-0.8,0.5-1.1c0.3-0.3,0.7-0.4,1.1-0.4s0.8,0.1,1.1,0.4C78.4,95.1,78.5,95.4,78.5,95.9z"/>
					<path class="st12" d="M76,94.8c-0.3,0.3-0.5,0.6-0.5,1.1c0,0.4,0.1,0.8,0.5,1c0.3,0.3,0.7,0.5,1.1,0.5s0.8-0.2,1.1-0.5
						s0.4-0.6,0.4-1s-0.1-0.8-0.4-1.1c-0.3-0.3-0.7-0.4-1.1-0.4C76.6,94.4,76.3,94.5,76,94.8z"/>
				</g>
			</g>
		</g>
		<g transform="matrix( 1, 0, 0, 1, 0,0) ">
			<g>
				<g id="Layer0_44_MEMBER_4_FILL_1_">
					<path class="st9" d="M85.4,104.2c0.2,0.2,0.4,0.3,0.7,0.3c3.9,0.5,7.8,0.3,11.4-0.5c0.2,0,0.4-0.1,0.6-0.3
						c0.1-0.1,0.2-0.3,0.3-0.5l0.3-2.1c0-0.2,0-0.4-0.1-0.6s-0.2-0.3-0.4-0.4s-0.4-0.1-0.6-0.1c-3.9,0.1-7.7-0.2-11.4-1
						c-0.2-0.1-0.3-0.1-0.5,0s-0.4,0.2-0.6,0.4C85,99.6,85,99.8,85,100l0.2,3.6C85.1,103.9,85.2,104.1,85.4,104.2z"/>
				</g>
			</g>
		</g>
	</g>
</g>
<g>
	<rect x="256" y="64" class="st0" width="64" height="64"/>
	<g>
		<g transform="matrix( 1, 0, 0, 1, 0,0) ">
			<g>
				<g id="Layer0_47_MEMBER_0_FILL_1_">
					<path class="st13" d="M294.7,94.5c-2.6,2.1-2.6,4.2,0,6.4l8.2,6.9c1.2,1,2.5,1.6,3.8,1.6c0.8,0,1.7-0.5,2.5-1.6l5.3-6.9
						c1.7-2.2,1.7-4.3,0-6.4l-5.3-7c-0.9-1.1-1.7-1.6-2.5-1.6c-1.3,0-2.6,0.5-3.8,1.6L294.7,94.5z"/>
				</g>
			</g>
		</g>
		<g transform="matrix( 1, 0, 0, 1, 0,0) ">
			<g>
				<g id="Layer0_47_MEMBER_1_FILL_1_">
					<path class="st13" d="M271.5,108.3c-0.2,0.3-0.3,0.6-0.2,1l1.1,6.9c0.1,0.4,0.2,0.7,0.5,1s0.6,0.4,0.9,0.4
						c7.8,0.8,14.6-0.4,20.3-3.5c0.3-0.2,0.5-0.4,0.7-0.8c0.2-0.3,0.3-0.6,0.2-0.9l-1.4-6.8c-0.1-0.3-0.3-0.6-0.5-0.9
						c-0.2-0.1-0.4-0.3-0.7-0.4c-0.3,0-0.6,0.1-0.9,0.1c-6.1,2.4-12.2,3.4-18.3,3c-0.4,0-0.7,0.1-1,0.3
						C271.9,107.8,271.7,108,271.5,108.3z"/>
				</g>
			</g>
		</g>
		<g transform="matrix( 1, 0, 0, 1, 0,0) ">
			<g>
				<g id="Layer0_47_MEMBER_2_FILL_1_">
					<path class="st13" d="M290.5,94.1c0.3,0.1,0.7,0.1,1-0.1c0.3-0.1,0.6-0.4,0.7-0.7l4.2-9c0.1-0.4,0.2-0.7,0-1
						c0-0.3-0.2-0.6-0.5-0.9c-7.3-5.4-15.8-8.1-25.3-8.1c-0.4,0-0.8,0.1-1.1,0.4c-0.3,0.3-0.4,0.6-0.4,1.1v12.5
						c0,0.3,0.1,0.6,0.3,0.9s0.5,0.5,0.9,0.5L290.5,94.1z"/>
				</g>
			</g>
		</g>
		<g transform="matrix( 1, 0, 0, 1, 0,0) ">
			<g>
				<g id="Layer0_47_MEMBER_3_FILL_1_">
					<path class="st14" d="M292.5,109.1c7-3,10.5-6.7,10.5-11.1s-3.5-8.1-10.5-11.1c-5.5-2.4-11.9-3.8-19.2-4.3
						c2.2,10.6,2.2,20.9,0,30.9C280.5,113,286.9,111.5,292.5,109.1z"/>
					<path class="st15" d="M270.8,82.5c-0.7,0-1.3-0.1-2-0.1c-0.3,0-0.6,0-0.9,0h-0.1c-0.1,0-0.1,0-0.3,0l0,0
						c-2,0.2-3.7,1.7-5.1,4.5c-1.5,3.1-2.3,6.8-2.3,11.1c0,4.3,0.8,8,2.3,11.1c1.5,2.9,3.2,4.4,5.1,4.6c0.1,0,0.2,0,0.3,0h0.1
						c0.3,0,0.6,0,0.9,0c0.7,0,1.3,0,2-0.1c0.8,0,1.6-0.1,2.5-0.1c2.2-10,2.2-20.4,0-30.9C272.5,82.5,271.6,82.5,270.8,82.5
						 M264,94.9c0-0.5,0.2-1,0.6-1.4c0.3-0.4,0.8-0.6,1.4-0.6c0.5,0,0.9,0.2,1.3,0.6s0.5,0.9,0.5,1.4s-0.2,1-0.5,1.4
						c-0.4,0.4-0.8,0.6-1.3,0.6c-0.6,0-1-0.2-1.4-0.6S264,95.4,264,94.9z"/>
					<path class="st13" d="M267.3,96.3c0.4-0.4,0.5-0.8,0.5-1.4c0-0.5-0.2-1-0.5-1.4c-0.4-0.4-0.8-0.6-1.3-0.6c-0.6,0-1,0.2-1.4,0.6
						s-0.6,0.9-0.6,1.4s0.2,1,0.6,1.4c0.3,0.4,0.8,0.6,1.4,0.6C266.5,96.9,266.9,96.7,267.3,96.3z"/>
				</g>
			</g>
		</g>
		<g transform="matrix( 1, 0, 0, 1, 0,0) ">
			<g>
				<g id="Layer0_47_MEMBER_4_FILL_1_">
					<path class="st13" d="M278.2,100.3l1.6,4.8c0.1,0.4,0.2,0.6,0.5,0.8c0.3,0.2,0.7,0.3,1,0.3c5.5-0.8,10.6-2.4,15.3-4.9
						c0.3-0.1,0.5-0.3,0.6-0.6c0.1-0.2,0.1-0.5,0.1-0.9l-0.4-2.9c-0.1-0.3-0.2-0.5-0.4-0.7s-0.4-0.4-0.7-0.5c-0.2,0-0.5,0-0.8,0
						c-5.2,1.6-10.4,2.5-15.7,2.8c-0.3,0-0.5,0.1-0.8,0.3c-0.2,0.2-0.4,0.4-0.6,0.8C278.1,99.8,278.1,100,278.2,100.3z"/>
				</g>
			</g>
		</g>
	</g>
</g>
<g>
	<rect x="128" y="64" class="st0" width="64" height="64"/>
	<g>
		<g transform="matrix( 1, 0, 0, 1, 0,0) ">
			<g>
				<g id="Layer0_49_MEMBER_0_FILL_1_">
					<path class="st16" d="M171.8,88.8L167,94c-1.5,1.5-1.5,3.1,0,4.7l4.8,5.1c0.8,0.8,1.5,1.1,2.3,1.1c1.2,0,2.3-0.4,3.4-1.1
						l7.4-5.1c2.4-1.6,2.4-3.2,0-4.7l-7.4-5.2c-1.1-0.8-2.2-1.3-3.4-1.3C173.3,87.5,172.5,88,171.8,88.8z"/>
				</g>
			</g>
		</g>
		<g transform="matrix( 1, 0, 0, 1, 0,0) ">
			<g>
				<g id="Layer0_49_MEMBER_1_FILL_1_">
					<path class="st17" d="M149,109c0.1,0.3,0.2,0.6,0.5,0.8c0.2,0.2,0.5,0.4,0.8,0.4c6.9,0.7,12.9-0.3,18-3.1
						c0.3-0.1,0.5-0.4,0.6-0.7c0.2-0.3,0.2-0.5,0.1-0.8l-1.2-6c-0.1-0.2-0.2-0.5-0.5-0.8c-0.1-0.1-0.3-0.3-0.6-0.4
						c-0.3,0-0.6,0.1-0.9,0.1c-5.4,2.1-10.8,3-16.1,2.6c-0.3,0-0.6,0.1-0.9,0.2c-0.2,0.1-0.4,0.3-0.6,0.6c-0.2,0.3-0.2,0.5-0.2,0.8
						L149,109z"/>
				</g>
			</g>
		</g>
		<g transform="matrix( 1, 0, 0, 1, 0,0) ">
			<g>
				<g id="Layer0_49_MEMBER_2_FILL_1_">
					<path class="st17" d="M165.3,88.7c-6.4-4.7-13.7-7-22-7.1c-0.4,0-0.7,0.1-1,0.4c-0.2,0.2-0.3,0.5-0.3,0.9v11
						c0,0.2,0.1,0.5,0.3,0.7s0.4,0.4,0.7,0.5l17.6,3.9c0.3,0.1,0.6,0,0.9-0.2c0.3-0.1,0.5-0.3,0.6-0.6l3.7-7.9
						c0.1-0.3,0.1-0.6,0-0.9C165.8,89.2,165.6,88.9,165.3,88.7z"/>
				</g>
			</g>
		</g>
		<g transform="matrix( 1, 0, 0, 1, 0,0) ">
			<g>
				<g id="Layer0_49_MEMBER_3_FILL_1_">
					<path class="st16" d="M138.2,102.9c1.2,1,2.3,1.8,3.3,2.5c0.3,0.2,0.7,0.4,1,0.6c6-5.5,9-11.9,9-19.3
						c-4.9-1.1-8.9-0.7-12.2,1.1c-2.7,1.5-4.5,3.5-5.6,6C132.6,96.4,134.1,99.4,138.2,102.9 M141.4,94.8c0.3,0.4,0.5,0.8,0.5,1.2
						c0,0.5-0.2,0.9-0.5,1.3c-0.4,0.4-0.8,0.5-1.3,0.5s-0.9-0.2-1.2-0.5c-0.4-0.4-0.6-0.8-0.6-1.3c0-0.4,0.2-0.8,0.6-1.2
						c0.3-0.4,0.7-0.5,1.2-0.5S141,94.4,141.4,94.8z"/>
					<path class="st18" d="M138.3,96c0,0.5,0.2,0.9,0.6,1.3c0.3,0.4,0.7,0.5,1.2,0.5s0.9-0.2,1.3-0.5c0.3-0.4,0.5-0.8,0.5-1.3
						c0-0.4-0.2-0.8-0.5-1.2c-0.4-0.4-0.8-0.5-1.3-0.5s-0.9,0.2-1.2,0.5C138.5,95.2,138.3,95.6,138.3,96z"/>
					<path class="st19" d="M152.3,86.9c-0.3-0.1-0.6-0.2-0.9-0.2c0,7.4-3,13.8-9,19.3c2.8,1.4,6,2,9.5,1.8c4.6-0.4,8.6-1.4,12-3.1
						c4.6-2.2,6.9-4.7,7.1-7.5s-1.8-4.9-5.9-6.3c-4.1-1.3-8-2.6-11.8-3.8C153,87.1,152.6,87,152.3,86.9z"/>
				</g>
			</g>
		</g>
		<g transform="matrix( 1, 0, 0, 1, 0,0) ">
			<g>
				<g id="Layer0_49_MEMBER_4_FILL_1_">
					<path class="st16" d="M153.4,104.3c0.2,0.1,0.4,0.2,0.6,0.2c3.2-0.5,6.2-1.4,9-2.9c0.2-0.1,0.3-0.2,0.4-0.3
						c0.1-0.1,0.1-0.3,0-0.5l-0.2-1.7c-0.1-0.2-0.2-0.3-0.3-0.4s-0.2-0.2-0.4-0.3c-0.1,0-0.3,0-0.5,0c-3.1,0.9-6.2,1.5-9.3,1.7
						c-0.1,0-0.3,0-0.5,0.1c-0.1,0.1-0.3,0.3-0.4,0.4c0,0.1,0,0.3,0.1,0.5l0.9,2.9C153.2,104.1,153.3,104.2,153.4,104.3z"/>
				</g>
			</g>
		</g>
	</g>
</g>
<g>
	<rect x="128" y="256" class="st0" width="64" height="64"/>
	<g transform="matrix( 1, 0, 0, 1, 0,0) ">
		<g>
			<g id="Layer0_118_MEMBER_2_MEMBER_0_FILL">
				<path class="st20" d="M150.2,284c1.6-1.6,1.6-3.1,0-4.7l-5.1-5c-1.6-1.6-3.3-1.6-4.8,0l-5.2,5c-1.6,1.6-1.6,3.1,0,4.7l5.2,5
					c1.6,1.6,3.2,1.6,4.8,0L150.2,284z"/>
			</g>
		</g>
	</g>
	<g transform="matrix( 1, 0, 0, 1, 0,0) ">
		<g>
			<g id="Layer0_118_MEMBER_2_MEMBER_1_FILL">
				<path class="st21" d="M186.1,285.6c-6.7,2.7-13.4,2.5-20.2-0.6c-0.2-0.1-0.4-0.3-0.7-0.4c-7.4-3.7-14.9-3.8-22.5-0.3
					c0,0.1,0,0.2,0,0.3c-0.2,1.2-0.3,2.4-0.3,3.7c0,6.1,2.1,11.2,6.4,15.5c4.3,4.3,9.5,6.5,15.6,6.5s11.2-2.1,15.5-6.5
					c3.7-3.7,5.8-8.1,6.3-13.2c0.1-0.8,0.1-1.5,0.1-2.3C186.3,287.4,186.2,286.5,186.1,285.6z"/>
				<path class="st22" d="M186.1,285.6c-0.6-4.9-2.7-9.2-6.3-12.8c-2.8-2.8-6-4.7-9.6-5.7c-1.9-0.5-3.9-0.8-5.9-0.8
					c-6.1,0-11.3,2.1-15.6,6.4c-3.3,3.3-5.3,7.1-6,11.5c7.6-3.4,15.1-3.3,22.5,0.3c0.3,0.1,0.5,0.2,0.7,0.4
					C172.7,288.1,179.4,288.3,186.1,285.6z"/>
			</g>
		</g>
	</g>
	<g transform="matrix( 1, 0, 0, 1, 0,0) ">
		<g>
			<g id="Layer0_118_MEMBER_2_MEMBER_2_FILL">
				<path class="st20" d="M167.8,285.2v-5.8c0-0.2-0.1-0.4-0.2-0.6c-0.1-0.2-0.3-0.3-0.5-0.3c-2.8-1-5.7-1.3-8.4-0.9
					c-0.2,0-0.4,0.1-0.5,0.2s-0.2,0.2-0.3,0.4c-1.8,4.2-1.8,8.4,0,12.6c0.1,0.2,0.3,0.4,0.5,0.6c0.2,0.1,0.5,0.1,0.8,0
					c3.1-1,5.9-2.9,8.4-5.5C167.8,285.7,167.8,285.5,167.8,285.2z"/>
			</g>
		</g>
	</g>
	<g transform="matrix( 1, 0, 0, 1, 0,0) ">
		<g>
			<g id="Layer0_118_MEMBER_5_FILL">
				<path class="st20" d="M154.3,269.5c-0.1-0.2-0.2-0.3-0.3-0.3l-4.2-2.1c-0.1-0.1-0.3-0.1-0.4,0c-0.1,0-0.3,0-0.4,0.1
					c-0.1,0.1-0.1,0.3-0.2,0.5c0,0.1,0,0.3,0.1,0.4l2.1,4.1c0.1,0.2,0.2,0.3,0.3,0.4c0.2,0.1,0.3,0.1,0.5,0.1
					c1.5-0.4,2.4-1.3,2.5-2.7C154.4,269.7,154.4,269.6,154.3,269.5z"/>
			</g>
		</g>
	</g>
	<g>
		<g id="Layer0_118_MEMBER_0_FILL">
			<path class="st23" d="M166.1,308.2c-0.1-0.1-0.2-0.3-0.3-0.4c-1.3-0.8-2.5-0.8-3.7,0.1c-0.1,0.1-0.2,0.2-0.3,0.3
				c0,0.2,0,0.3,0,0.5l1.4,4.4c0,0.1,0.1,0.3,0.3,0.4c0.1,0.1,0.2,0.1,0.4,0.1c0.1,0,0.3,0,0.4-0.1c0.1-0.1,0.2-0.2,0.3-0.4l1.4-4.4
				C166.1,308.5,166.1,308.3,166.1,308.2z"/>
		</g>
	</g>
	<g>
		<g id="Layer0_118_MEMBER_1_FILL">
			<path class="st20" d="M163.2,262.7c-0.1,0.1-0.2,0.2-0.3,0.3l-1.4,4.5c0,0.1,0,0.3,0.1,0.5c0,0.1,0.1,0.2,0.2,0.3
				c1.1,0.9,2.3,0.9,3.7,0c0.1-0.1,0.2-0.2,0.3-0.3c0-0.2,0-0.3,0-0.5l-1.4-4.4c-0.1-0.1-0.2-0.3-0.3-0.3c-0.2-0.1-0.3-0.2-0.4-0.2
				C163.4,262.5,163.3,262.6,163.2,262.7z"/>
		</g>
	</g>
	<g>
		<g id="Layer0_118_MEMBER_2_MEMBER_1_MEMBER_0_FILL">
			<path class="st20" d="M175.9,277.9c-0.3,0.4-0.5,0.8-0.5,1.2c0,0.5,0.2,0.9,0.5,1.3c0.4,0.4,0.8,0.6,1.3,0.6s0.9-0.2,1.2-0.6
				c0.4-0.4,0.6-0.8,0.6-1.3c0-0.4-0.2-0.8-0.6-1.2c-0.3-0.4-0.7-0.6-1.2-0.6S176.3,277.5,175.9,277.9z"/>
		</g>
	</g>
	<g>
		<g id="Layer0_118_MEMBER_3_FILL">
			<path class="st23" d="M176.8,303.8c0,0.1,0,0.3,0.1,0.4c0.1,0.2,0.2,0.3,0.3,0.3l4.2,2.1c0.1,0.1,0.3,0.1,0.4,0.1
				c0.1,0,0.3,0,0.4-0.1c0.1-0.1,0.1-0.3,0.2-0.5c0-0.1,0-0.3-0.1-0.4l-2.1-4.1c-0.1-0.2-0.2-0.3-0.3-0.3c-0.2-0.1-0.3-0.1-0.4-0.1
				C177.8,301.5,176.9,302.4,176.8,303.8z"/>
		</g>
	</g>
	<g>
		<g id="Layer0_118_MEMBER_4_FILL">
			<path class="st23" d="M144.1,304.1c0,0.1,0,0.3,0.1,0.4s0.3,0.1,0.5,0.2c0.1,0,0.3,0,0.4-0.1l4.1-2.1c0.2-0.1,0.3-0.2,0.3-0.3
				c0.1-0.2,0.1-0.3,0.1-0.5c-0.4-1.5-1.2-2.4-2.6-2.5c-0.1,0-0.3,0-0.4,0c-0.2,0.1-0.3,0.2-0.3,0.3l-2.1,4.2
				C144.1,303.8,144.1,303.9,144.1,304.1z"/>
		</g>
	</g>
	<g>
		<g id="Layer0_118_MEMBER_6_FILL">
			<path class="st20" d="M179.4,267.1c-0.1-0.1-0.3-0.1-0.4-0.1c-0.2,0-0.3,0-0.5,0l-4.2,2.1c-0.1,0.1-0.2,0.2-0.3,0.3
				c-0.1,0.1-0.1,0.2-0.1,0.3c0.2,1.4,1,2.3,2.6,2.7c0.1,0,0.3,0,0.4-0.1c0.1-0.1,0.2-0.2,0.3-0.4l2.2-4.1c0-0.1,0-0.3,0-0.4
				C179.6,267.4,179.5,267.2,179.4,267.1z"/>
		</g>
	</g>
</g>
<g>
	<rect x="192" y="256" class="st0" width="64" height="64"/>
	<g transform="matrix( 1, 0, 0, 1, 0,0) ">
		<g>
			<g id="Layer0_118_MEMBER_2_MEMBER_0_FILL_1_">
				<path class="st20" d="M239,289c1.6,1.6,3.3,1.6,4.8,0l5.2-5c1.6-1.6,1.6-3.1,0-4.7l-5.2-5c-1.6-1.6-3.2-1.6-4.8,0l-5.1,5
					c-1.6,1.6-1.6,3.1,0,4.7L239,289z"/>
			</g>
		</g>
	</g>
	<g transform="matrix( 1, 0, 0, 1, 0,0) ">
		<g>
			<g id="Layer0_118_MEMBER_2_MEMBER_1_FILL_1_">
				<path class="st21" d="M197.8,288.3c0,0.8,0,1.5,0.1,2.3c0.5,5.1,2.6,9.5,6.3,13.2c4.3,4.3,9.4,6.5,15.5,6.5s11.3-2.1,15.6-6.5
					c4.3-4.3,6.4-9.4,6.4-15.5c0-1.3-0.1-2.5-0.3-3.7c0-0.1,0-0.2,0-0.3c-7.6-3.4-15.1-3.3-22.5,0.3c-0.3,0.1-0.5,0.2-0.7,0.4
					c-6.8,3.1-13.5,3.3-20.2,0.6C197.8,286.5,197.8,287.4,197.8,288.3z"/>
				<path class="st22" d="M218.1,285c0.2-0.1,0.4-0.3,0.7-0.4c7.4-3.7,14.9-3.8,22.5-0.3c-0.8-4.4-2.8-8.2-6-11.5
					c-4.3-4.3-9.5-6.4-15.6-6.4c-2.1,0-4,0.3-5.9,0.8c-3.6,1-6.8,2.9-9.6,5.7c-3.6,3.6-5.7,7.9-6.3,12.8
					C204.6,288.3,211.3,288.1,218.1,285z"/>
			</g>
		</g>
	</g>
	<g transform="matrix( 1, 0, 0, 1, 0,0) ">
		<g>
			<g id="Layer0_118_MEMBER_2_MEMBER_2_FILL_1_">
				<path class="st20" d="M216.4,285.9c2.5,2.6,5.3,4.5,8.4,5.5c0.3,0.1,0.5,0.1,0.8,0c0.2-0.1,0.4-0.3,0.5-0.6
					c1.8-4.2,1.8-8.5,0-12.6c-0.1-0.2-0.2-0.3-0.3-0.4s-0.3-0.2-0.5-0.2c-2.8-0.4-5.6-0.1-8.4,0.9c-0.2,0.1-0.4,0.2-0.5,0.3
					c-0.1,0.2-0.2,0.4-0.2,0.6v5.8C216.2,285.5,216.2,285.7,216.4,285.9z"/>
			</g>
		</g>
	</g>
	<g transform="matrix( 1, 0, 0, 1, 0,0) ">
		<g>
			<g id="Layer0_118_MEMBER_5_FILL_1_">
				<path class="st20" d="M229.7,269.8c0.2,1.4,1,2.3,2.5,2.7c0.1,0,0.3,0,0.5-0.1c0.1-0.1,0.2-0.2,0.3-0.4l2.1-4.1
					c0-0.1,0.1-0.3,0.1-0.4c0-0.2-0.1-0.3-0.2-0.5c-0.1-0.1-0.3-0.1-0.4-0.1c-0.2,0-0.3,0-0.4,0L230,269c-0.1,0.1-0.2,0.2-0.3,0.3
					C229.6,269.6,229.6,269.7,229.7,269.8z"/>
			</g>
		</g>
	</g>
	<g>
		<g id="Layer0_118_MEMBER_0_FILL_1_">
			<path class="st23" d="M217.9,308.7l1.4,4.4c0.1,0.1,0.2,0.3,0.3,0.4s0.3,0.1,0.4,0.1c0.2,0,0.3,0,0.4-0.1
				c0.1-0.1,0.2-0.2,0.3-0.4l1.4-4.4c0-0.1,0-0.3,0-0.5c0-0.1-0.1-0.2-0.3-0.3c-1.1-0.9-2.3-0.9-3.7-0.1c-0.1,0.1-0.2,0.2-0.3,0.4
				C217.9,308.3,217.9,308.5,217.9,308.7z"/>
		</g>
	</g>
	<g>
		<g id="Layer0_118_MEMBER_1_FILL_1_">
			<path class="st20" d="M220.4,262.5c-0.1,0-0.2,0.1-0.4,0.2c-0.1,0.1-0.2,0.2-0.3,0.3l-1.4,4.4c0,0.2,0,0.3,0,0.5
				c0.1,0.1,0.2,0.2,0.3,0.3c1.3,0.8,2.6,0.8,3.7,0c0.1-0.1,0.2-0.2,0.2-0.3c0.1-0.2,0.1-0.4,0.1-0.5l-1.4-4.5
				c-0.1-0.1-0.2-0.2-0.3-0.3C220.7,262.6,220.6,262.5,220.4,262.5z"/>
		</g>
	</g>
	<g>
		<g id="Layer0_118_MEMBER_2_MEMBER_1_MEMBER_0_FILL_1_">
			<path class="st20" d="M206.8,277.3c-0.5,0-0.9,0.2-1.2,0.6c-0.4,0.4-0.6,0.8-0.6,1.2c0,0.5,0.2,0.9,0.6,1.3
				c0.3,0.4,0.7,0.6,1.2,0.6s0.9-0.2,1.3-0.6c0.3-0.4,0.5-0.8,0.5-1.3c0-0.4-0.2-0.8-0.5-1.2C207.7,277.5,207.3,277.3,206.8,277.3z"
				/>
		</g>
	</g>
	<g>
		<g id="Layer0_118_MEMBER_3_FILL_1_">
			<path class="st23" d="M204.7,301.2c-0.1,0-0.3,0-0.4,0.1c-0.1,0.1-0.2,0.2-0.3,0.3l-2.1,4.1c0,0.1-0.1,0.3-0.1,0.4
				c0,0.2,0.1,0.4,0.2,0.5c0.1,0.1,0.3,0.1,0.4,0.1c0.2,0,0.3,0,0.4-0.1l4.2-2.1c0.1-0.1,0.2-0.2,0.3-0.3c0.1-0.1,0.1-0.2,0.1-0.4
				C207.1,302.4,206.2,301.5,204.7,301.2z"/>
		</g>
	</g>
	<g>
		<g id="Layer0_118_MEMBER_4_FILL_1_">
			<path class="st23" d="M239.8,303.7l-2.1-4.2c-0.1-0.1-0.2-0.2-0.3-0.3c-0.1-0.1-0.2-0.1-0.4,0c-1.4,0.2-2.3,1-2.6,2.5
				c0,0.1,0,0.3,0.1,0.5c0.1,0.1,0.2,0.2,0.3,0.3l4.1,2.1c0.1,0,0.3,0.1,0.4,0.1c0.2,0,0.4-0.1,0.5-0.2s0.1-0.3,0.1-0.4
				C239.9,303.9,239.9,303.8,239.8,303.7z"/>
		</g>
	</g>
	<g>
		<g id="Layer0_118_MEMBER_6_FILL_1_">
			<path class="st20" d="M204.4,267.5c0,0.1,0,0.3,0,0.4l2.2,4.1c0.1,0.2,0.2,0.3,0.3,0.4c0.2,0.1,0.3,0.1,0.4,0.1
				c1.5-0.4,2.4-1.3,2.6-2.7c0-0.1,0-0.2-0.1-0.3c-0.1-0.2-0.2-0.3-0.3-0.3l-4.2-2.1c-0.1-0.1-0.3-0.1-0.5,0c-0.1,0-0.3,0-0.4,0.1
				C204.5,267.2,204.4,267.4,204.4,267.5z"/>
		</g>
	</g>
</g>
<g>
	<rect y="128" class="st0" width="64" height="64"/>
	<g>
		<g transform="matrix( 1, 0, 0, 1, 0,0) ">
			<g>
				<g id="Layer0_41_MEMBER_0_FILL_2_">
					<path class="st9" d="M28.4,161.5c1.6-1.3,1.6-2.6,0-3.9l-4.9-4.3c-1.5-1.3-3.1-1.3-4.6,0l-5,4.3c-1.6,1.3-1.6,2.6,0,3.9l5,4.3
						c1.5,1.3,3.1,1.3,4.6,0L28.4,161.5z"/>
				</g>
			</g>
		</g>
		<g transform="matrix( 1, 0, 0, 1, 0,0) ">
			<g>
				<g id="Layer0_41_MEMBER_1_FILL_2_">
					<path class="st9" d="M40.2,164.5c0.1-0.1,0.1-0.3,0.1-0.5s-0.1-0.4-0.2-0.5l-2.2-2.8c-0.1-0.1-0.2-0.2-0.4-0.2
						c-0.2-0.1-0.3-0.1-0.5,0c-0.1,0.1-0.3,0.2-0.4,0.3c-1.7,2.5-3.9,4.6-6.6,6.2c-0.1,0-0.2,0.1-0.3,0.3c-0.1,0.2-0.1,0.3-0.1,0.5
						s0.1,0.3,0.1,0.4l2,2.8c0.1,0.1,0.2,0.2,0.4,0.2c0.2,0.1,0.4,0.1,0.5,0C35.6,169.9,38.1,167.7,40.2,164.5z"/>
				</g>
			</g>
		</g>
		<g transform="matrix( 1, 0, 0, 1, 0,0) ">
			<g>
				<g id="Layer0_41_MEMBER_2_FILL_2_">
					<path class="st9" d="M30.3,156.1c0.1,0.2,0.3,0.3,0.4,0.3l10.1,1.8c0.2,0,0.3,0,0.5,0c0.1-0.1,0.2-0.3,0.3-0.4l1.6-6.4
						c0-0.2,0-0.4,0-0.6c-0.1-0.2-0.3-0.3-0.5-0.4c-4.5-1.9-8.8-2.3-13-1.1c-0.1,0.1-0.2,0.2-0.3,0.3c-0.1,0.2-0.1,0.4-0.1,0.5
						l0.8,5.5C30,155.9,30.1,156.1,30.3,156.1z"/>
				</g>
			</g>
		</g>
		<g transform="matrix( 1, 0, 0, 1, 0,0) ">
			<g>
				<g id="Layer0_41_MEMBER_3_FILL_2_">
					<path class="st11" d="M44.5,153c-0.1,0-0.3,0-0.4,0l-6.8,6.8l6.8,6.8c0.1,0,0.3,0,0.4,0c1.9,0,3.4-0.7,4.8-2
						c1.3-1.3,2-2.9,2-4.8c0-1.9-0.7-3.5-2-4.8C47.9,153.6,46.4,153,44.5,153z"/>
					<path class="st10" d="M44.1,153c-5.9,0.1-10.9,0.7-15.2,1.9c-4.5,1.3-6.8,2.9-6.8,4.8c0,1.9,2.3,3.5,6.8,4.8c1,0.3,2,0.5,3,0.7
						c3.6,0.8,7.7,1.2,12.3,1.3l-6.8-6.8L44.1,153z"/>
				</g>
			</g>
		</g>
		<g transform="matrix( 1, 0, 0, 1, 0,0) ">
			<g>
				<g id="Layer0_41_MEMBER_4_FILL_2_">
					<path class="st12" d="M49.1,159c0-0.5-0.2-1-0.6-1.4c-0.4-0.4-0.8-0.6-1.4-0.6c-0.5,0-1,0.2-1.4,0.6c-0.4,0.4-0.6,0.9-0.6,1.4
						c0,0.6,0.2,1,0.6,1.4c0.4,0.4,0.9,0.6,1.4,0.6c0.6,0,1-0.2,1.4-0.6C48.9,160,49.1,159.6,49.1,159z"/>
				</g>
			</g>
		</g>
	</g>
</g>
<g>
	<rect x="128" y="128" class="st0" width="64" height="64"/>
	<g>
		<g transform="matrix( 1, 0, 0, 1, 0,0) ">
			<g>
				<g id="Layer0_41_MEMBER_0_FILL_3_">
					<path class="st9" d="M156.4,161.5c1.6-1.3,1.6-2.6,0-3.9l-4.9-4.3c-1.5-1.3-3.1-1.3-4.6,0l-5,4.3c-1.6,1.3-1.6,2.6,0,3.9l5,4.3
						c1.5,1.3,3.1,1.3,4.6,0L156.4,161.5z"/>
				</g>
			</g>
		</g>
		<g transform="matrix( 1, 0, 0, 1, 0,0) ">
			<g>
				<g id="Layer0_41_MEMBER_1_FILL_3_">
					<path class="st9" d="M168.2,164.5c0.1-0.1,0.1-0.3,0.1-0.5s-0.1-0.4-0.2-0.5l-2.2-2.8c-0.1-0.1-0.2-0.2-0.4-0.2
						c-0.2-0.1-0.3-0.1-0.5,0c-0.1,0.1-0.3,0.2-0.4,0.3c-1.7,2.5-3.9,4.6-6.6,6.2c-0.1,0-0.2,0.1-0.3,0.3c-0.1,0.2-0.1,0.3-0.1,0.5
						s0.1,0.3,0.1,0.4l2,2.8c0.1,0.1,0.2,0.2,0.4,0.2c0.2,0.1,0.4,0.1,0.5,0C163.6,169.9,166.1,167.7,168.2,164.5z"/>
				</g>
			</g>
		</g>
		<g transform="matrix( 1, 0, 0, 1, 0,0) ">
			<g>
				<g id="Layer0_41_MEMBER_2_FILL_3_">
					<path class="st9" d="M158.3,156.1c0.1,0.2,0.3,0.3,0.4,0.3l10.1,1.8c0.2,0,0.3,0,0.5,0c0.1-0.1,0.2-0.3,0.3-0.4l1.6-6.4
						c0-0.2,0-0.4,0-0.6c-0.1-0.2-0.3-0.3-0.5-0.4c-4.5-1.9-8.8-2.3-13-1.1c-0.1,0.1-0.2,0.2-0.3,0.3c-0.1,0.2-0.1,0.4-0.1,0.5
						l0.8,5.5C158,155.9,158.1,156.1,158.3,156.1z"/>
				</g>
			</g>
		</g>
		<g transform="matrix( 1, 0, 0, 1, 0,0) ">
			<g>
				<g id="Layer0_41_MEMBER_3_FILL_3_">
					<path class="st16" d="M172.5,153c-0.1,0-0.3,0-0.4,0l-6.8,6.8l6.8,6.8c0.1,0,0.3,0,0.4,0c1.9,0,3.4-0.7,4.8-2
						c1.3-1.3,2-2.9,2-4.8c0-1.9-0.7-3.5-2-4.8C175.9,153.6,174.4,153,172.5,153z"/>
					<path class="st19" d="M172.1,153c-5.9,0.1-10.9,0.7-15.2,1.9c-4.5,1.3-6.8,2.9-6.8,4.8c0,1.9,2.3,3.5,6.8,4.8
						c1,0.3,2,0.5,3,0.7c3.6,0.8,7.7,1.2,12.3,1.3l-6.8-6.8L172.1,153z"/>
				</g>
			</g>
		</g>
		<g transform="matrix( 1, 0, 0, 1, 0,0) ">
			<g>
				<g id="Layer0_41_MEMBER_4_FILL_3_">
					<path class="st18" d="M177.1,159c0-0.5-0.2-1-0.6-1.4c-0.4-0.4-0.8-0.6-1.4-0.6c-0.5,0-1,0.2-1.4,0.6c-0.4,0.4-0.6,0.9-0.6,1.4
						c0,0.6,0.2,1,0.6,1.4c0.4,0.4,0.9,0.6,1.4,0.6c0.6,0,1-0.2,1.4-0.6C176.9,160,177.1,159.6,177.1,159z"/>
				</g>
			</g>
		</g>
	</g>
</g>
<g>
	<rect x="256" y="128" class="st0" width="64" height="64"/>
	<g>
		<g transform="matrix( 1, 0, 0, 1, 0,0) ">
			<g>
				<g id="Layer0_41_MEMBER_0_FILL_4_">
					<path class="st16" d="M284.4,161.5c1.6-1.3,1.6-2.6,0-3.9l-4.9-4.3c-1.5-1.3-3.1-1.3-4.6,0l-5,4.3c-1.6,1.3-1.6,2.6,0,3.9
						l5,4.3c1.5,1.3,3.1,1.3,4.6,0L284.4,161.5z"/>
				</g>
			</g>
		</g>
		<g transform="matrix( 1, 0, 0, 1, 0,0) ">
			<g>
				<g id="Layer0_41_MEMBER_1_FILL_4_">
					<path class="st17" d="M296.2,164.5c0.1-0.1,0.1-0.3,0.1-0.5s-0.1-0.4-0.2-0.5l-2.2-2.8c-0.1-0.1-0.2-0.2-0.4-0.2
						c-0.2-0.1-0.3-0.1-0.5,0c-0.1,0.1-0.3,0.2-0.4,0.3c-1.7,2.5-3.9,4.6-6.6,6.2c-0.1,0-0.2,0.1-0.3,0.3c-0.1,0.2-0.1,0.3-0.1,0.5
						s0.1,0.3,0.1,0.4l2,2.8c0.1,0.1,0.2,0.2,0.4,0.2c0.2,0.1,0.4,0.1,0.5,0C291.6,169.9,294.1,167.7,296.2,164.5z"/>
				</g>
			</g>
		</g>
		<g transform="matrix( 1, 0, 0, 1, 0,0) ">
			<g>
				<g id="Layer0_41_MEMBER_2_FILL_4_">
					<path class="st17" d="M286.3,156.1c0.1,0.2,0.3,0.3,0.4,0.3l10.1,1.8c0.2,0,0.3,0,0.5,0c0.1-0.1,0.2-0.3,0.3-0.4l1.6-6.4
						c0-0.2,0-0.4,0-0.6c-0.1-0.2-0.3-0.3-0.5-0.4c-4.5-1.9-8.8-2.3-13-1.1c-0.1,0.1-0.2,0.2-0.3,0.3c-0.1,0.2-0.1,0.4-0.1,0.5
						l0.8,5.5C286,155.9,286.1,156.1,286.3,156.1z"/>
				</g>
			</g>
		</g>
		<g transform="matrix( 1, 0, 0, 1, 0,0) ">
			<g>
				<g id="Layer0_41_MEMBER_3_FILL_4_">
					<path class="st16" d="M300.5,153c-0.1,0-0.3,0-0.4,0l-6.8,6.8l6.8,6.8c0.1,0,0.3,0,0.4,0c1.9,0,3.4-0.7,4.8-2
						c1.3-1.3,2-2.9,2-4.8c0-1.9-0.7-3.5-2-4.8C303.9,153.6,302.4,153,300.5,153z"/>
					<path class="st19" d="M300.1,153c-5.9,0.1-10.9,0.7-15.2,1.9c-4.5,1.3-6.8,2.9-6.8,4.8c0,1.9,2.3,3.5,6.8,4.8
						c1,0.3,2,0.5,3,0.7c3.6,0.8,7.7,1.2,12.3,1.3l-6.8-6.8L300.1,153z"/>
				</g>
			</g>
		</g>
		<g transform="matrix( 1, 0, 0, 1, 0,0) ">
			<g>
				<g id="Layer0_41_MEMBER_4_FILL_4_">
					<path class="st18" d="M305.1,159c0-0.5-0.2-1-0.6-1.4c-0.4-0.4-0.8-0.6-1.4-0.6c-0.5,0-1,0.2-1.4,0.6c-0.4,0.4-0.6,0.9-0.6,1.4
						c0,0.6,0.2,1,0.6,1.4c0.4,0.4,0.9,0.6,1.4,0.6c0.6,0,1-0.2,1.4-0.6C304.9,160,305.1,159.6,305.1,159z"/>
				</g>
			</g>
		</g>
	</g>
</g>
<g>
	<rect x="64" y="128" class="st0" width="64" height="64"/>
	<g>
		<g transform="matrix( 1, 0, 0, 1, 0,0) ">
			<g>
				<g id="Layer0_41_MEMBER_0_FILL_5_">
					<path class="st9" d="M92.4,161.5c1.6-1.3,1.6-2.6,0-3.9l-4.9-4.3c-1.5-1.3-3.1-1.3-4.6,0l-5,4.3c-1.6,1.3-1.6,2.6,0,3.9l5,4.3
						c1.5,1.3,3.1,1.3,4.6,0L92.4,161.5z"/>
				</g>
			</g>
		</g>
		<g transform="matrix( 1, 0, 0, 1, 0,0) ">
			<g>
				<g id="Layer0_41_MEMBER_1_FILL_5_">
					<path class="st9" d="M104.2,164.5c0.1-0.1,0.1-0.3,0.1-0.5s-0.1-0.4-0.2-0.5l-2.2-2.8c-0.1-0.1-0.2-0.2-0.4-0.2
						c-0.2-0.1-0.3-0.1-0.5,0c-0.1,0.1-0.3,0.2-0.4,0.3c-1.7,2.5-3.9,4.6-6.6,6.2c-0.1,0-0.2,0.1-0.3,0.3c-0.1,0.2-0.1,0.3-0.1,0.5
						s0.1,0.3,0.1,0.4l2,2.8c0.1,0.1,0.2,0.2,0.4,0.2c0.2,0.1,0.4,0.1,0.5,0C99.6,169.9,102.1,167.7,104.2,164.5z"/>
				</g>
			</g>
		</g>
		<g transform="matrix( 1, 0, 0, 1, 0,0) ">
			<g>
				<g id="Layer0_41_MEMBER_2_FILL_5_">
					<path class="st9" d="M94.3,156.1c0.1,0.2,0.3,0.3,0.4,0.3l10.1,1.8c0.2,0,0.3,0,0.5,0c0.1-0.1,0.2-0.3,0.3-0.4l1.6-6.4
						c0-0.2,0-0.4,0-0.6c-0.1-0.2-0.3-0.3-0.5-0.4c-4.5-1.9-8.8-2.3-13-1.1c-0.1,0.1-0.2,0.2-0.3,0.3c-0.1,0.2-0.1,0.4-0.1,0.5
						l0.8,5.5C94,155.9,94.1,156.1,94.3,156.1z"/>
				</g>
			</g>
		</g>
		<g transform="matrix( 1, 0, 0, 1, 0,0) ">
			<g>
				<g id="Layer0_41_MEMBER_3_FILL_5_">
					<path class="st16" d="M108.5,153c-0.1,0-0.3,0-0.4,0l-6.8,6.8l6.8,6.8c0.1,0,0.3,0,0.4,0c1.9,0,3.4-0.7,4.8-2
						c1.3-1.3,2-2.9,2-4.8c0-1.9-0.7-3.5-2-4.8C111.9,153.6,110.4,153,108.5,153z"/>
					<path class="st19" d="M108.1,153c-5.9,0.1-10.9,0.7-15.2,1.9c-4.5,1.3-6.8,2.9-6.8,4.8c0,1.9,2.3,3.5,6.8,4.8
						c1,0.3,2,0.5,3,0.7c3.6,0.8,7.7,1.2,12.3,1.3l-6.8-6.8L108.1,153z"/>
				</g>
			</g>
		</g>
		<g transform="matrix( 1, 0, 0, 1, 0,0) ">
			<g>
				<g id="Layer0_41_MEMBER_4_FILL_5_">
					<path class="st12" d="M113.1,159c0-0.5-0.2-1-0.6-1.4c-0.4-0.4-0.8-0.6-1.4-0.6c-0.5,0-1,0.2-1.4,0.6c-0.4,0.4-0.6,0.9-0.6,1.4
						c0,0.6,0.2,1,0.6,1.4c0.4,0.4,0.9,0.6,1.4,0.6c0.6,0,1-0.2,1.4-0.6C112.9,160,113.1,159.6,113.1,159z"/>
				</g>
			</g>
		</g>
	</g>
</g>
<g>
	<rect x="192" y="128" class="st0" width="64" height="64"/>
	<path class="st17" d="M220.4,161.5c1.6-1.3,1.6-2.6,0-3.9l-4.9-4.3c-1.5-1.3-3.1-1.3-4.6,0l-5,4.3c-1.6,1.3-1.6,2.6,0,3.9l5,4.3
		c1.5,1.3,3.1,1.3,4.6,0L220.4,161.5z"/>
	<path class="st17" d="M232.2,164.5c0.1-0.1,0.1-0.3,0.1-0.5s-0.1-0.4-0.2-0.5l-2.2-2.8c-0.1-0.1-0.2-0.2-0.4-0.2
		c-0.2-0.1-0.3-0.1-0.5,0c-0.1,0.1-0.3,0.2-0.4,0.3c-1.7,2.5-3.9,4.6-6.6,6.2c-0.1,0-0.2,0.1-0.3,0.3c-0.1,0.2-0.1,0.3-0.1,0.5
		s0.1,0.3,0.1,0.4l2,2.8c0.1,0.1,0.2,0.2,0.4,0.2c0.2,0.1,0.4,0.1,0.5,0C227.6,169.9,230.1,167.7,232.2,164.5z"/>
	<path class="st17" d="M222.3,156.1c0.1,0.2,0.3,0.3,0.4,0.3l10.1,1.8c0.2,0,0.3,0,0.5,0c0.1-0.1,0.2-0.3,0.3-0.4l1.6-6.4
		c0-0.2,0-0.4,0-0.6c-0.1-0.2-0.3-0.3-0.5-0.4c-4.5-1.9-8.8-2.3-13-1.1c-0.1,0.1-0.2,0.2-0.3,0.3c-0.1,0.2-0.1,0.4-0.1,0.5l0.8,5.5
		C222,155.9,222.1,156.1,222.3,156.1z"/>
	<path class="st16" d="M236.5,153c-0.1,0-0.3,0-0.4,0l-6.8,6.8l6.8,6.8c0.1,0,0.3,0,0.4,0c1.9,0,3.4-0.7,4.8-2c1.3-1.3,2-2.9,2-4.8
		c0-1.9-0.7-3.5-2-4.8C239.9,153.6,238.4,153,236.5,153z"/>
	<path class="st19" d="M236.1,153c-5.9,0.1-10.9,0.7-15.2,1.9c-4.5,1.3-6.8,2.9-6.8,4.8c0,1.9,2.3,3.5,6.8,4.8c1,0.3,2,0.5,3,0.7
		c3.6,0.8,7.7,1.2,12.3,1.3l-6.8-6.8L236.1,153z"/>
	<path class="st12" d="M241.1,159c0-0.5-0.2-1-0.6-1.4c-0.4-0.4-0.8-0.6-1.4-0.6c-0.5,0-1,0.2-1.4,0.6c-0.4,0.4-0.6,0.9-0.6,1.4
		c0,0.6,0.2,1,0.6,1.4c0.4,0.4,0.9,0.6,1.4,0.6c0.6,0,1-0.2,1.4-0.6C240.9,160,241.1,159.6,241.1,159z"/>
</g>
<g>
	<rect x="64" y="192" class="st0" width="64" height="64"/>
	<g>
		<g transform="matrix( 1, 0, 0, 1, 0,0) ">
			<g>
				<g id="Layer0_41_MEMBER_0_FILL_6_">
					<path class="st9" d="M92.4,225.5c1.6-1.3,1.6-2.6,0-3.9l-4.9-4.3c-1.5-1.3-3.1-1.3-4.6,0l-5,4.3c-1.6,1.3-1.6,2.6,0,3.9l5,4.3
						c1.5,1.3,3.1,1.3,4.6,0L92.4,225.5z"/>
				</g>
			</g>
		</g>
		<g transform="matrix( 1, 0, 0, 1, 0,0) ">
			<g>
				<g id="Layer0_41_MEMBER_1_FILL_6_">
					<path class="st9" d="M104.2,228.5c0.1-0.1,0.1-0.3,0.1-0.5s-0.1-0.4-0.2-0.5l-2.2-2.8c-0.1-0.1-0.2-0.2-0.4-0.2
						c-0.2-0.1-0.3-0.1-0.5,0c-0.1,0.1-0.3,0.2-0.4,0.3c-1.7,2.5-3.9,4.6-6.6,6.2c-0.1,0-0.2,0.1-0.3,0.3c-0.1,0.2-0.1,0.3-0.1,0.5
						s0.1,0.3,0.1,0.4l2,2.8c0.1,0.1,0.2,0.2,0.4,0.2c0.2,0.1,0.4,0.1,0.5,0C99.6,233.9,102.1,231.7,104.2,228.5z"/>
				</g>
			</g>
		</g>
		<g transform="matrix( 1, 0, 0, 1, 0,0) ">
			<g>
				<g id="Layer0_41_MEMBER_2_FILL_6_">
					<path class="st9" d="M94.3,220.1c0.1,0.2,0.3,0.3,0.4,0.3l10.1,1.8c0.2,0,0.3,0,0.5,0c0.1-0.1,0.2-0.3,0.3-0.4l1.6-6.4
						c0-0.2,0-0.4,0-0.6c-0.1-0.2-0.3-0.3-0.5-0.4c-4.5-1.9-8.8-2.3-13-1.1c-0.1,0.1-0.2,0.2-0.3,0.3c-0.1,0.2-0.1,0.4-0.1,0.5
						l0.8,5.5C94,219.9,94.1,220.1,94.3,220.1z"/>
				</g>
			</g>
		</g>
		<g transform="matrix( 1, 0, 0, 1, 0,0) ">
			<g>
				<g id="Layer0_41_MEMBER_3_FILL_6_">
					<path class="st16" d="M108.5,217c-0.1,0-0.3,0-0.4,0l-6.8,6.8l6.8,6.8c0.1,0,0.3,0,0.4,0c1.9,0,3.4-0.7,4.8-2
						c1.3-1.3,2-2.9,2-4.8c0-1.9-0.7-3.5-2-4.8C111.9,217.6,110.4,217,108.5,217z"/>
					<path class="st14" d="M108.1,217c-5.9,0.1-10.9,0.7-15.2,1.9c-4.5,1.3-6.8,2.9-6.8,4.8c0,1.9,2.3,3.5,6.8,4.8
						c1,0.3,2,0.5,3,0.7c3.6,0.8,7.7,1.2,12.3,1.3l-6.8-6.8L108.1,217z"/>
				</g>
			</g>
		</g>
		<g transform="matrix( 1, 0, 0, 1, 0,0) ">
			<g>
				<g id="Layer0_41_MEMBER_4_FILL_6_">
					<path class="st12" d="M113.1,223c0-0.5-0.2-1-0.6-1.4c-0.4-0.4-0.8-0.6-1.4-0.6c-0.5,0-1,0.2-1.4,0.6c-0.4,0.4-0.6,0.9-0.6,1.4
						c0,0.6,0.2,1,0.6,1.4c0.4,0.4,0.9,0.6,1.4,0.6c0.6,0,1-0.2,1.4-0.6C112.9,224,113.1,223.6,113.1,223z"/>
				</g>
			</g>
		</g>
	</g>
</g>
<g>
	<rect x="64" y="256" class="st0" width="64" height="64"/>
	<g transform="matrix( 1, 0, 0, 1, 0,0) ">
		<g>
			<g id="Layer0_118_MEMBER_2_MEMBER_0_FILL_2_">
				<path class="st21" d="M86.2,284c1.6-1.6,1.6-3.1,0-4.7l-5.1-5c-1.6-1.6-3.3-1.6-4.8,0l-5.2,5c-1.6,1.6-1.6,3.1,0,4.7l5.2,5
					c1.6,1.6,3.2,1.6,4.8,0L86.2,284z"/>
			</g>
		</g>
	</g>
	<g transform="matrix( 1, 0, 0, 1, 0,0) ">
		<g>
			<g id="Layer0_118_MEMBER_2_MEMBER_1_FILL_2_">
				<path class="st20" d="M122.1,285.6c-6.7,2.7-13.4,2.5-20.2-0.6c-0.2-0.1-0.4-0.3-0.7-0.4c-7.4-3.7-14.9-3.8-22.5-0.3
					c0,0.1,0,0.2,0,0.3c-0.2,1.2-0.3,2.4-0.3,3.7c0,6.1,2.1,11.2,6.4,15.5c4.3,4.3,9.5,6.5,15.6,6.5s11.2-2.1,15.5-6.5
					c3.7-3.7,5.8-8.1,6.3-13.2c0.1-0.8,0.1-1.5,0.1-2.3C122.3,287.4,122.2,286.5,122.1,285.6z"/>
				<path class="st22" d="M122.1,285.6c-0.6-4.9-2.7-9.2-6.3-12.8c-2.8-2.8-6-4.7-9.6-5.7c-1.9-0.5-3.9-0.8-5.9-0.8
					c-6.1,0-11.3,2.1-15.6,6.4c-3.3,3.3-5.3,7.1-6,11.5c7.6-3.4,15.1-3.3,22.5,0.3c0.3,0.1,0.5,0.2,0.7,0.4
					C108.7,288.1,115.4,288.3,122.1,285.6z"/>
			</g>
		</g>
	</g>
	<g transform="matrix( 1, 0, 0, 1, 0,0) ">
		<g>
			<g id="Layer0_118_MEMBER_2_MEMBER_2_FILL_2_">
				<path class="st21" d="M103.8,285.2v-5.8c0-0.2-0.1-0.4-0.2-0.6c-0.1-0.2-0.3-0.3-0.5-0.3c-2.8-1-5.7-1.3-8.4-0.9
					c-0.2,0-0.4,0.1-0.5,0.2s-0.2,0.2-0.3,0.4c-1.8,4.2-1.8,8.4,0,12.6c0.1,0.2,0.3,0.4,0.5,0.6c0.2,0.1,0.5,0.1,0.8,0
					c3.1-1,5.9-2.9,8.4-5.5C103.8,285.7,103.8,285.5,103.8,285.2z"/>
			</g>
		</g>
	</g>
	<g transform="matrix( 1, 0, 0, 1, 0,0) ">
		<g>
			<g id="Layer0_118_MEMBER_5_FILL_2_">
				<path class="st21" d="M90.3,269.5c-0.1-0.2-0.2-0.3-0.3-0.3l-4.2-2.1c-0.1-0.1-0.3-0.1-0.4,0c-0.1,0-0.3,0-0.4,0.1
					c-0.1,0.1-0.1,0.3-0.2,0.5c0,0.1,0,0.3,0.1,0.4l2.1,4.1c0.1,0.2,0.2,0.3,0.3,0.4c0.2,0.1,0.3,0.1,0.5,0.1
					c1.5-0.4,2.4-1.3,2.5-2.7C90.4,269.7,90.4,269.6,90.3,269.5z"/>
			</g>
		</g>
	</g>
	<g>
		<g id="Layer0_118_MEMBER_0_FILL_2_">
			<path class="st20" d="M102.1,308.2c-0.1-0.1-0.2-0.3-0.3-0.4c-1.3-0.8-2.5-0.8-3.7,0.1c-0.1,0.1-0.2,0.2-0.3,0.3
				c0,0.2,0,0.3,0,0.5l1.4,4.4c0,0.1,0.1,0.3,0.3,0.4c0.1,0.1,0.2,0.1,0.4,0.1c0.1,0,0.3,0,0.4-0.1c0.1-0.1,0.2-0.2,0.3-0.4l1.4-4.4
				C102.1,308.5,102.1,308.3,102.1,308.2z"/>
		</g>
	</g>
	<g>
		<g id="Layer0_118_MEMBER_1_FILL_2_">
			<path class="st21" d="M99.2,262.7c-0.1,0.1-0.2,0.2-0.3,0.3l-1.4,4.5c0,0.1,0,0.3,0.1,0.5c0,0.1,0.1,0.2,0.2,0.3
				c1.1,0.9,2.3,0.9,3.7,0c0.1-0.1,0.2-0.2,0.3-0.3c0-0.2,0-0.3,0-0.5l-1.4-4.4c-0.1-0.1-0.2-0.3-0.3-0.3c-0.2-0.1-0.3-0.2-0.4-0.2
				C99.4,262.5,99.3,262.6,99.2,262.7z"/>
		</g>
	</g>
	<g>
		<g id="Layer0_118_MEMBER_2_MEMBER_1_MEMBER_0_FILL_2_">
			<path class="st21" d="M111.9,277.9c-0.3,0.4-0.5,0.8-0.5,1.2c0,0.5,0.2,0.9,0.5,1.3c0.4,0.4,0.8,0.6,1.3,0.6s0.9-0.2,1.2-0.6
				c0.4-0.4,0.6-0.8,0.6-1.3c0-0.4-0.2-0.8-0.6-1.2c-0.3-0.4-0.7-0.6-1.2-0.6S112.3,277.5,111.9,277.9z"/>
		</g>
	</g>
	<g>
		<g id="Layer0_118_MEMBER_3_FILL_2_">
			<path class="st20" d="M112.8,303.8c0,0.1,0,0.3,0.1,0.4c0.1,0.2,0.2,0.3,0.3,0.3l4.2,2.1c0.1,0.1,0.3,0.1,0.4,0.1
				c0.1,0,0.3,0,0.4-0.1c0.1-0.1,0.1-0.3,0.2-0.5c0-0.1,0-0.3-0.1-0.4l-2.1-4.1c-0.1-0.2-0.2-0.3-0.3-0.3c-0.2-0.1-0.3-0.1-0.4-0.1
				C113.8,301.5,112.9,302.4,112.8,303.8z"/>
		</g>
	</g>
	<g>
		<g id="Layer0_118_MEMBER_4_FILL_2_">
			<path class="st20" d="M80.1,304.1c0,0.1,0,0.3,0.1,0.4s0.3,0.1,0.5,0.2c0.1,0,0.3,0,0.4-0.1l4.1-2.1c0.2-0.1,0.3-0.2,0.3-0.3
				c0.1-0.2,0.1-0.3,0.1-0.5c-0.4-1.5-1.2-2.4-2.6-2.5c-0.1,0-0.3,0-0.4,0c-0.2,0.1-0.3,0.2-0.3,0.3l-2.1,4.2
				C80.1,303.8,80.1,303.9,80.1,304.1z"/>
		</g>
	</g>
	<g>
		<g id="Layer0_118_MEMBER_6_FILL_2_">
			<path class="st21" d="M115.4,267.1c-0.1-0.1-0.3-0.1-0.4-0.1c-0.2,0-0.3,0-0.5,0l-4.2,2.1c-0.1,0.1-0.2,0.2-0.3,0.3
				c-0.1,0.1-0.1,0.2-0.1,0.3c0.2,1.4,1,2.3,2.6,2.7c0.1,0,0.3,0,0.4-0.1c0.1-0.1,0.2-0.2,0.3-0.4l2.2-4.1c0-0.1,0-0.3,0-0.4
				C115.6,267.4,115.5,267.2,115.4,267.1z"/>
		</g>
	</g>
</g>
<g>
	<rect x="128" y="192" class="st0" width="64" height="64"/>
	<path class="st9" d="M150.2,220c1.6-1.6,1.6-3.1,0-4.7l-5.1-5c-1.6-1.6-3.3-1.6-4.8,0l-5.2,5c-1.6,1.6-1.6,3.1,0,4.7l5.2,5
		c1.6,1.6,3.2,1.6,4.8,0L150.2,220z"/>
	<path class="st12" d="M186.1,221.6c-6.7,2.7-13.4,2.5-20.2-0.6c-0.2-0.1-0.4-0.3-0.7-0.4c-7.4-3.7-14.9-3.8-22.5-0.3
		c0,0.1,0,0.2,0,0.3c-0.2,1.2-0.3,2.4-0.3,3.7c0,6.1,2.1,11.2,6.4,15.5c4.3,4.3,9.5,6.5,15.6,6.5s11.2-2.1,15.5-6.5
		c3.7-3.7,5.8-8.1,6.3-13.2c0.1-0.8,0.1-1.5,0.1-2.3C186.3,223.4,186.2,222.5,186.1,221.6z"/>
	<path class="st11" d="M186.1,221.6c-0.6-4.9-2.7-9.2-6.3-12.8c-2.8-2.8-6-4.7-9.6-5.7c-1.9-0.5-3.9-0.8-5.9-0.8
		c-6.1,0-11.3,2.1-15.6,6.4c-3.3,3.3-5.3,7.1-6,11.5c7.6-3.4,15.1-3.3,22.5,0.3c0.3,0.1,0.5,0.2,0.7,0.4
		C172.7,224.1,179.4,224.3,186.1,221.6z"/>
	<path class="st9" d="M167.8,221.2v-5.8c0-0.2-0.1-0.4-0.2-0.6c-0.1-0.2-0.3-0.3-0.5-0.3c-2.8-1-5.7-1.3-8.4-0.9
		c-0.2,0-0.4,0.1-0.5,0.2s-0.2,0.2-0.3,0.4c-1.8,4.2-1.8,8.4,0,12.6c0.1,0.2,0.3,0.4,0.5,0.6c0.2,0.1,0.5,0.1,0.8,0
		c3.1-1,5.9-2.9,8.4-5.5C167.8,221.7,167.8,221.5,167.8,221.2z"/>
	<path class="st9" d="M154.3,205.5c-0.1-0.2-0.2-0.3-0.3-0.3l-4.2-2.1c-0.1-0.1-0.3-0.1-0.4,0c-0.1,0-0.3,0-0.4,0.1
		c-0.1,0.1-0.1,0.3-0.2,0.5c0,0.1,0,0.3,0.1,0.4l2.1,4.1c0.1,0.2,0.2,0.3,0.3,0.4c0.2,0.1,0.3,0.1,0.5,0.1c1.5-0.4,2.4-1.3,2.5-2.7
		C154.4,205.7,154.4,205.6,154.3,205.5z"/>
	<path class="st11" d="M166.1,244.2c-0.1-0.1-0.2-0.3-0.3-0.4c-1.3-0.8-2.5-0.8-3.7,0.1c-0.1,0.1-0.2,0.2-0.3,0.3c0,0.2,0,0.3,0,0.5
		l1.4,4.4c0,0.1,0.1,0.3,0.3,0.4c0.1,0.1,0.2,0.1,0.4,0.1c0.1,0,0.3,0,0.4-0.1c0.1-0.1,0.2-0.2,0.3-0.4l1.4-4.4
		C166.1,244.5,166.1,244.3,166.1,244.2z"/>
	<path class="st9" d="M163.2,198.7c-0.1,0.1-0.2,0.2-0.3,0.3l-1.4,4.5c0,0.1,0,0.3,0.1,0.5c0,0.1,0.1,0.2,0.2,0.3
		c1.1,0.9,2.3,0.9,3.7,0c0.1-0.1,0.2-0.2,0.3-0.3c0-0.2,0-0.3,0-0.5l-1.4-4.4c-0.1-0.1-0.2-0.3-0.3-0.3c-0.2-0.1-0.3-0.2-0.4-0.2
		C163.4,198.5,163.3,198.6,163.2,198.7z"/>
	<path class="st12" d="M175.9,213.9c-0.3,0.4-0.5,0.8-0.5,1.2c0,0.5,0.2,0.9,0.5,1.3c0.4,0.4,0.8,0.6,1.3,0.6s0.9-0.2,1.2-0.6
		c0.4-0.4,0.6-0.8,0.6-1.3c0-0.4-0.2-0.8-0.6-1.2c-0.3-0.4-0.7-0.6-1.2-0.6S176.3,213.5,175.9,213.9z"/>
	<path class="st11" d="M176.8,239.8c0,0.1,0,0.3,0.1,0.4c0.1,0.2,0.2,0.3,0.3,0.3l4.2,2.1c0.1,0.1,0.3,0.1,0.4,0.1
		c0.1,0,0.3,0,0.4-0.1c0.1-0.1,0.1-0.3,0.2-0.5c0-0.1,0-0.3-0.1-0.4l-2.1-4.1c-0.1-0.2-0.2-0.3-0.3-0.3c-0.2-0.1-0.3-0.1-0.4-0.1
		C177.8,237.5,176.9,238.4,176.8,239.8z"/>
	<path class="st11" d="M144.1,240.1c0,0.1,0,0.3,0.1,0.4s0.3,0.1,0.5,0.2c0.1,0,0.3,0,0.4-0.1l4.1-2.1c0.2-0.1,0.3-0.2,0.3-0.3
		c0.1-0.2,0.1-0.3,0.1-0.5c-0.4-1.5-1.2-2.4-2.6-2.5c-0.1,0-0.3,0-0.4,0c-0.2,0.1-0.3,0.2-0.3,0.3l-2.1,4.2
		C144.1,239.8,144.1,239.9,144.1,240.1z"/>
	<path class="st9" d="M179.4,203.1c-0.1-0.1-0.3-0.1-0.4-0.1c-0.2,0-0.3,0-0.5,0l-4.2,2.1c-0.1,0.1-0.2,0.2-0.3,0.3
		c-0.1,0.1-0.1,0.2-0.1,0.3c0.2,1.4,1,2.3,2.6,2.7c0.1,0,0.3,0,0.4-0.1c0.1-0.1,0.2-0.2,0.3-0.4l2.2-4.1c0-0.1,0-0.3,0-0.4
		C179.6,203.4,179.5,203.2,179.4,203.1z"/>
</g>
</svg>
