<?xml version="1.0" encoding="utf-8"?>
<!-- Generator: Adobe Illustrator 23.0.6, SVG Export Plug-In . SVG Version: 6.00 Build 0)  -->
<svg version="1.1" id="Layer_1" xmlns="http://www.w3.org/2000/svg" xmlns:xlink="http://www.w3.org/1999/xlink" x="0px" y="0px"
	 viewBox="0 0 320 384" style="enable-background:new 0 0 320 384;" xml:space="preserve">
<style type="text/css">
	.st0{fill:none;}
	.st1{fill:#2CC66D;}
	.st2{fill:#27AE60;}
	.st3{fill:#25A65B;}
	.st4{fill:#1D8548;}
	.st5{fill:#C985D0;}
	.st6{fill:#D890E0;}
	.st7{fill:#E599EE;}
	.st8{fill:#AF75B6;}
	.st9{fill:#2F8AC6;}
	.st10{fill:#3498DB;}
	.st11{fill:#37A5EE;}
	.st12{fill:#2C84BF;}
	.st13{fill:#BF3D31;}
	.st14{fill:#E74C3C;}
	.st15{fill:#F5503F;}
	.st16{fill:#EC8D00;}
	.st17{fill:#FCB245;}
	.st18{fill:#CD7B00;}
	.st19{fill:#FF9900;}
	.st20{fill:#EEE4B7;}
	.st21{fill:#E9DFB3;}
	.st22{fill:#F7EDBE;}
	.st23{fill:#E5DBB0;}
	.st24{fill:#A1D6E7;}
	.st25{fill:#D58EDE;}
	.st26{fill:#EE8E00;}
	.st27{fill:#C5D4D4;}
	.st28{fill:#BCCBCB;}
	.st29{fill:#ACC0C1;}
	.st30{fill:#A0B3B4;}
	.st31{fill:#A16E39;}
	.st32{fill:#C48647;}
	.st33{fill:#E2D9AE;}
	.st34{fill:#C683CD;}
	.st35{fill:#F08F00;}
</style>
<rect y="256" class="st0" width="64" height="64"/>
<g>
	<rect x="192" class="st0" width="64" height="64"/>
	<g>
		<g transform="matrix( 1, 0, 0, 1, 0,0) ">
			<g>
				<g id="Layer0_2_MEMBER_0_FILL">
					<path class="st1" d="M210.8,26.2c-2-1.9-4-1.9-6,0l-6.3,6.2c-2,1.9-2,3.9,0,5.8l6.3,6.2c2,1.9,4,1.9,6,0l6.3-6.2
						c2-1.9,2-3.9,0-5.8L210.8,26.2z"/>
				</g>
			</g>
		</g>
		<g transform="matrix( 1, 0, 0, 1, 0,0) ">
			<g>
				<g id="Layer0_2_MEMBER_1_FILL">
					<path class="st1" d="M241.2,51.5c0.2-0.2,0.3-0.5,0.4-0.8l0.9-5.9c0-0.3,0-0.5-0.1-0.8s-0.3-0.5-0.6-0.6
						c-0.2-0.1-0.5-0.2-0.8-0.2c-5.1,0.4-10.2-0.5-15.4-2.5c-0.2-0.1-0.5-0.1-0.8-0.1c-0.3,0.1-0.5,0.2-0.7,0.4s-0.3,0.4-0.4,0.7
						l-1.2,5.7c-0.1,0.3,0,0.5,0.2,0.8c0.1,0.3,0.3,0.5,0.5,0.6c4.8,2.6,10.5,3.5,17,2.9C240.7,51.8,240.9,51.6,241.2,51.5z"/>
				</g>
			</g>
		</g>
		<g transform="matrix( 1, 0, 0, 1, 0,0) ">
			<g>
				<g id="Layer0_2_MEMBER_2_FILL">
					<path class="st1" d="M241.4,15.3c0-0.4-0.1-0.7-0.3-0.9c-0.3-0.2-0.6-0.4-1-0.4c-8.6,0-16.1,2.5-22.8,7.4
						c-0.3,0.2-0.4,0.5-0.5,0.8s0,0.6,0.1,0.9l3.8,8.1c0.1,0.3,0.3,0.5,0.6,0.6c0.3,0.2,0.6,0.2,0.9,0.1l18.2-4
						c0.3-0.1,0.6-0.2,0.8-0.5c0.2-0.2,0.3-0.5,0.3-0.8V15.3H241.4z"/>
				</g>
			</g>
		</g>
		<g transform="matrix( 1, 0, 0, 1, 0,0) ">
			<g>
				<g id="Layer0_2_MEMBER_3_FILL">
					<path class="st2" d="M232.3,22.5c-5.1,0.5-9.6,1.6-13.5,3.6c-5.1,2.5-7.7,5.6-7.7,9.2s2.6,6.6,7.7,9.2c4.1,2,9,3.3,14.5,3.7
						c-0.2-0.3-0.4-0.5-0.6-0.8c-2.7-3.5-4-7.7-4-12.7C228.7,30,229.9,25.9,232.3,22.5z"/>
					<path class="st3" d="M247.1,44.5c2.6-2.5,3.9-5.6,3.9-9.2s-1.3-6.7-3.9-9.2c-2.5-2.5-5.6-3.7-9.2-3.8c-0.1,0-0.3,0-0.4,0
						c-1.8,0-3.5,0.1-5.2,0.3c-2.4,3.4-3.7,7.5-3.7,12.2c0,5,1.3,9.2,4,12.7c0.2,0.2,0.4,0.5,0.6,0.8c1.3,0.1,2.7,0.1,4.2,0.1
						c0.1,0,0.3,0,0.4,0C241.5,48.2,244.6,47,247.1,44.5z"/>
				</g>
			</g>
		</g>
		<g transform="matrix( 1, 0, 0, 1, 0,0) ">
			<g>
				<g id="Layer0_2_MEMBER_4_FILL">
					<path class="st4" d="M244.6,31.5c-0.5-0.5-1.2-0.8-1.9-0.8s-1.4,0.3-1.9,0.8s-0.8,1.1-0.8,1.8s0.3,1.4,0.8,1.9s1.2,0.8,1.9,0.8
						s1.4-0.3,1.9-0.8s0.8-1.1,0.8-1.9C245.3,32.6,245.1,32,244.6,31.5z"/>
				</g>
			</g>
		</g>
		<g transform="matrix( 1, 0, 0, 1, 0,0) ">
			<g>
				<g id="Layer0_2_MEMBER_5_FILL">
					<path class="st1" d="M235.5,38.1c-0.1-0.3-0.3-0.5-0.5-0.6c-0.2-0.2-0.5-0.2-0.7-0.3c-4.8-0.2-9.6-1.1-14.3-2.5
						c-0.3-0.1-0.5-0.1-0.8,0s-0.5,0.2-0.7,0.4s-0.3,0.4-0.3,0.6l-0.2,2.8c0,0.3,0,0.5,0.1,0.7c0.1,0.3,0.3,0.5,0.5,0.6
						c4.3,2.2,9,3.7,14,4.4c0.3,0,0.6,0,0.9-0.2c0.3-0.1,0.5-0.3,0.6-0.6l1.4-4.4C235.5,38.6,235.5,38.3,235.5,38.1z"/>
				</g>
			</g>
		</g>
	</g>
</g>
<g>
	<rect class="st0" width="64" height="64"/>
	<g>
		<g transform="matrix( 1, 0, 0, 1, 0,0) ">
			<g>
				<g id="Layer0_41_MEMBER_0_FILL">
					<path class="st5" d="M28.4,33.5c1.6-1.3,1.6-2.6,0-3.9l-4.9-4.3c-1.5-1.3-3.1-1.3-4.6,0l-5,4.3c-1.6,1.3-1.6,2.6,0,3.9l5,4.3
						c1.5,1.3,3.1,1.3,4.6,0L28.4,33.5z"/>
				</g>
			</g>
		</g>
		<g transform="matrix( 1, 0, 0, 1, 0,0) ">
			<g>
				<g id="Layer0_41_MEMBER_1_FILL">
					<path class="st5" d="M40.2,36.5c0.1-0.1,0.1-0.3,0.1-0.5s-0.1-0.4-0.2-0.5l-2.2-2.8c-0.1-0.1-0.2-0.2-0.4-0.2
						c-0.2-0.1-0.3-0.1-0.5,0c-0.1,0.1-0.3,0.2-0.4,0.3c-1.7,2.5-3.9,4.6-6.6,6.2c-0.1,0-0.2,0.1-0.3,0.3c-0.1,0.2-0.1,0.3-0.1,0.5
						s0.1,0.3,0.1,0.4l2,2.8c0.1,0.1,0.2,0.2,0.4,0.2c0.2,0.1,0.4,0.1,0.5,0C35.6,41.9,38.1,39.7,40.2,36.5z"/>
				</g>
			</g>
		</g>
		<g transform="matrix( 1, 0, 0, 1, 0,0) ">
			<g>
				<g id="Layer0_41_MEMBER_2_FILL">
					<path class="st5" d="M30.3,28.1c0.1,0.2,0.3,0.3,0.4,0.3l10.1,1.8c0.2,0,0.3,0,0.5,0c0.1-0.1,0.2-0.3,0.3-0.4l1.6-6.4
						c0-0.2,0-0.4,0-0.6c-0.1-0.2-0.3-0.3-0.5-0.4c-4.5-1.9-8.8-2.3-13-1.1c-0.1,0.1-0.2,0.2-0.3,0.3c-0.1,0.2-0.1,0.4-0.1,0.5
						l0.8,5.5C30,27.9,30.1,28.1,30.3,28.1z"/>
				</g>
			</g>
		</g>
		<g transform="matrix( 1, 0, 0, 1, 0,0) ">
			<g>
				<g id="Layer0_41_MEMBER_3_FILL">
					<path class="st6" d="M44.5,25c-0.1,0-0.3,0-0.4,0l-6.8,6.8l6.8,6.8c0.1,0,0.3,0,0.4,0c1.9,0,3.4-0.7,4.8-2c1.3-1.3,2-2.9,2-4.8
						c0-1.9-0.7-3.5-2-4.8C47.9,25.6,46.4,25,44.5,25z"/>
					<path class="st7" d="M44.1,25c-5.9,0.1-10.9,0.7-15.2,1.9c-4.5,1.3-6.8,2.9-6.8,4.8s2.3,3.5,6.8,4.8c1,0.3,2,0.5,3,0.7
						c3.6,0.8,7.7,1.2,12.3,1.3l-6.8-6.8L44.1,25z"/>
				</g>
			</g>
		</g>
		<g transform="matrix( 1, 0, 0, 1, 0,0) ">
			<g>
				<g id="Layer0_41_MEMBER_4_FILL">
					<path class="st8" d="M49.1,31c0-0.5-0.2-1-0.6-1.4S47.7,29,47.1,29c-0.5,0-1,0.2-1.4,0.6s-0.6,0.9-0.6,1.4c0,0.6,0.2,1,0.6,1.4
						s0.9,0.6,1.4,0.6c0.6,0,1-0.2,1.4-0.6C48.9,32,49.1,31.6,49.1,31z"/>
				</g>
			</g>
		</g>
	</g>
</g>
<g>
	<rect x="64" class="st0" width="64" height="64"/>
	<g>
		<g transform="matrix( 1, 0, 0, 1, 0,0) ">
			<g>
				<g id="Layer0_44_MEMBER_0_FILL">
					<path class="st9" d="M91.1,37.5l-1.9,3.9c-0.1,0.1-0.1,0.3-0.1,0.6c0,0.2,0.1,0.4,0.3,0.6c3,2.8,7,4.7,12,5.5
						c0.2,0,0.5,0,0.6-0.1s0.4-0.3,0.5-0.5l1.8-4.1c0.1-0.2,0.1-0.4,0-0.6c0-0.2-0.1-0.4-0.3-0.5c-0.1-0.1-0.3-0.2-0.5-0.3
						c-3.8-0.7-7.4-2.4-10.8-4.9c-0.2-0.1-0.3-0.2-0.5-0.3c-0.2,0-0.4,0.1-0.5,0.1C91.4,37.1,91.3,37.3,91.1,37.5z"/>
				</g>
			</g>
		</g>
		<g transform="matrix( 1, 0, 0, 1, 0,0) ">
			<g>
				<g id="Layer0_44_MEMBER_1_FILL">
					<path class="st9" d="M76.6,24.1c-0.8,0-1.7,0.4-2.5,1.2l-5.2,5.1c-1.6,1.6-1.6,3.1,0,4.8l5.2,5.1c0.8,0.8,1.7,1.1,2.5,1.1
						c1.3,0,2.5-0.4,3.7-1.1l8.1-5.1c2.5-1.6,2.5-3.2,0-4.8l-8.1-5.1C79.1,24.6,77.9,24.1,76.6,24.1z"/>
				</g>
			</g>
		</g>
		<g transform="matrix( 1, 0, 0, 1, 0,0) ">
			<g>
				<g id="Layer0_44_MEMBER_2_FILL">
					<path class="st9" d="M111.9,26.6v-9.5c0-0.3-0.1-0.6-0.3-0.8c-0.2-0.2-0.5-0.3-0.9-0.3c-7.2,0-13.6,2.1-19.2,6.2
						c-0.2,0.2-0.4,0.4-0.4,0.6c-0.1,0.2,0,0.5,0.1,0.8l3.2,6.9c0.1,0.3,0.3,0.4,0.6,0.5c0.2,0.2,0.5,0.2,0.8,0.1l15.3-3.4
						c0.2-0.1,0.5-0.2,0.7-0.4C111.8,27.1,111.9,26.9,111.9,26.6z"/>
				</g>
			</g>
		</g>
		<g transform="matrix( 1, 0, 0, 1, 0,0) ">
			<g>
				<g id="Layer0_44_MEMBER_3_FILL">
					<path class="st10" d="M105,23.2c-0.1,0-0.2,0-0.4,0c-6.1,0.1-11.3,1.1-15.6,2.9c-4.6,1.9-6.9,4.3-6.9,7c0,2.7,2.3,5.1,6.9,7
						c4.4,1.9,9.6,2.8,15.6,2.9c0.1,0,0.3,0,0.4,0C102.5,36.3,102.5,29.6,105,23.2z"/>
					<path class="st11" d="M108.4,23.4c-2.2-0.1-3.3-0.2-3.4-0.2c-2.4,6.4-2.4,13,0,19.8c0.1,0,0.1,0,0.2,0c4.6-0.1,9.2-1.6,14-4.6
						c4.7-3,6.3-5.3,4.6-7c-1.7-1.6-4.2-3.4-7.4-5.2C113.1,24.4,110.5,23.5,108.4,23.4 M113.9,30.8c0.3-0.3,0.7-0.4,1.1-0.4
						s0.8,0.1,1.1,0.4s0.5,0.6,0.5,1.1c0,0.4-0.1,0.8-0.5,1c-0.3,0.3-0.7,0.5-1.1,0.5s-0.8-0.2-1.1-0.5s-0.4-0.6-0.4-1
						C113.5,31.4,113.6,31.1,113.9,30.8z"/>
					<path class="st12" d="M115,30.4c-0.4,0-0.8,0.1-1.1,0.4s-0.4,0.6-0.4,1.1c0,0.4,0.1,0.8,0.4,1s0.7,0.5,1.1,0.5s0.8-0.2,1.1-0.5
						s0.5-0.6,0.5-1c0-0.4-0.1-0.8-0.5-1.1C115.8,30.5,115.4,30.4,115,30.4z"/>
				</g>
			</g>
		</g>
		<g transform="matrix( 1, 0, 0, 1, 0,0) ">
			<g>
				<g id="Layer0_44_MEMBER_4_FILL">
					<path class="st9" d="M106.9,39.6L107,36c0-0.2,0-0.4-0.1-0.6c-0.2-0.2-0.4-0.3-0.6-0.4s-0.4-0.1-0.5,0c-3.7,0.8-7.5,1.1-11.4,1
						c-0.2,0-0.4,0.1-0.6,0.1c-0.2,0.1-0.3,0.3-0.4,0.4c-0.1,0.2-0.1,0.4-0.1,0.6l0.3,2.1c0,0.2,0.1,0.4,0.3,0.5
						c0.1,0.2,0.3,0.3,0.6,0.3c3.7,0.8,7.5,1,11.4,0.5c0.3,0,0.5-0.1,0.7-0.3C106.8,40.1,106.9,39.9,106.9,39.6z"/>
				</g>
			</g>
		</g>
	</g>
</g>
<g>
	<rect x="256" class="st0" width="64" height="64"/>
	<g>
		<g transform="matrix( 1, 0, 0, 1, 0,0) ">
			<g>
				<g id="Layer0_47_MEMBER_0_FILL">
					<path class="st13" d="M273.1,23.5c-1.2-1.1-2.5-1.6-3.8-1.6c-0.8,0-1.7,0.5-2.5,1.6l-5.3,7c-1.7,2.1-1.7,4.2,0,6.4l5.3,6.9
						c0.9,1,1.7,1.6,2.5,1.6c1.3,0,2.6-0.5,3.8-1.6l8.2-6.9c2.6-2.2,2.6-4.3,0-6.4L273.1,23.5z"/>
				</g>
			</g>
		</g>
		<g transform="matrix( 1, 0, 0, 1, 0,0) ">
			<g>
				<g id="Layer0_47_MEMBER_1_FILL">
					<path class="st13" d="M303.8,43.7c-0.3-0.2-0.6-0.2-1-0.3c-6,0.4-12.1-0.6-18.3-3c-0.3-0.1-0.6-0.1-0.9-0.1
						c-0.3,0.1-0.5,0.3-0.7,0.4c-0.2,0.3-0.4,0.6-0.5,0.9l-1.4,6.8c-0.1,0.3,0,0.5,0.2,0.9c0.1,0.4,0.3,0.6,0.7,0.8
						c5.7,3.1,12.5,4.2,20.3,3.5c0.3,0,0.6-0.2,0.9-0.4s0.4-0.5,0.5-1l1.1-6.9c0.1-0.3,0-0.6-0.2-1C304.3,44,304.1,43.8,303.8,43.7z
						"/>
				</g>
			</g>
		</g>
		<g transform="matrix( 1, 0, 0, 1, 0,0) ">
			<g>
				<g id="Layer0_47_MEMBER_2_FILL">
					<path class="st13" d="M305.6,25.6c0.3-0.1,0.6-0.3,0.9-0.5c0.2-0.3,0.3-0.5,0.3-0.9V11.7c0-0.4-0.1-0.8-0.4-1.1
						s-0.7-0.4-1.1-0.4c-9.5,0.1-17.9,2.8-25.3,8.1c-0.3,0.2-0.5,0.5-0.5,0.9c-0.1,0.3-0.1,0.6,0,1l4.2,9c0.1,0.3,0.4,0.6,0.7,0.7
						c0.3,0.2,0.7,0.3,1,0.1L305.6,25.6z"/>
				</g>
			</g>
		</g>
		<g transform="matrix( 1, 0, 0, 1, 0,0) ">
			<g>
				<g id="Layer0_47_MEMBER_3_FILL">
					<path class="st14" d="M302.7,49.5c-2.2-10-2.2-20.4,0-30.9c-7.2,0.5-13.6,1.9-19.2,4.3C276.5,26,273,29.7,273,34
						s3.5,8,10.5,11.1C289.1,47.5,295.5,49,302.7,49.5z"/>
					<path class="st15" d="M305.2,18.5c-0.8,0-1.6,0.1-2.5,0.1c-2.2,10.6-2.2,20.9,0,30.9c0.8,0,1.7,0.1,2.5,0.1
						c0.7,0,1.3,0.1,2,0.1c0.3,0,0.6,0,0.9,0h0.1c0.1,0,0.1,0,0.3,0c2-0.2,3.7-1.7,5.1-4.6c1.5-3,2.3-6.7,2.3-11.1
						s-0.8-8.1-2.3-11.1c-1.5-2.8-3.2-4.3-5.1-4.5l0,0c-0.1,0-0.2,0-0.3,0h-0.1c-0.3,0-0.6,0-0.9,0
						C306.5,18.4,305.8,18.4,305.2,18.5 M311.4,32.3c-0.3,0.4-0.8,0.6-1.4,0.6c-0.5,0-0.9-0.2-1.3-0.6c-0.4-0.4-0.5-0.8-0.5-1.4
						c0-0.5,0.2-1,0.5-1.4c0.4-0.4,0.8-0.6,1.3-0.6c0.6,0,1,0.2,1.4,0.6s0.6,0.9,0.6,1.4S311.8,31.9,311.4,32.3z"/>
					<path class="st13" d="M310,32.9c0.6,0,1-0.2,1.4-0.6c0.4-0.4,0.6-0.8,0.6-1.4c0-0.5-0.2-1-0.6-1.4c-0.3-0.4-0.8-0.6-1.4-0.6
						c-0.5,0-0.9,0.2-1.3,0.6s-0.5,0.9-0.5,1.4s0.2,1,0.5,1.4C309.1,32.7,309.5,32.9,310,32.9z"/>
				</g>
			</g>
		</g>
		<g transform="matrix( 1, 0, 0, 1, 0,0) ">
			<g>
				<g id="Layer0_47_MEMBER_4_FILL">
					<path class="st13" d="M297.9,35.5c-0.2-0.3-0.4-0.6-0.6-0.8s-0.5-0.3-0.8-0.3c-5.3-0.3-10.5-1.2-15.7-2.8c-0.3,0-0.6,0-0.8,0
						c-0.3,0.1-0.5,0.3-0.7,0.5s-0.3,0.4-0.4,0.7l-0.4,2.9c0,0.3,0,0.6,0.1,0.9c0.2,0.3,0.4,0.5,0.6,0.6c4.7,2.4,9.8,4.1,15.3,4.9
						c0.4,0,0.7,0,1-0.3c0.3-0.1,0.4-0.4,0.5-0.8l1.6-4.8C297.9,36,297.9,35.8,297.9,35.5z"/>
				</g>
			</g>
		</g>
	</g>
</g>
<g>
	<rect x="128" class="st0" width="64" height="64"/>
	<g>
		<g transform="matrix( 1, 0, 0, 1, 0,0) ">
			<g>
				<g id="Layer0_49_MEMBER_0_FILL">
					<path class="st16" d="M146,23.5c-1.2,0-2.3,0.4-3.4,1.3l-7.4,5.2c-2.4,1.5-2.4,3.1,0,4.7l7.4,5.1c1.1,0.8,2.2,1.1,3.4,1.1
						c0.8,0,1.5-0.4,2.3-1.1l4.8-5.1c1.5-1.6,1.5-3.2,0-4.7l-4.8-5.2C147.5,24,146.7,23.5,146,23.5z"/>
				</g>
			</g>
		</g>
		<g transform="matrix( 1, 0, 0, 1, 0,0) ">
			<g>
				<g id="Layer0_49_MEMBER_1_FILL">
					<path class="st17" d="M172,38.9c0.1-0.3,0-0.5-0.2-0.8c-0.2-0.2-0.4-0.4-0.6-0.6c-0.2-0.1-0.5-0.2-0.9-0.2
						c-5.3,0.4-10.7-0.5-16.1-2.6c-0.3,0-0.6-0.1-0.9-0.1c-0.3,0.1-0.5,0.2-0.6,0.4c-0.2,0.3-0.4,0.6-0.5,0.8l-1.2,6
						c-0.1,0.2-0.1,0.5,0.1,0.8c0.1,0.3,0.3,0.6,0.6,0.7c5,2.7,11,3.8,18,3.1c0.3,0,0.6-0.1,0.8-0.4c0.2-0.2,0.4-0.5,0.5-0.8
						L172,38.9z"/>
				</g>
			</g>
		</g>
		<g transform="matrix( 1, 0, 0, 1, 0,0) ">
			<g>
				<g id="Layer0_49_MEMBER_2_FILL">
					<path class="st17" d="M154.2,25.5c-0.1,0.3-0.1,0.6,0,0.9l3.7,7.9c0.1,0.3,0.3,0.5,0.6,0.6c0.3,0.2,0.6,0.3,0.9,0.2L177,31
						c0.3-0.1,0.5-0.3,0.7-0.5s0.3-0.5,0.3-0.7v-11c0-0.4-0.1-0.7-0.3-0.9c-0.3-0.2-0.6-0.4-1-0.4c-8.3,0.1-15.6,2.4-22,7.1
						C154.4,24.9,154.2,25.2,154.2,25.5z"/>
				</g>
			</g>
		</g>
		<g transform="matrix( 1, 0, 0, 1, 0,0) ">
			<g>
				<g id="Layer0_49_MEMBER_3_FILL">
					<path class="st16" d="M181.8,38.9c4.1-3.4,5.6-6.4,4.5-9c-1.1-2.5-2.9-4.5-5.6-6c-3.3-1.8-7.3-2.2-12.2-1.1
						c0,7.4,3,13.8,9,19.3c0.4-0.2,0.7-0.4,1-0.6C179.5,40.7,180.6,39.9,181.8,38.9 M179.8,30.3c0.5,0,0.9,0.2,1.2,0.5
						c0.4,0.4,0.6,0.8,0.6,1.2c0,0.5-0.2,0.9-0.6,1.3c-0.3,0.4-0.7,0.5-1.2,0.5s-0.9-0.2-1.3-0.5c-0.3-0.4-0.5-0.8-0.5-1.3
						c0-0.4,0.2-0.8,0.5-1.2C179,30.4,179.4,30.3,179.8,30.3z"/>
					<path class="st18" d="M181,30.8c-0.3-0.4-0.7-0.5-1.2-0.5s-0.9,0.2-1.3,0.5c-0.3,0.4-0.5,0.8-0.5,1.2c0,0.5,0.2,0.9,0.5,1.3
						c0.4,0.4,0.8,0.5,1.3,0.5s0.9-0.2,1.2-0.5c0.4-0.4,0.6-0.8,0.6-1.3C181.7,31.6,181.5,31.2,181,30.8z"/>
					<path class="st19" d="M166.7,23.2c-3.8,1.2-7.7,2.4-11.8,3.8c-4.1,1.3-6.1,3.4-5.9,6.3c0.2,2.8,2.5,5.3,7.1,7.5
						c3.4,1.7,7.4,2.7,12,3.1c3.5,0.2,6.7-0.4,9.5-1.8c-6-5.5-9-11.9-9-19.3c-0.3,0-0.6,0.1-0.9,0.2C167.4,23,167,23.1,166.7,23.2z"
						/>
				</g>
			</g>
		</g>
		<g transform="matrix( 1, 0, 0, 1, 0,0) ">
			<g>
				<g id="Layer0_49_MEMBER_4_FILL">
					<path class="st16" d="M166.9,39.9l0.9-2.9c0-0.2,0.1-0.3,0.1-0.5c-0.1-0.2-0.2-0.4-0.4-0.4c-0.2-0.1-0.3-0.2-0.5-0.1
						c-3.1-0.2-6.2-0.7-9.3-1.7c-0.2,0-0.3,0-0.5,0c-0.2,0.1-0.3,0.2-0.4,0.3s-0.2,0.2-0.3,0.4l-0.2,1.7c0,0.2,0,0.4,0,0.5
						c0.1,0.2,0.2,0.3,0.4,0.3c2.8,1.5,5.8,2.4,9,2.9c0.2,0,0.4-0.1,0.6-0.2C166.7,40.2,166.8,40.1,166.9,39.9z"/>
				</g>
			</g>
		</g>
	</g>
</g>
<g>
	<rect x="192" y="64" class="st0" width="64" height="64"/>
	<g>
		<g transform="matrix( 1, 0, 0, 1, 0,0) ">
			<g>
				<g id="Layer0_2_MEMBER_0_FILL_1_">
					<path class="st1" d="M230.9,96.4c-2,1.9-2,3.9,0,5.8l6.3,6.2c2,1.9,4,1.9,6,0l6.3-6.2c2-1.9,2-3.9,0-5.8l-6.3-6.2
						c-2-1.9-4-1.9-6,0L230.9,96.4z"/>
				</g>
			</g>
		</g>
		<g transform="matrix( 1, 0, 0, 1, 0,0) ">
			<g>
				<g id="Layer0_2_MEMBER_1_FILL_1_">
					<path class="st1" d="M207.7,115.8c6.6,0.6,12.3-0.4,17-2.9c0.3-0.1,0.4-0.4,0.5-0.6c0.2-0.2,0.2-0.5,0.2-0.8l-1.2-5.7
						c-0.1-0.3-0.2-0.5-0.4-0.7s-0.4-0.3-0.7-0.4c-0.3,0-0.5,0-0.8,0.1c-5.2,2-10.3,2.9-15.4,2.5c-0.3,0-0.6,0.1-0.8,0.2
						s-0.4,0.3-0.6,0.6c-0.1,0.2-0.2,0.5-0.1,0.8l0.9,5.9c0.1,0.3,0.2,0.5,0.4,0.8C207.1,115.6,207.3,115.8,207.7,115.8z"/>
				</g>
			</g>
		</g>
		<g transform="matrix( 1, 0, 0, 1, 0,0) ">
			<g>
				<g id="Layer0_2_MEMBER_2_FILL_1_">
					<path class="st1" d="M206.6,90.6c0,0.3,0.1,0.6,0.3,0.8c0.2,0.2,0.4,0.4,0.8,0.5l18.2,4c0.3,0.1,0.6,0.1,0.9-0.1
						c0.3-0.1,0.5-0.4,0.6-0.6l3.8-8.1c0.1-0.3,0.1-0.6,0.1-0.9c-0.1-0.3-0.2-0.5-0.5-0.8c-6.8-4.9-14.3-7.4-22.9-7.4
						c-0.4,0-0.7,0.1-1,0.4c-0.2,0.2-0.3,0.5-0.3,0.9C206.6,79.3,206.6,90.6,206.6,90.6z"/>
				</g>
			</g>
		</g>
		<g transform="matrix( 1, 0, 0, 1, 0,0) ">
			<g>
				<g id="Layer0_2_MEMBER_3_FILL_1_">
					<path class="st2" d="M219.3,98.7c0,5-1.3,9.2-4,12.7c-0.2,0.2-0.4,0.5-0.6,0.8c5.5-0.4,10.4-1.7,14.5-3.7
						c5.1-2.5,7.7-5.6,7.7-9.2s-2.6-6.7-7.7-9.2c-3.9-1.9-8.4-3.1-13.5-3.6C218.1,89.9,219.3,94,219.3,98.7z"/>
					<path class="st3" d="M210.1,112.3c0.1,0,0.3,0,0.4,0c1.5,0,2.9,0,4.2-0.1c0.2-0.3,0.4-0.5,0.6-0.8c2.7-3.5,4-7.7,4-12.7
						c0-4.7-1.2-8.8-3.7-12.2c-1.7-0.2-3.4-0.3-5.2-0.3c-0.1,0-0.3,0-0.4,0c-3.6,0.1-6.7,1.3-9.2,3.8c-2.5,2.6-3.8,5.7-3.8,9.3
						c0,3.6,1.3,6.6,3.9,9.2C203.4,111,206.5,112.2,210.1,112.3z"/>
				</g>
			</g>
		</g>
		<g transform="matrix( 1, 0, 0, 1, 0,0) ">
			<g>
				<g id="Layer0_2_MEMBER_4_FILL_1_">
					<path class="st4" d="M202.7,97.3c0,0.7,0.3,1.4,0.8,1.9s1.2,0.8,1.9,0.8s1.4-0.3,1.9-0.8s0.8-1.1,0.8-1.9
						c0-0.7-0.3-1.3-0.8-1.8s-1.2-0.8-1.9-0.8s-1.4,0.3-1.9,0.8C202.9,96,202.7,96.6,202.7,97.3z"/>
				</g>
			</g>
		</g>
		<g transform="matrix( 1, 0, 0, 1, 0,0) ">
			<g>
				<g id="Layer0_2_MEMBER_5_FILL_1_">
					<path class="st1" d="M212.6,102.9l1.4,4.4c0.1,0.3,0.3,0.5,0.6,0.6c0.3,0.2,0.6,0.2,0.9,0.2c5-0.7,9.6-2.2,14-4.4
						c0.3-0.1,0.5-0.3,0.5-0.6c0.1-0.2,0.1-0.4,0.1-0.7l-0.3-2.7c0-0.3-0.1-0.5-0.3-0.6c-0.2-0.2-0.4-0.3-0.7-0.4
						c-0.2-0.1-0.5-0.1-0.8,0c-4.7,1.4-9.5,2.3-14.3,2.5c-0.2,0-0.5,0.1-0.7,0.3c-0.2,0.2-0.4,0.4-0.5,0.6
						C212.5,102.3,212.5,102.6,212.6,102.9z"/>
				</g>
			</g>
		</g>
	</g>
</g>
<g>
	<rect y="64" class="st0" width="64" height="64"/>
	<g>
		<g transform="matrix( 1, 0, 0, 1, 0,0) ">
			<g>
				<g id="Layer0_41_MEMBER_0_FILL_1_">
					<path class="st5" d="M40.6,101.8c1.5,1.3,3.1,1.3,4.6,0l5-4.3c1.6-1.3,1.6-2.6,0-3.9l-5-4.3c-1.5-1.3-3.1-1.3-4.6,0l-4.9,4.3
						c-1.6,1.3-1.6,2.6,0,3.9L40.6,101.8z"/>
				</g>
			</g>
		</g>
		<g transform="matrix( 1, 0, 0, 1, 0,0) ">
			<g>
				<g id="Layer0_41_MEMBER_1_FILL_1_">
					<path class="st5" d="M31.1,107.1c0.1,0.1,0.3,0.1,0.5,0c0.2,0,0.3-0.1,0.4-0.2l2-2.8c0.1-0.1,0.1-0.3,0.1-0.4s0-0.3-0.1-0.5
						s-0.2-0.3-0.3-0.3c-2.7-1.6-4.9-3.7-6.6-6.2c-0.1-0.1-0.2-0.2-0.4-0.3c-0.1-0.1-0.3-0.1-0.5,0c-0.2,0-0.3,0.1-0.4,0.2l-2.2,2.8
						c-0.1,0.1-0.2,0.3-0.2,0.5s0,0.4,0.1,0.5C25.9,103.7,28.4,105.9,31.1,107.1z"/>
				</g>
			</g>
		</g>
		<g transform="matrix( 1, 0, 0, 1, 0,0) ">
			<g>
				<g id="Layer0_41_MEMBER_2_FILL_1_">
					<path class="st5" d="M34,91.7l0.8-5.5c0-0.2,0-0.4-0.1-0.5s-0.2-0.2-0.3-0.3c-4.2-1.2-8.5-0.8-13,1.1c-0.2,0.1-0.4,0.2-0.5,0.4
						c-0.1,0.2-0.1,0.4,0,0.6l1.6,6.4c0,0.1,0.1,0.3,0.3,0.4c0.1,0,0.3,0,0.5,0l10.1-1.8c0.2,0,0.3-0.1,0.4-0.3
						C33.9,92.1,34,91.9,34,91.7z"/>
				</g>
			</g>
		</g>
		<g transform="matrix( 1, 0, 0, 1, 0,0) ">
			<g>
				<g id="Layer0_41_MEMBER_3_FILL_1_">
					<path class="st6" d="M14.8,90.9c-1.3,1.3-2,2.9-2,4.8s0.7,3.5,2,4.8s2.9,2,4.8,2c0.1,0,0.3,0,0.4,0l6.8-6.8L19.9,89
						c-0.1,0-0.3,0-0.4,0C17.6,89,16.1,89.6,14.8,90.9z"/>
					<path class="st7" d="M26.6,95.8l-6.8,6.8c4.6-0.1,8.7-0.5,12.3-1.3c1-0.2,2-0.4,3-0.7c4.5-1.3,6.8-2.9,6.8-4.8
						s-2.3-3.5-6.8-4.8c-4.3-1.2-9.3-1.8-15.2-1.9L26.6,95.8z"/>
				</g>
			</g>
		</g>
		<g transform="matrix( 1, 0, 0, 1, 0,0) ">
			<g>
				<g id="Layer0_41_MEMBER_4_FILL_1_">
					<path class="st8" d="M15.5,96.4c0.4,0.4,0.8,0.6,1.4,0.6c0.5,0,1-0.2,1.4-0.6s0.6-0.8,0.6-1.4c0-0.5-0.2-1-0.6-1.4
						S17.4,93,16.9,93c-0.6,0-1,0.2-1.4,0.6s-0.6,0.9-0.6,1.4C14.9,95.6,15.1,96,15.5,96.4z"/>
				</g>
			</g>
		</g>
	</g>
</g>
<g>
	<rect x="64" y="64" class="st0" width="64" height="64"/>
	<g>
		<g transform="matrix( 1, 0, 0, 1, 0,0) ">
			<g>
				<g id="Layer0_44_MEMBER_0_FILL_1_">
					<path class="st9" d="M100.4,101c-0.1-0.1-0.3-0.1-0.5-0.1c-0.2,0.1-0.4,0.1-0.5,0.3c-3.4,2.5-7,4.1-10.8,4.9
						c-0.2,0.1-0.4,0.2-0.5,0.3c-0.2,0.1-0.3,0.3-0.3,0.5c-0.1,0.2-0.1,0.4,0,0.6l1.8,4.1c0.1,0.2,0.3,0.4,0.5,0.5s0.4,0.1,0.6,0.1
						c4.9-0.8,8.9-2.7,12-5.5c0.2-0.2,0.3-0.4,0.3-0.6c0.1-0.2,0-0.4-0.1-0.6l-1.9-3.9C100.8,101.3,100.6,101.1,100.4,101z"/>
				</g>
			</g>
		</g>
		<g transform="matrix( 1, 0, 0, 1, 0,0) ">
			<g>
				<g id="Layer0_44_MEMBER_1_FILL_1_">
					<path class="st9" d="M111.7,89.4l-8.1,5.1c-2.5,1.6-2.5,3.1,0,4.8l8.1,5.1c1.2,0.8,2.4,1.1,3.7,1.1c0.8,0,1.7-0.4,2.5-1.1
						l5.2-5.1c1.6-1.6,1.6-3.2,0-4.8l-5.2-5.1c-0.8-0.8-1.7-1.2-2.5-1.2C114.1,88.1,112.9,88.6,111.7,89.4z"/>
				</g>
			</g>
		</g>
		<g transform="matrix( 1, 0, 0, 1, 0,0) ">
			<g>
				<g id="Layer0_44_MEMBER_2_FILL_1_">
					<path class="st9" d="M80.3,91.3c0.2,0.2,0.4,0.3,0.7,0.4l15.3,3.4c0.3,0.1,0.5,0.1,0.8-0.1c0.3-0.1,0.5-0.3,0.6-0.5l3.2-6.9
						c0.1-0.3,0.1-0.5,0.1-0.8s-0.2-0.5-0.4-0.6C95,82.1,88.6,80,81.4,80c-0.3,0-0.6,0.1-0.9,0.3c-0.2,0.2-0.3,0.5-0.3,0.8v9.5
						C80.1,90.9,80.2,91.1,80.3,91.3z"/>
				</g>
			</g>
		</g>
		<g transform="matrix( 1, 0, 0, 1, 0,0) ">
			<g>
				<g id="Layer0_44_MEMBER_3_FILL_1_">
					<path class="st10" d="M87,107c0.1,0,0.2,0,0.4,0c6.1-0.1,11.3-1,15.6-2.9c4.6-1.9,6.9-4.3,6.9-7c0-2.8-2.3-5.1-6.9-7
						c-4.4-1.8-9.6-2.8-15.6-2.9c-0.1,0-0.3,0-0.4,0C89.5,93.6,89.5,100.3,87,107z"/>
					<path class="st11" d="M83.6,87.4c-2.1,0.1-4.8,1-8,2.9c-3.2,1.8-5.6,3.6-7.4,5.2c-1.7,1.7-0.2,4,4.6,7s9.4,4.5,14,4.6
						c0.1,0,0.1,0,0.2,0c2.4-6.8,2.4-13.4,0-19.8C87,87.2,85.9,87.3,83.6,87.4 M78.5,95.9c0,0.4-0.1,0.8-0.4,1s-0.7,0.5-1.1,0.5
						s-0.8-0.2-1.1-0.5s-0.5-0.6-0.5-1s0.1-0.8,0.5-1.1c0.3-0.3,0.7-0.4,1.1-0.4s0.8,0.1,1.1,0.4C78.4,95.1,78.5,95.4,78.5,95.9z"/>
					<path class="st12" d="M76,94.8c-0.3,0.3-0.5,0.6-0.5,1.1c0,0.4,0.1,0.8,0.5,1c0.3,0.3,0.7,0.5,1.1,0.5s0.8-0.2,1.1-0.5
						s0.4-0.6,0.4-1s-0.1-0.8-0.4-1.1c-0.3-0.3-0.7-0.4-1.1-0.4C76.6,94.4,76.3,94.5,76,94.8z"/>
				</g>
			</g>
		</g>
		<g transform="matrix( 1, 0, 0, 1, 0,0) ">
			<g>
				<g id="Layer0_44_MEMBER_4_FILL_1_">
					<path class="st9" d="M85.4,104.2c0.2,0.2,0.4,0.3,0.7,0.3c3.9,0.5,7.8,0.3,11.4-0.5c0.2,0,0.4-0.1,0.6-0.3
						c0.1-0.1,0.2-0.3,0.3-0.5l0.3-2.1c0-0.2,0-0.4-0.1-0.6s-0.2-0.3-0.4-0.4s-0.4-0.1-0.6-0.1c-3.9,0.1-7.7-0.2-11.4-1
						c-0.2-0.1-0.3-0.1-0.5,0s-0.4,0.2-0.6,0.4C85,99.6,85,99.8,85,100l0.2,3.6C85.1,103.9,85.2,104.1,85.4,104.2z"/>
				</g>
			</g>
		</g>
	</g>
</g>
<g>
	<rect x="256" y="64" class="st0" width="64" height="64"/>
	<g>
		<g transform="matrix( 1, 0, 0, 1, 0,0) ">
			<g>
				<g id="Layer0_47_MEMBER_0_FILL_1_">
					<path class="st13" d="M294.7,94.5c-2.6,2.1-2.6,4.2,0,6.4l8.2,6.9c1.2,1,2.5,1.6,3.8,1.6c0.8,0,1.7-0.5,2.5-1.6l5.3-6.9
						c1.7-2.2,1.7-4.3,0-6.4l-5.3-7c-0.9-1.1-1.7-1.6-2.5-1.6c-1.3,0-2.6,0.5-3.8,1.6L294.7,94.5z"/>
				</g>
			</g>
		</g>
		<g transform="matrix( 1, 0, 0, 1, 0,0) ">
			<g>
				<g id="Layer0_47_MEMBER_1_FILL_1_">
					<path class="st13" d="M271.5,108.3c-0.2,0.3-0.3,0.6-0.2,1l1.1,6.9c0.1,0.4,0.2,0.7,0.5,1s0.6,0.4,0.9,0.4
						c7.8,0.8,14.6-0.4,20.3-3.5c0.3-0.2,0.5-0.4,0.7-0.8c0.2-0.3,0.3-0.6,0.2-0.9l-1.4-6.8c-0.1-0.3-0.3-0.6-0.5-0.9
						c-0.2-0.1-0.4-0.3-0.7-0.4c-0.3,0-0.6,0.1-0.9,0.1c-6.1,2.4-12.2,3.4-18.3,3c-0.4,0-0.7,0.1-1,0.3
						C271.9,107.8,271.7,108,271.5,108.3z"/>
				</g>
			</g>
		</g>
		<g transform="matrix( 1, 0, 0, 1, 0,0) ">
			<g>
				<g id="Layer0_47_MEMBER_2_FILL_1_">
					<path class="st13" d="M290.5,94.1c0.3,0.1,0.7,0.1,1-0.1c0.3-0.1,0.6-0.4,0.7-0.7l4.2-9c0.1-0.4,0.2-0.7,0-1
						c0-0.3-0.2-0.6-0.5-0.9c-7.3-5.4-15.8-8.1-25.3-8.1c-0.4,0-0.8,0.1-1.1,0.4c-0.3,0.3-0.4,0.6-0.4,1.1v12.5
						c0,0.3,0.1,0.6,0.3,0.9s0.5,0.5,0.9,0.5L290.5,94.1z"/>
				</g>
			</g>
		</g>
		<g transform="matrix( 1, 0, 0, 1, 0,0) ">
			<g>
				<g id="Layer0_47_MEMBER_3_FILL_1_">
					<path class="st14" d="M292.5,109.1c7-3,10.5-6.7,10.5-11.1s-3.5-8.1-10.5-11.1c-5.5-2.4-11.9-3.8-19.2-4.3
						c2.2,10.6,2.2,20.9,0,30.9C280.5,113,286.9,111.5,292.5,109.1z"/>
					<path class="st15" d="M270.8,82.5c-0.7,0-1.3-0.1-2-0.1c-0.3,0-0.6,0-0.9,0h-0.1c-0.1,0-0.1,0-0.3,0l0,0
						c-2,0.2-3.7,1.7-5.1,4.5c-1.5,3.1-2.3,6.8-2.3,11.1c0,4.3,0.8,8,2.3,11.1c1.5,2.9,3.2,4.4,5.1,4.6c0.1,0,0.2,0,0.3,0h0.1
						c0.3,0,0.6,0,0.9,0c0.7,0,1.3,0,2-0.1c0.8,0,1.6-0.1,2.5-0.1c2.2-10,2.2-20.4,0-30.9C272.5,82.5,271.6,82.5,270.8,82.5
						 M264,94.9c0-0.5,0.2-1,0.6-1.4c0.3-0.4,0.8-0.6,1.4-0.6c0.5,0,0.9,0.2,1.3,0.6s0.5,0.9,0.5,1.4s-0.2,1-0.5,1.4
						c-0.4,0.4-0.8,0.6-1.3,0.6c-0.6,0-1-0.2-1.4-0.6S264,95.4,264,94.9z"/>
					<path class="st13" d="M267.3,96.3c0.4-0.4,0.5-0.8,0.5-1.4c0-0.5-0.2-1-0.5-1.4c-0.4-0.4-0.8-0.6-1.3-0.6c-0.6,0-1,0.2-1.4,0.6
						s-0.6,0.9-0.6,1.4s0.2,1,0.6,1.4c0.3,0.4,0.8,0.6,1.4,0.6C266.5,96.9,266.9,96.7,267.3,96.3z"/>
				</g>
			</g>
		</g>
		<g transform="matrix( 1, 0, 0, 1, 0,0) ">
			<g>
				<g id="Layer0_47_MEMBER_4_FILL_1_">
					<path class="st13" d="M278.2,100.3l1.6,4.8c0.1,0.4,0.2,0.6,0.5,0.8c0.3,0.2,0.7,0.3,1,0.3c5.5-0.8,10.6-2.4,15.3-4.9
						c0.3-0.1,0.5-0.3,0.6-0.6c0.1-0.2,0.1-0.5,0.1-0.9l-0.4-2.9c-0.1-0.3-0.2-0.5-0.4-0.7s-0.4-0.4-0.7-0.5c-0.2,0-0.5,0-0.8,0
						c-5.2,1.6-10.4,2.5-15.7,2.8c-0.3,0-0.5,0.1-0.8,0.3c-0.2,0.2-0.4,0.4-0.6,0.8C278.1,99.8,278.1,100,278.2,100.3z"/>
				</g>
			</g>
		</g>
	</g>
</g>
<g>
	<rect x="128" y="64" class="st0" width="64" height="64"/>
	<g>
		<g transform="matrix( 1, 0, 0, 1, 0,0) ">
			<g>
				<g id="Layer0_49_MEMBER_0_FILL_1_">
					<path class="st16" d="M171.8,88.8L167,94c-1.5,1.5-1.5,3.1,0,4.7l4.8,5.1c0.8,0.8,1.5,1.1,2.3,1.1c1.2,0,2.3-0.4,3.4-1.1
						l7.4-5.1c2.4-1.6,2.4-3.2,0-4.7l-7.4-5.2c-1.1-0.8-2.2-1.3-3.4-1.3C173.3,87.5,172.5,88,171.8,88.8z"/>
				</g>
			</g>
		</g>
		<g transform="matrix( 1, 0, 0, 1, 0,0) ">
			<g>
				<g id="Layer0_49_MEMBER_1_FILL_1_">
					<path class="st17" d="M149,109c0.1,0.3,0.2,0.6,0.5,0.8c0.2,0.2,0.5,0.4,0.8,0.4c6.9,0.7,12.9-0.3,18-3.1
						c0.3-0.1,0.5-0.4,0.6-0.7c0.2-0.3,0.2-0.5,0.1-0.8l-1.2-6c-0.1-0.2-0.2-0.5-0.5-0.8c-0.1-0.1-0.3-0.3-0.6-0.4
						c-0.3,0-0.6,0.1-0.9,0.1c-5.4,2.1-10.8,3-16.1,2.6c-0.3,0-0.6,0.1-0.9,0.2c-0.2,0.1-0.4,0.3-0.6,0.6c-0.2,0.3-0.2,0.5-0.2,0.8
						L149,109z"/>
				</g>
			</g>
		</g>
		<g transform="matrix( 1, 0, 0, 1, 0,0) ">
			<g>
				<g id="Layer0_49_MEMBER_2_FILL_1_">
					<path class="st17" d="M165.3,88.7c-6.4-4.7-13.7-7-22-7.1c-0.4,0-0.7,0.1-1,0.4c-0.2,0.2-0.3,0.5-0.3,0.9v11
						c0,0.2,0.1,0.5,0.3,0.7s0.4,0.4,0.7,0.5l17.6,3.9c0.3,0.1,0.6,0,0.9-0.2c0.3-0.1,0.5-0.3,0.6-0.6l3.7-7.9
						c0.1-0.3,0.1-0.6,0-0.9C165.8,89.2,165.6,88.9,165.3,88.7z"/>
				</g>
			</g>
		</g>
		<g transform="matrix( 1, 0, 0, 1, 0,0) ">
			<g>
				<g id="Layer0_49_MEMBER_3_FILL_1_">
					<path class="st16" d="M138.2,102.9c1.2,1,2.3,1.8,3.3,2.5c0.3,0.2,0.7,0.4,1,0.6c6-5.5,9-11.9,9-19.3
						c-4.9-1.1-8.9-0.7-12.2,1.1c-2.7,1.5-4.5,3.5-5.6,6C132.6,96.4,134.1,99.4,138.2,102.9 M141.4,94.8c0.3,0.4,0.5,0.8,0.5,1.2
						c0,0.5-0.2,0.9-0.5,1.3c-0.4,0.4-0.8,0.5-1.3,0.5s-0.9-0.2-1.2-0.5c-0.4-0.4-0.6-0.8-0.6-1.3c0-0.4,0.2-0.8,0.6-1.2
						c0.3-0.4,0.7-0.5,1.2-0.5S141,94.4,141.4,94.8z"/>
					<path class="st18" d="M138.3,96c0,0.5,0.2,0.9,0.6,1.3c0.3,0.4,0.7,0.5,1.2,0.5s0.9-0.2,1.3-0.5c0.3-0.4,0.5-0.8,0.5-1.3
						c0-0.4-0.2-0.8-0.5-1.2c-0.4-0.4-0.8-0.5-1.3-0.5s-0.9,0.2-1.2,0.5C138.5,95.2,138.3,95.6,138.3,96z"/>
					<path class="st19" d="M152.3,86.9c-0.3-0.1-0.6-0.2-0.9-0.2c0,7.4-3,13.8-9,19.3c2.8,1.4,6,2,9.5,1.8c4.6-0.4,8.6-1.4,12-3.1
						c4.6-2.2,6.9-4.7,7.1-7.5s-1.8-4.9-5.9-6.3c-4.1-1.3-8-2.6-11.8-3.8C153,87.1,152.6,87,152.3,86.9z"/>
				</g>
			</g>
		</g>
		<g transform="matrix( 1, 0, 0, 1, 0,0) ">
			<g>
				<g id="Layer0_49_MEMBER_4_FILL_1_">
					<path class="st16" d="M153.4,104.3c0.2,0.1,0.4,0.2,0.6,0.2c3.2-0.5,6.2-1.4,9-2.9c0.2-0.1,0.3-0.2,0.4-0.3
						c0.1-0.1,0.1-0.3,0-0.5l-0.2-1.7c-0.1-0.2-0.2-0.3-0.3-0.4s-0.2-0.2-0.4-0.3c-0.1,0-0.3,0-0.5,0c-3.1,0.9-6.2,1.5-9.3,1.7
						c-0.1,0-0.3,0-0.5,0.1c-0.1,0.1-0.3,0.3-0.4,0.4c0,0.1,0,0.3,0.1,0.5l0.9,2.9C153.2,104.1,153.3,104.2,153.4,104.3z"/>
				</g>
			</g>
		</g>
	</g>
</g>
<g transform="matrix( 1, 0, 0, 1, 0,0) ">
	<g>
		<g id="Layer0_3_FILL">
			<path class="st20" d="M198,332c-2-0.9-4-2.1-6-3.5v14.6c1-1.3,1.9-2.7,2.8-4.1C196,336.8,197.1,334.5,198,332 M248.8,376.5
				c-0.7,2.7-1.5,5.2-2.5,7.5h9.8v-22.8C253,365.6,250.6,370.7,248.8,376.5 M244.6,323.2c-0.2,0.3-0.4,0.7-0.6,1
				c-5.5,9.6-14.7,16.4-27.4,20.3v0.1c-10.5,2.6-18.7,8.1-24.6,16.6V384h10.3c6-13.1,15.8-21.4,29.4-24.8h-0.1
				c10.7-3.3,18.9-8.7,24.5-16.1v-14.6c-4-2.9-8.1-4.7-12.1-5.5C244.1,323.1,244.4,323.2,244.6,323.2 M247,333.3l4,3.8l-3.8,4
				l-4-3.8L247,333.3 M231.3,346.8l3.5,4.2l-4.3,3.4l-3.5-4.2L231.3,346.8 M237.3,349.9l2-5.1l5.1,2l-1.9,5.1L237.3,349.9
				 M197.9,359.5l3.2-4.3l4.3,3.1l-3.1,4.4L197.9,359.5 M206.8,370l-4.6,1.5l-1.5-4.6l4.6-1.6L206.8,370z"/>
			<path class="st21" d="M231.5,359.2L231.5,359.2c-13.5,3.4-23.3,11.7-29.3,24.8h44c1-2.3,1.9-4.8,2.5-7.5
				c1.8-5.8,4.3-10.9,7.3-15.3v-18.1C250.4,350.5,242.3,355.9,231.5,359.2 M202.1,371.5l4.6-1.5l-1.6-4.6l-4.6,1.6L202.1,371.5
				 M201.1,355.2l-3.2,4.3l4.4,3.2l3.1-4.4L201.1,355.2 M239.2,344.8l-2,5.1l5.1,2l1.9-5.1L239.2,344.8 M234.8,351l-3.5-4.2
				l-4.2,3.5l3.5,4.2L234.8,351 M251,337l-4-3.8l-3.8,4l4,3.8L251,337 M244,324.2c0.2-0.3,0.4-0.7,0.6-1c-0.2,0-0.5-0.1-0.7-0.2
				c-1-0.2-1.9-0.3-2.9-0.3h-2c-5,0.2-10,2.1-15,5.8c-8.7,6.2-17.3,7.4-26,3.5c-0.9,2.5-2,4.8-3.3,7c-0.8,1.4-1.8,2.8-2.8,4.1v18.1
				c5.9-8.5,14.1-14,24.6-16.6v-0.1C229.4,340.6,238.5,333.8,244,324.2z"/>
			<path class="st22" d="M256,328.5V324c-3.3-1.7-6.7-2.8-10-3.5c-1.6-0.3-3.3-0.5-5-0.5h-2c-5,0.2-10,1.5-15,4
				c-10.7,5.3-21.3,5.3-32,0v4.5c2,1.4,4,2.6,6,3.5c8.7,3.9,17.3,2.7,26-3.5c5-3.6,10-5.5,15-5.8h2c1,0,1.9,0.1,2.9,0.3
				C247.9,323.8,252,325.6,256,328.5z"/>
		</g>
	</g>
</g>
<g transform="matrix( 1, 0, 0, 1, 0,0) ">
	<g>
		<g id="Layer0_4_FILL">
			<path class="st20" d="M256,343.1c1-1.3,1.9-2.7,2.8-4.1c1.3-2.2,2.3-4.5,3.3-7c-2-0.9-4-2.1-6-3.5L256,343.1 M312.8,376.5
				c-0.7,2.7-1.5,5.2-2.5,7.5h9.8v-22.8C317,365.6,314.6,370.7,312.8,376.5 M320,328.5c-4-2.9-8.1-4.7-12.1-5.5
				c0.2,0.1,0.5,0.1,0.7,0.2c-0.2,0.3-0.4,0.7-0.6,1c-5.5,9.6-14.7,16.4-27.4,20.3v0.1c-10.5,2.6-18.7,8.1-24.6,16.6V384h10.3
				c6-13.1,15.8-21.4,29.4-24.8h-0.1c10.7-3.3,18.9-8.7,24.5-16.1L320,328.5 M296.5,352.4l2-5.1l5.1,2l-1.9,5.1L296.5,352.4
				 M293.6,349l-4.3,3.5l-3.4-4.2l4.2-3.5L293.6,349 M265,374.8l-4.6,1.5l-1.5-4.6l4.6-1.6L265,374.8z"/>
			<path class="st21" d="M295.5,359.2L295.5,359.2c-13.5,3.4-23.3,11.7-29.3,24.8h44c1-2.3,1.9-4.8,2.5-7.5
				c1.8-5.8,4.3-10.9,7.3-15.3v-18.1C314.4,350.5,306.3,355.9,295.5,359.2 M260.4,376.3l4.6-1.5l-1.5-4.6l-4.6,1.6L260.4,376.3
				 M289.4,352.5l4.3-3.5l-3.5-4.2l-4.2,3.5L289.4,352.5 M298.5,347.3l-2,5.1l5.1,2l1.9-5.1L298.5,347.3 M305,322.8h-2
				c-5,0.2-10,2.1-15,5.8c-8.7,6.2-17.3,7.4-26,3.5c-0.9,2.5-2,4.8-3.3,7c-0.8,1.4-1.8,2.8-2.8,4.1v18.1c5.9-8.5,14.1-14,24.6-16.6
				v-0.1c12.8-3.9,21.9-10.7,27.4-20.3c0.2-0.3,0.4-0.7,0.6-1c-0.2,0-0.5-0.1-0.7-0.2C306.9,322.9,306,322.8,305,322.8z"/>
			<path class="st23" d="M288,324c-5-2.5-10-3.8-15-4h-2c-5,0.2-10,1.5-15,4C266.7,329.3,277.3,329.3,288,324z"/>
			<path class="st22" d="M303,322.8h2c1,0,1.9,0.1,2.9,0.3c4,0.7,8.1,2.5,12.1,5.5V324c-5-2.5-10-3.8-15-4h-2c-5,0.2-10,1.5-15,4
				c-10.7,5.3-21.3,5.3-32,0v4.5c2,1.4,4,2.6,6,3.5c8.7,3.9,17.3,2.7,26-3.5C293,324.9,298,323,303,322.8z"/>
		</g>
	</g>
</g>
<g transform="matrix( 1, 0, 0, 1, 0,0) ">
	<g>
		<g id="Layer0_116_FILL">
			<path class="st24" d="M104,257c-2.7,0.7-5.3,1.7-8,3c-10.7,5.3-21.3,5.3-32,0v60h64v-60c-2.7-1.3-5.3-2.3-7.9-3
				c-2.4-0.6-4.7-0.9-7.1-1h-2C108.7,256.1,106.3,256.4,104,257z"/>
		</g>
	</g>
</g>
<g transform="matrix( 1, 0, 0, 1, 0,0) ">
	<g>
		<g id="Layer0_1_FILL">
			<path class="st20" d="M0,343.1c1-1.3,1.9-2.7,2.8-4.1c2-3.5,3.6-7.4,4.7-11.7c0.8-2.6,1.7-5,2.8-7.3H0V343.1 M56.8,376.5
				c-0.7,2.7-1.5,5.2-2.6,7.5H64v-22.8C61,365.6,58.6,370.7,56.8,376.5 M64,320h-9.8c-0.6,1.5-1.3,2.9-2.1,4.2
				c-5.5,9.6-14.7,16.4-27.5,20.3l0.1,0.1C14.2,347.2,6,352.7,0,361.2V384h10.3c6-13.1,15.8-21.4,29.3-24.8l0,0
				c10.7-3.3,18.9-8.7,24.4-16.1V320 M52.3,339l-1.9,5.1l-5.2-2l1.9-5.1L52.3,339 M8.6,367l4.6-1.6l1.5,4.6l-4.6,1.5L8.6,367z"/>
			<path class="st21" d="M54.2,384c1-2.3,1.9-4.8,2.6-7.5c1.8-5.8,4.3-10.9,7.3-15.3v-18.1c-5.6,7.4-13.7,12.7-24.4,16.1l0,0
				C26,362.6,16.2,370.9,10.3,384H54.2 M52.1,324.2c0.8-1.3,1.5-2.7,2.1-4.2H10.3c-1.1,2.3-2,4.7-2.8,7.3c-1.1,4.3-2.7,8.2-4.7,11.7
				C2,340.4,1,341.8,0,343.1v18.1c5.9-8.5,14.2-14,24.7-16.6l-0.1-0.1C37.4,340.6,46.5,333.8,52.1,324.2 M13.2,365.4L8.6,367
				l1.6,4.6l4.6-1.5L13.2,365.4 M50.4,344.1l1.9-5.1l-5.1-2l-1.9,5.1L50.4,344.1z"/>
		</g>
	</g>
</g>
<g>
	<rect y="192" class="st0" width="64" height="64"/>
	<g transform="matrix( 1, 0, 0, 1, 0,0) ">
		<g>
			<g id="Layer0_37_FILL">
				<path class="st25" d="M45.4,232.1c0.4-1.2,0.5-2.4,0.1-3.6c-0.4-1.2-1.1-2.1-2.1-2.7c-0.5-0.3-1.1-0.4-1.6-0.4
					c-3.6,11.5-3.5,21.3,0.3,29.3c0.2,0.4,0.4,0.8,0.6,1.3h1.8c-2.2-7.1-2.2-14.3,0.2-21.6C44.8,233.7,45.1,232.9,45.4,232.1
					 M30.6,218.4c-0.5-1-1.2-1.7-2.3-2.1c-0.9-0.4-1.9-0.4-2.9,0c0.9,2.3,1.5,3.8,1.7,4.3c2.7,7.8,2.3,15.5-1,23.1
					c-1.8,4.2-3,8.4-3.4,12.4H28c-0.9-5.3-0.1-10.4,2.3-15.1C34,233.8,34,226.3,30.6,218.4z"/>
				<path class="st7" d="M40.3,225.9c-1,0.4-1.8,1.3-2.3,2.4c-3.5,9.3-3.4,18.1,0.2,26.4c0.2,0.4,0.3,0.8,0.5,1.3h3.8
					c-0.2-0.4-0.4-0.9-0.6-1.3c-3.8-8-3.9-17.8-0.3-29.3C41.3,225.5,40.8,225.6,40.3,225.9 M23.3,221.6c0.3,0.6,0.6,1.3,0.8,2
					c2.7,7.1,2.3,14.1-1,21c-1.8,3.9-3,7.6-3.4,11.4h3c0.4-4,1.6-8.2,3.4-12.4c3.3-7.6,3.6-15.3,1-23.1c-0.2-0.5-0.7-1.9-1.7-4.3
					c0,0-0.1,0-0.2,0.1c-1,0.5-1.7,1.2-2.1,2.3C22.8,219.6,22.8,220.6,23.3,221.6z"/>
			</g>
		</g>
	</g>
</g>
<g>
	<rect y="128" class="st0" width="64" height="64"/>
	<g transform="matrix( 1, 0, 0, 1, 0,0) ">
		<g>
			<g id="Layer0_40_FILL">
				<path class="st7" d="M48.1,152.4c-0.1,0-0.1-0.1-0.2-0.1c-0.9,2.3-1.5,3.8-1.7,4.3c-2.7,7.8-2.3,15.5,0.9,23.1
					c1.8,4.2,3,8.4,3.4,12.4h3c-0.4-3.7-1.6-7.5-3.4-11.4c-3.3-6.9-3.6-13.9-0.9-21c0.2-0.7,0.5-1.3,0.8-2c0.4-1,0.5-2.1,0.1-3
					C49.8,153.6,49.1,152.8,48.1,152.4 M18.2,144.2c-0.2-0.2-0.5-0.3-0.7-0.4c-1-0.4-2-0.4-3-0.1c-1,0.4-1.8,1.1-2.3,2.1
					c-3.5,7.9-3.4,15.4,0.2,22.5c3.3,6.5,3.5,13.5,0.8,21c-0.3,0.7-0.6,1.4-0.9,2c-0.1,0.2-0.2,0.4-0.3,0.6h7.4
					c1.2-6.4,0.2-13.1-3.1-19.9c-3.3-6.9-3.6-13.9-0.9-21C15.4,151,16.4,148.7,18.2,144.2 M34.4,135.4c-0.5-0.2-0.9-0.4-1.4-0.4
					c3.6,11.5,3.5,21.3-0.3,29.3c-3.6,7.6-4.2,15.8-1.7,24.6c0.2,0.8,0.5,1.6,0.8,2.4c0.1,0.2,0.2,0.5,0.3,0.7H37
					c-0.1-0.2-0.2-0.5-0.3-0.7c-0.3-0.8-0.6-1.6-0.9-2.4c-2.8-8.8-2.5-17,0.8-24.6c3.6-8.4,3.7-17.2,0.2-26.4
					C36.2,136.6,35.5,135.8,34.4,135.4z"/>
				<path class="st25" d="M47.9,152.3c-1-0.4-2-0.4-2.9,0c-1,0.4-1.8,1.1-2.3,2.1c-3.5,7.9-3.4,15.4,0.2,22.5
					c2.4,4.7,3.2,9.8,2.4,15.1h5.3c-0.4-4-1.6-8.2-3.4-12.4c-3.3-7.6-3.6-15.3-0.9-23.1C46.4,156.1,47,154.6,47.9,152.3 M19.5,149.1
					c0.4-1,0.5-2.1,0.1-3.1c-0.3-0.8-0.8-1.4-1.4-1.9c-1.8,4.5-2.8,6.8-2.8,6.9c-2.7,7.1-2.4,14.1,0.9,21c3.3,6.8,4.3,13.5,3.1,19.9
					h3.3c1.2-6.4,0.2-13.1-3-19.9c-3.3-6.9-3.6-13.9-1-21C18.9,150.4,19.2,149.7,19.5,149.1 M29.4,141.6c0.3,0.8,0.6,1.5,0.8,2.3
					c2.7,8.4,2.3,16.6-1,24.7c-3.3,8-4.3,15.8-3,23.4H32c-0.1-0.2-0.1-0.5-0.3-0.7c-0.3-0.8-0.6-1.6-0.8-2.4
					c-2.4-8.8-1.9-17,1.7-24.6c3.8-8,3.9-17.8,0.3-29.3c-0.5,0-1.1,0.1-1.6,0.4c-1,0.5-1.7,1.4-2.1,2.7
					C28.9,139.3,29,140.4,29.4,141.6z"/>
			</g>
		</g>
	</g>
</g>
<g>
	<rect x="192" y="128" class="st0" width="64" height="64"/>
	<g transform="matrix( 1, 0, 0, 1, 0,0) ">
		<g>
			<g id="Layer0_64_FILL">
				<path class="st2" d="M238.3,156.6c0.2-0.5,0.7-1.9,1.7-4.3c-1-0.4-2-0.4-2.9,0c-1,0.4-1.8,1.1-2.3,2.1
					c-3.5,7.9-3.4,15.4,0.2,22.5c2.4,4.7,3.2,9.8,2.4,15.1h5.3c-0.4-4-1.6-8.2-3.4-12.4C235.9,172,235.6,164.3,238.3,156.6
					 M211.6,146.1c-0.3-0.8-0.8-1.4-1.4-1.9c-1.8,4.5-2.8,6.8-2.8,6.9c-2.7,7.1-2.4,14.1,0.9,21c3.3,6.8,4.3,13.5,3.1,19.9h3.3
					c1.2-6.4,0.2-13.1-3-19.9c-3.3-6.9-3.6-13.9-1-21c0.2-0.7,0.5-1.4,0.8-2C211.9,148.1,212,147.1,211.6,146.1 M221.4,141.6
					c0.3,0.8,0.6,1.5,0.8,2.3c2.7,8.4,2.3,16.6-1,24.7c-3.3,8-4.3,15.8-3,23.4h5.8c-0.1-0.2-0.1-0.5-0.3-0.7
					c-0.3-0.8-0.6-1.6-0.8-2.4c-2.4-8.8-1.9-17,1.7-24.6c3.8-8,3.9-17.8,0.3-29.3c-0.5,0-1.1,0.1-1.6,0.4c-1,0.5-1.7,1.4-2.1,2.7
					C220.9,139.3,221,140.4,221.4,141.6z"/>
				<path class="st1" d="M239.9,152.3c-0.9,2.3-1.5,3.8-1.7,4.3c-2.7,7.8-2.3,15.5,0.9,23.1c1.8,4.2,3,8.4,3.4,12.4h3
					c-0.4-3.7-1.6-7.5-3.4-11.4c-3.3-6.9-3.6-13.9-0.9-21c0.2-0.7,0.5-1.3,0.8-2c0.4-1,0.5-2,0.1-3s-1.1-1.8-2.1-2.3
					C240,152.3,239.9,152.3,239.9,152.3 M210.2,144.2c-0.2-0.2-0.5-0.3-0.7-0.4c-1-0.4-2-0.5-3-0.1s-1.8,1.1-2.3,2.1
					c-3.5,7.9-3.4,15.4,0.2,22.5c3.3,6.5,3.5,13.5,0.8,21c-0.3,0.7-0.6,1.4-0.9,2c-0.1,0.2-0.2,0.4-0.3,0.6h7.4
					c1.2-6.4,0.2-13.1-3.1-19.9c-3.3-6.9-3.6-13.9-0.9-21C207.4,151,208.4,148.7,210.2,144.2 M226.4,135.4c-0.5-0.2-0.9-0.4-1.4-0.4
					c3.6,11.5,3.5,21.3-0.3,29.3c-3.6,7.6-4.2,15.8-1.7,24.6c0.2,0.8,0.5,1.6,0.8,2.4c0.1,0.2,0.2,0.5,0.3,0.7h4.9
					c-0.1-0.2-0.2-0.5-0.3-0.7c-0.3-0.8-0.6-1.6-0.9-2.4c-2.8-8.8-2.5-17,0.8-24.6c3.6-8.4,3.7-17.2,0.2-26.4
					C228.2,136.6,227.5,135.8,226.4,135.4z"/>
			</g>
		</g>
	</g>
</g>
<g>
	<rect x="192" y="192" class="st0" width="64" height="64"/>
	<g transform="matrix( 1, 0, 0, 1, 0,0) ">
		<g>
			<g id="Layer0_65_FILL">
				<path class="st1" d="M215.3,221.6c0.3,0.6,0.6,1.3,0.8,2c2.7,7.1,2.3,14.1-1,21c-1.8,3.9-3,7.7-3.4,11.4h3
					c0.4-4,1.6-8.2,3.4-12.4c3.3-7.6,3.6-15.3,1-23.1c-0.2-0.5-0.7-1.9-1.7-4.3c0,0-0.1,0-0.2,0.1c-1,0.5-1.7,1.2-2.1,2.3
					C214.8,219.6,214.8,220.6,215.3,221.6 M232.3,225.9c-1,0.4-1.8,1.2-2.3,2.4c-3.5,9.3-3.4,18.1,0.2,26.4c0.2,0.4,0.3,0.8,0.5,1.3
					h3.8c-0.2-0.4-0.4-0.8-0.6-1.3c-3.8-8-3.9-17.8-0.3-29.3C233.3,225.5,232.8,225.6,232.3,225.9z"/>
				<path class="st2" d="M222.6,218.4c-0.5-1-1.2-1.7-2.3-2.1c-0.9-0.4-1.9-0.4-2.9,0c0.9,2.3,1.5,3.8,1.7,4.3
					c2.7,7.8,2.3,15.5-1,23.1c-1.8,4.2-3,8.4-3.4,12.4h5.3c-0.9-5.3-0.1-10.4,2.3-15.1C226,233.8,226,226.3,222.6,218.4
					 M235.4,225.9c-0.5-0.3-1.1-0.4-1.6-0.4c-3.6,11.5-3.5,21.3,0.3,29.3c0.2,0.4,0.4,0.8,0.6,1.3h1.8c-2.2-7.1-2.2-14.3,0.2-21.6
					c0.2-0.8,0.5-1.5,0.8-2.3c0.4-1.2,0.5-2.4,0.1-3.6C237.1,227.3,236.4,226.4,235.4,225.9z"/>
			</g>
		</g>
	</g>
</g>
<g>
	<rect x="128" y="128" class="st0" width="64" height="64"/>
	<g transform="matrix( 1, 0, 0, 1, 0,0) ">
		<g>
			<g id="Layer0_76_FILL">
				<path class="st26" d="M172.8,192h0.8l6.5-13.7l0.1-0.1c0.2-0.4,0.2-0.8,0.2-1.1c-0.1-0.3-0.2-0.5-0.3-0.7
					c-0.1-0.1-0.2-0.3-0.3-0.4c-0.3-0.3-0.7-0.5-1.1-0.5l-7.3-1.5L172.8,192 M139.8,186.6c0.1,0.3,0.3,0.5,0.6,0.7l7.1,4.6h4.5
					l-4.3-10.1l-6.7,1.9c-0.5,0.1-0.9,0.4-1.2,0.9l0,0c-0.3,0.5-0.3,1-0.2,1.5C139.6,186.3,139.7,186.5,139.8,186.6z"/>
				<path class="st19" d="M171.5,173.9l-1.8-15.4c-0.1-0.4-0.2-0.8-0.5-1.1s-0.6-0.5-1-0.6s-0.8-0.1-1.2,0.1
					c-0.4,0.1-0.7,0.4-0.9,0.7l-8.8,12.4l-12.4-4.4c-0.5-0.2-1-0.2-1.5,0c-0.4,0.2-0.7,0.5-0.9,0.9c0,0.1-0.1,0.1-0.1,0.2
					c-0.2,0.5-0.2,1,0,1.5l5.3,13.8l4.3,10.1h20.8L171.5,173.9z"/>
			</g>
		</g>
	</g>
</g>
<g>
	<rect x="128" y="192" class="st0" width="64" height="64"/>
	<g transform="matrix( 1, 0, 0, 1, 0,0) ">
		<g>
			<g id="Layer0_77_FILL">
				<path class="st26" d="M159.5,227.7c-0.4,0.2-0.6,0.6-0.8,1l-4.3,13.8l16.7,13.5l2.9-7.9l0.1-0.4c0.2-0.5,0.2-1,0-1.4
					c0-0.1-0.1-0.1-0.1-0.1c-0.2-0.4-0.6-0.7-0.9-0.9c-0.5-0.2-1-0.3-1.5-0.1l-5.4,1.8l-3.7-18.1c-0.1-0.4-0.3-0.8-0.7-1.1
					c-0.3-0.3-0.7-0.5-1.2-0.5C160.3,227.3,159.9,227.4,159.5,227.7z"/>
				<path class="st19" d="M147,240c-0.5,0.2-0.8,0.5-1,0.9l0,0c-0.2,0.5-0.3,1-0.1,1.5l4,13.5h21.4l-16.7-13.5l-6-2.5
					C148,239.9,147.5,239.9,147,240z"/>
			</g>
		</g>
	</g>
</g>
<g>
	<rect x="64" y="128" class="st0" width="64" height="64"/>
	<g transform="matrix( 1, 0, 0, 1, 0,0) ">
		<g>
			<g id="Layer0_80_FILL">
				<path class="st24" d="M81.5,143.8c-1-0.4-2-0.4-3,0s-1.8,1.1-2.3,2.1c-3.5,7.9-3.4,15.4,0.2,22.5c3.3,6.5,3.5,13.5,0.8,21
					c-0.3,0.7-0.6,1.4-0.9,2c-0.1,0.2-0.2,0.4-0.3,0.6h10.7c1.2-6.4,0.2-13.1-3-19.9c-3.3-6.9-3.6-13.9-1-21c0.2-0.7,0.5-1.4,0.8-2
					c0.4-1,0.5-2.1,0.1-3.1c-0.3-0.8-0.8-1.4-1.4-1.8C82,144,81.7,143.9,81.5,143.8 M112.1,152.4c-0.1,0-0.1-0.1-0.2-0.1
					c-1-0.4-2-0.4-2.9,0c-1,0.4-1.8,1.1-2.3,2.1c-3.5,7.9-3.4,15.4,0.2,22.5c2.4,4.7,3.2,9.8,2.4,15.1h8.3
					c-0.4-3.7-1.6-7.5-3.4-11.4c-3.3-6.9-3.6-13.9-0.9-21c0.2-0.7,0.5-1.3,0.8-2c0.4-1,0.5-2,0.1-3
					C113.8,153.6,113.1,152.8,112.1,152.4 M93.3,138c-0.4,1.2-0.3,2.4,0.1,3.6c0.3,0.8,0.6,1.5,0.8,2.3c2.7,8.4,2.3,16.6-1,24.7
					c-3.3,8-4.3,15.8-3,23.4h10.7c-0.1-0.2-0.2-0.5-0.3-0.7c-0.3-0.8-0.6-1.6-0.9-2.4c-2.8-8.8-2.5-17,0.8-24.6
					c3.6-8.4,3.7-17.2,0.2-26.5c-0.5-1.2-1.2-2-2.3-2.4c-0.5-0.2-0.9-0.4-1.4-0.4s-1.1,0.1-1.6,0.4C94.4,135.9,93.7,136.8,93.3,138z
					"/>
			</g>
		</g>
	</g>
</g>
<g>
	<rect x="64" y="192" class="st0" width="64" height="64"/>
	<g transform="matrix( 1, 0, 0, 1, 0,0) ">
		<g>
			<g id="Layer0_81_FILL">
				<path class="st24" d="M107.4,225.9c-0.5-0.3-1.1-0.4-1.6-0.4s-1,0.1-1.5,0.4c-1,0.4-1.8,1.3-2.3,2.4c-3.5,9.3-3.4,18.1,0.2,26.5
					c0.2,0.4,0.3,0.8,0.5,1.3h5.6c-2.2-7.1-2.2-14.3,0.2-21.5c0.2-0.8,0.5-1.5,0.8-2.3c0.4-1.2,0.5-2.4,0.1-3.6
					C109.1,227.3,108.4,226.4,107.4,225.9 M89.4,216.3c0,0-0.1,0-0.2,0.1c-1,0.5-1.7,1.2-2.1,2.3c-0.4,1-0.3,2,0.1,3
					c0.3,0.6,0.6,1.3,0.8,2c2.7,7.1,2.3,14.1-1,21c-1.8,3.9-3,7.7-3.4,11.4H92c-0.9-5.3-0.1-10.4,2.3-15.1
					c3.6-7.1,3.7-14.6,0.2-22.5c-0.5-1-1.2-1.7-2.3-2.1C91.4,215.9,90.4,215.9,89.4,216.3z"/>
			</g>
		</g>
	</g>
</g>
<g>
	<rect x="256" y="128" class="st0" width="64" height="64"/>
	<g transform="matrix( 1, 0, 0, 1, 0,0) ">
		<g>
			<g id="Layer0_88_FILL">
				<path class="st27" d="M278.2,176.6l-10,3.8c-0.2,0-0.4,0.1-0.5,0.3c-0.2,0.2-0.3,0.4-0.4,0.5l-0.7,1.8l13.3-2L278.2,176.6
					 M295.6,167.6l2.9-7.5c-0.3-0.1-0.6-0.1-0.8-0.1l-13.7,2.5c-0.3,0-0.5,0.1-0.8,0.4h-0.1l4.3,4.8L295.6,167.6L295.6,167.6z"/>
				<path class="st28" d="M287.5,167.6l-4.3-4.8c-0.2,0.2-0.4,0.4-0.4,0.6l-4.6,13.1l1.7,4.5L287.5,167.6 M298.5,160.1l-2.9,7.5
					l6.7,3.2l-2.7-9.6c-0.1-0.4-0.4-0.7-0.7-1C298.7,160.2,298.6,160.1,298.5,160.1 M312.5,183.9l-7.5-3.3l-9.2-3.9v3.3l17.7,10
					v-4.5c0-0.3-0.1-0.6-0.3-0.9C313,184.2,312.8,184,312.5,183.9z"/>
				<path class="st29" d="M313.5,192.4v-2.5l-17.7-10v-3.3l9.2,3.9l-2.8-9.7l-6.7-3.2h-8.1l-7.7,13.5l-13.3,2l-4,9.3H313.5
					 M289.6,187.9l1.9-1.1l1.1,1.9l-1.9,1.1L289.6,187.9 M289.6,184.1l-4.1,2.5l-2.4-4.1l4.1-2.5L289.6,184.1 M292.2,185.5l-1.7-2.9
					l3-1.7l1.7,2.9L292.2,185.5z"/>
				<path class="st30" d="M290.4,182.6l1.7,2.9l2.9-1.7l-1.7-2.9L290.4,182.6 M285.5,186.6l4.1-2.5l-2.4-4.1l-4.1,2.5L285.5,186.6
					 M291.5,186.8l-1.9,1.1l1.1,1.9l1.9-1.1L291.5,186.8z"/>
			</g>
		</g>
	</g>
</g>
<g>
	<rect x="256" y="192" class="st0" width="64" height="64"/>
	<g transform="matrix( 1, 0, 0, 1, 0,0) ">
		<g>
			<g id="Layer0_89_FILL">
				<path class="st27" d="M297.2,247.5l6,1.1l0.7-4.9l-8.3,1.5L297.2,247.5 M279.3,226l2,6.6l12.4,6.7l1.1-9.3l-14.2-4
					C280.1,225.9,279.7,225.9,279.3,226z"/>
				<path class="st28" d="M299.2,231.8c-0.3-0.5-0.7-0.8-1.2-0.9l-3.3-0.9l-1.1,9.3l7.3-4.8L299.2,231.8 M306.4,243.4l-2.5,0.4
					l-0.7,4.9l10,1.7l1-2.5c0.2-0.3,0.2-0.7,0.2-1.1c-0.1-0.4-0.3-0.7-0.5-1c-0.3-0.3-0.6-0.5-1-0.6L306.4,243.4 M261.7,245.8
					c0,0.1,0,0.3,0,0.5l19.6-13.6l-2-6.6c-0.4,0.1-0.7,0.3-0.9,0.6l-16.3,17.9C261.9,244.9,261.7,245.3,261.7,245.8z"/>
				<path class="st29" d="M261.9,247l5.2,9h43.8l2.3-5.7l-10-1.7l-6-1.1l-1.6-2.3l8.3-1.5l2.5-0.4l-5.5-8.9l-7.3,4.8l-12.4-6.7
					l-19.6,13.6C261.7,246.5,261.7,246.7,261.9,247 M267.5,252.5l-1.8-3l3-1.7l1.8,3L267.5,252.5 M289.9,245.3l-1.7-2.9l2.9-1.7
					l1.8,3L289.9,245.3 M290.3,248.5l-1.8,1.1l-1-1.9l1.9-1.1L290.3,248.5z"/>
				<path class="st30" d="M288.5,249.5l1.8-1.1l-1-1.9l-1.9,1.1L288.5,249.5 M288.3,242.4l1.7,2.9l3-1.7l-1.8-3L288.3,242.4
					 M265.7,249.5l1.8,3l3-1.7l-1.8-3L265.7,249.5z"/>
			</g>
		</g>
	</g>
</g>
<g transform="matrix( 1, 0, 0, 1, 0,0) ">
	<g>
		<g id="Layer0_98_FILL">
			<path class="st24" d="M64,320v-64H0v64H64z"/>
		</g>
	</g>
</g>
<g>
	<rect x="128" y="256" class="st0" width="64" height="64"/>
	<g transform="matrix( 1, 0, 0, 1, 0,0) ">
		<g>
			<g id="Layer0_118_MEMBER_2_MEMBER_0_FILL">
				<path class="st31" d="M150.2,284c1.6-1.6,1.6-3.1,0-4.7l-5.1-5c-1.6-1.6-3.3-1.6-4.8,0l-5.2,5c-1.6,1.6-1.6,3.1,0,4.7l5.2,5
					c1.6,1.6,3.2,1.6,4.8,0L150.2,284z"/>
			</g>
		</g>
	</g>
	<g transform="matrix( 1, 0, 0, 1, 0,0) ">
		<g>
			<g id="Layer0_118_MEMBER_2_MEMBER_1_FILL">
				<path class="st20" d="M186.1,285.6c-6.7,2.7-13.4,2.5-20.2-0.6c-0.2-0.1-0.4-0.3-0.7-0.4c-7.4-3.7-14.9-3.8-22.5-0.3
					c0,0.1,0,0.2,0,0.3c-0.2,1.2-0.3,2.4-0.3,3.7c0,6.1,2.1,11.2,6.4,15.5c4.3,4.3,9.5,6.5,15.6,6.5s11.2-2.1,15.5-6.5
					c3.7-3.7,5.8-8.1,6.3-13.2c0.1-0.8,0.1-1.5,0.1-2.3C186.3,287.4,186.2,286.5,186.1,285.6z"/>
				<path class="st32" d="M186.1,285.6c-0.6-4.9-2.7-9.2-6.3-12.8c-2.8-2.8-6-4.7-9.6-5.7c-1.9-0.5-3.9-0.8-5.9-0.8
					c-6.1,0-11.3,2.1-15.6,6.4c-3.3,3.3-5.3,7.1-6,11.5c7.6-3.4,15.1-3.3,22.5,0.3c0.3,0.1,0.5,0.2,0.7,0.4
					C172.7,288.1,179.4,288.3,186.1,285.6z"/>
			</g>
		</g>
	</g>
	<g transform="matrix( 1, 0, 0, 1, 0,0) ">
		<g>
			<g id="Layer0_118_MEMBER_2_MEMBER_2_FILL">
				<path class="st31" d="M167.8,285.2v-5.8c0-0.2-0.1-0.4-0.2-0.6c-0.1-0.2-0.3-0.3-0.5-0.3c-2.8-1-5.7-1.3-8.4-0.9
					c-0.2,0-0.4,0.1-0.5,0.2s-0.2,0.2-0.3,0.4c-1.8,4.2-1.8,8.4,0,12.6c0.1,0.2,0.3,0.4,0.5,0.6c0.2,0.1,0.5,0.1,0.8,0
					c3.1-1,5.9-2.9,8.4-5.5C167.8,285.7,167.8,285.5,167.8,285.2z"/>
			</g>
		</g>
	</g>
	<g transform="matrix( 1, 0, 0, 1, 0,0) ">
		<g>
			<g id="Layer0_118_MEMBER_5_FILL">
				<path class="st31" d="M154.3,269.5c-0.1-0.2-0.2-0.3-0.3-0.3l-4.2-2.1c-0.1-0.1-0.3-0.1-0.4,0c-0.1,0-0.3,0-0.4,0.1
					c-0.1,0.1-0.1,0.3-0.2,0.5c0,0.1,0,0.3,0.1,0.4l2.1,4.1c0.1,0.2,0.2,0.3,0.3,0.4c0.2,0.1,0.3,0.1,0.5,0.1
					c1.5-0.4,2.4-1.3,2.5-2.7C154.4,269.7,154.4,269.6,154.3,269.5z"/>
			</g>
		</g>
	</g>
	<g>
		<g id="Layer0_118_MEMBER_0_FILL">
			<path class="st33" d="M166.1,308.2c-0.1-0.1-0.2-0.3-0.3-0.4c-1.3-0.8-2.5-0.8-3.7,0.1c-0.1,0.1-0.2,0.2-0.3,0.3
				c0,0.2,0,0.3,0,0.5l1.4,4.4c0,0.1,0.1,0.3,0.3,0.4c0.1,0.1,0.2,0.1,0.4,0.1c0.1,0,0.3,0,0.4-0.1c0.1-0.1,0.2-0.2,0.3-0.4l1.4-4.4
				C166.1,308.5,166.1,308.3,166.1,308.2z"/>
		</g>
	</g>
	<g>
		<g id="Layer0_118_MEMBER_1_FILL">
			<path class="st31" d="M163.2,262.7c-0.1,0.1-0.2,0.2-0.3,0.3l-1.4,4.5c0,0.1,0,0.3,0.1,0.5c0,0.1,0.1,0.2,0.2,0.3
				c1.1,0.9,2.3,0.9,3.7,0c0.1-0.1,0.2-0.2,0.3-0.3c0-0.2,0-0.3,0-0.5l-1.4-4.4c-0.1-0.1-0.2-0.3-0.3-0.3c-0.2-0.1-0.3-0.2-0.4-0.2
				C163.4,262.5,163.3,262.6,163.2,262.7z"/>
		</g>
	</g>
	<g>
		<g id="Layer0_118_MEMBER_2_MEMBER_1_MEMBER_0_FILL">
			<path class="st31" d="M175.9,277.9c-0.3,0.4-0.5,0.8-0.5,1.2c0,0.5,0.2,0.9,0.5,1.3c0.4,0.4,0.8,0.6,1.3,0.6s0.9-0.2,1.2-0.6
				c0.4-0.4,0.6-0.8,0.6-1.3c0-0.4-0.2-0.8-0.6-1.2c-0.3-0.4-0.7-0.6-1.2-0.6S176.3,277.5,175.9,277.9z"/>
		</g>
	</g>
	<g>
		<g id="Layer0_118_MEMBER_3_FILL">
			<path class="st33" d="M176.8,303.8c0,0.1,0,0.3,0.1,0.4c0.1,0.2,0.2,0.3,0.3,0.3l4.2,2.1c0.1,0.1,0.3,0.1,0.4,0.1
				c0.1,0,0.3,0,0.4-0.1c0.1-0.1,0.1-0.3,0.2-0.5c0-0.1,0-0.3-0.1-0.4l-2.1-4.1c-0.1-0.2-0.2-0.3-0.3-0.3c-0.2-0.1-0.3-0.1-0.4-0.1
				C177.8,301.5,176.9,302.4,176.8,303.8z"/>
		</g>
	</g>
	<g>
		<g id="Layer0_118_MEMBER_4_FILL">
			<path class="st33" d="M144.1,304.1c0,0.1,0,0.3,0.1,0.4s0.3,0.1,0.5,0.2c0.1,0,0.3,0,0.4-0.1l4.1-2.1c0.2-0.1,0.3-0.2,0.3-0.3
				c0.1-0.2,0.1-0.3,0.1-0.5c-0.4-1.5-1.2-2.4-2.6-2.5c-0.1,0-0.3,0-0.4,0c-0.2,0.1-0.3,0.2-0.3,0.3l-2.1,4.2
				C144.1,303.8,144.1,303.9,144.1,304.1z"/>
		</g>
	</g>
	<g>
		<g id="Layer0_118_MEMBER_6_FILL">
			<path class="st31" d="M179.4,267.1c-0.1-0.1-0.3-0.1-0.4-0.1c-0.2,0-0.3,0-0.5,0l-4.2,2.1c-0.1,0.1-0.2,0.2-0.3,0.3
				c-0.1,0.1-0.1,0.2-0.1,0.3c0.2,1.4,1,2.3,2.6,2.7c0.1,0,0.3,0,0.4-0.1c0.1-0.1,0.2-0.2,0.3-0.4l2.2-4.1c0-0.1,0-0.3,0-0.4
				C179.6,267.4,179.5,267.2,179.4,267.1z"/>
		</g>
	</g>
</g>
<g transform="matrix( 1, 0, 0, 1, 0,0) ">
	<g>
		<g id="Layer0_94_FILL">
			<path class="st20" d="M118.2,384h9.8v-22.8c-3,4.3-5.4,9.4-7.3,15.3C120.1,379.2,119.2,381.7,118.2,384 M64,361.3V384h10.3
				c4.7-10.3,11.7-17.6,21-21.9c-0.5-1.3-0.8-2.9-0.9-4.6c-0.1-1.1,0-2.1,0.3-3c0.7-1.9,2.2-2.6,4.5-2.2c0-0.1,0.1-0.1,0.1-0.1
				c0.1-0.1,0.1-0.1,0.2-0.1h0.1c0,0,0.1,0,0.1,0.1l0.5,0.1c0,0,0.1,0,0.1,0.1c0.2-0.1,0.5-0.2,0.7-0.3c0.9-0.5,1.7-0.6,2.6-0.4
				c1,0.2,1.7,0.7,2.3,1.6c0.3,0.2,0.5,0.5,0.6,0.8h0.1c0.1,0,0.1,0,0.2,0l0.6,0.2c0,0,0.1,0,0.1,0.1s0,0.1,0,0.2
				c1.4,0.5,2.3,1.3,2.7,2.3c7.6-3.3,13.5-7.8,17.9-13.6V320h-9.8c-0.6,1.5-1.3,2.9-2.1,4.2c-5.5,9.6-14.7,16.4-27.5,20.3l0.1,0.1
				C78.2,347.2,69.9,352.8,64,361.3 M77.2,365.4l1.6,4.6l-4.6,1.5l-1.6-4.6L77.2,365.4 M109.3,342.1l1.9-5.1l5.1,2l-1.9,5.1
				L109.3,342.1 M66.8,339c2-3.5,3.6-7.4,4.7-11.7c0.8-2.6,1.7-5,2.8-7.3H64v23.1C65,341.8,65.9,340.4,66.8,339z"/>
			<path class="st7" d="M102.9,368.4c0.3-0.3,0.5-0.6,0.6-1c-2.7,0.1-5.2-0.5-7.5-2c-0.1,0.4-0.1,0.8,0.1,1.2
				c0.1,0.4,0.3,0.6,0.5,0.7l5.5,1.5C102.4,368.8,102.6,368.7,102.9,368.4 M100.9,352c-0.2,0.1-0.5,0.2-0.7,0.3c0,0,0.1,0.1,0.1,0.2
				l-0.6,2.9l0,0c-0.2,0.9-0.3,1.6-0.4,2.1c-0.2,0.6-0.4,0.9-0.6,0.8c-0.3-0.1-0.3-1,0-2.9c0.2-1.7,0.4-2.7,0.5-3.2
				c-2.4-0.4-3.9,0.3-4.5,2.2c-0.4,1-0.5,2-0.3,3c0.2,1.8,0.5,3.3,0.9,4.6c0.3,0.9,0.7,1.7,1.2,2.4c2.2,1.3,4.6,2,7.3,2
				c1.9-1,3.6-2.7,5.3-5c0.7-0.9,1.1-1.8,1.3-2.9c0.1-0.7,0.1-1.3-0.2-1.8c-0.4-1-1.3-1.8-2.7-2.3c-0.1,0.5-0.5,1.5-1.1,3
				c-0.1,0.3-0.3,0.6-0.4,0.9c-0.5,1.1-0.9,1.7-1.1,1.6h-0.1c-0.2-0.1-0.2-0.4,0-1c0-0.1,0-0.1,0.1-0.2c0.1-0.5,0.3-1.1,0.5-1.9l0,0
				l1.1-2.8c0-0.1,0-0.1,0-0.1c-0.2-0.3-0.4-0.5-0.6-0.8c-0.6-0.8-1.3-1.4-2.3-1.6C102.7,351.4,101.8,351.5,100.9,352z"/>
			<path class="st6" d="M103.6,366.6c0.1,0,0.1-0.1,0.1-0.1c-2.7,0-5.1-0.6-7.3-2c-0.2,0.2-0.3,0.5-0.3,0.7c0,0,0,0.1-0.1,0.1
				c2.3,1.5,4.8,2.1,7.5,2l0.1-0.1C103.6,367,103.6,366.8,103.6,366.6z"/>
			<path class="st34" d="M106.5,354L106.5,354c-0.1,0-0.1,0.1-0.1,0.1l-1.1,2.8l0,0c-0.3,0.8-0.4,1.4-0.5,1.9c0,0.1,0,0.1-0.1,0.2
				c-0.2,0.6-0.2,0.9,0,1h0.1c0.2,0.1,0.6-0.5,1.1-1.6c0.1-0.3,0.3-0.6,0.4-0.9c0.6-1.5,1-2.5,1.1-3c0-0.1,0-0.1,0-0.2
				s-0.1-0.1-0.1-0.1l-0.6-0.2C106.6,354,106.6,354,106.5,354 M100.3,352.3C100.2,352.2,100.2,352.2,100.3,352.3l-0.6-0.2
				c-0.1,0-0.1-0.1-0.1-0.1h-0.1c-0.1,0-0.1,0-0.2,0.1l-0.1,0.1c-0.2,0.5-0.3,1.5-0.5,3.2c-0.2,1.9-0.2,2.8,0,2.9s0.4-0.2,0.6-0.8
				c0.1-0.5,0.3-1.2,0.4-2.1l0,0l0.6-2.9C100.3,352.4,100.3,352.3,100.3,352.3z"/>
			<path class="st21" d="M96.4,364.5c-0.5-0.7-0.8-1.5-1.2-2.4c-9.3,4.3-16.3,11.6-21,21.9h43.9c1-2.3,1.9-4.8,2.6-7.5
				c1.8-5.8,4.3-10.9,7.3-15.3v-18.1c-4.4,5.8-10.3,10.3-17.9,13.6c0.2,0.5,0.3,1.1,0.2,1.8c-0.2,1.1-0.6,2-1.3,2.9
				c-1.7,2.4-3.4,4-5.3,5c0,0,0,0.1-0.1,0.1c0,0.2,0,0.4,0,0.6c0,0,0,0.1-0.1,0.1c-0.1,0.4-0.3,0.8-0.6,1c-0.3,0.3-0.5,0.4-0.8,0.3
				l-5.5-1.5c-0.3-0.1-0.4-0.3-0.5-0.7c-0.1-0.4-0.1-0.8-0.1-1.2l0.1-0.1C96.1,365,96.2,364.8,96.4,364.5 M111.2,337l-1.9,5.1l5.2,2
				l1.9-5.1L111.2,337 M78.8,370l-1.6-4.6l-4.6,1.6l1.6,4.6L78.8,370 M71.4,327.3c-1.1,4.3-2.7,8.2-4.7,11.7
				c-0.8,1.4-1.8,2.8-2.8,4.1v18.1c5.9-8.5,14.2-14,24.7-16.6l-0.1-0.1c12.8-3.9,21.9-10.7,27.5-20.3c0.8-1.3,1.5-2.7,2.1-4.2H74.3
				C73.2,322.3,72.3,324.7,71.4,327.3z"/>
		</g>
	</g>
</g>
<g transform="matrix( 1, 0, 0, 1, 0,0) ">
	<g>
		<g id="Layer0_95_FILL">
			<path class="st20" d="M135.4,327.3c0.8-2.6,1.7-5,2.8-7.3H128v23.1c1-1.3,1.9-2.7,2.8-4.1C132.8,335.5,134.3,331.6,135.4,327.3
				 M192,384v-22.8c-3,4.3-5.4,9.4-7.3,15.3c-0.7,2.7-1.5,5.2-2.6,7.5H192 M182.2,320c-0.6,1.5-1.4,2.9-2.1,4.2
				c-1.9,3.2-4.1,6.2-6.8,8.8l1.9-0.4c0.5-0.1,1-0.1,1.5,0.1c0.5,0.3,0.9,0.6,1.1,1.1c0.3,0.4,0.3,0.9,0.2,1.5
				c-0.1,0.5-0.4,0.9-0.8,1.3l-4.3,3.6l2.8,5c0.3,0.5,0.4,1,0.3,1.5c-0.1,0.5-0.3,0.9-0.7,1.3s-0.9,0.6-1.4,0.6
				c-0.5,0.1-1,0-1.4-0.3l-4.8-3.1l-3.9,4.2c-0.4,0.4-0.8,0.6-1.4,0.7c-0.5,0.1-1,0-1.5-0.3c-0.5-0.2-0.8-0.6-1-1.1s-0.3-1-0.1-1.5
				l1.4-5.5l-0.5-0.3c-2.4,1.2-5.1,2.2-7.9,3v0.1c-10.5,2.6-18.7,8.1-24.6,16.6V384h10.3c6-13.1,15.8-21.4,29.4-24.8h-0.1
				c10.7-3.3,18.9-8.7,24.4-16.1V320H182.2 M183,333.3l3.9,3.8l-3.8,4l-3.9-3.8L183,333.3 M165.3,352l-1.9,5.1l-5.1-2l1.9-5.1
				L165.3,352 M147.5,362.8l-1.6-4.6l4.6-1.6l1.6,4.7L147.5,362.8 M133.9,374.2l3.2-4.4l4.3,3.1l-3.1,4.4L133.9,374.2z"/>
			<path class="st21" d="M192,361.3v-18.1c-5.6,7.4-13.7,12.7-24.4,16.1h0.1c-13.6,3.4-23.4,11.6-29.4,24.8h43.9
				c1-2.3,1.9-4.8,2.6-7.5C186.6,370.7,189,365.6,192,361.3 M137.1,369.9l-3.2,4.4l4.4,3.2l3.1-4.4L137.1,369.9 M145.9,358.1
				l1.6,4.6l4.6-1.5l-1.6-4.7L145.9,358.1 M163.4,357.1l1.9-5.1l-5.1-2l-1.9,5.1L163.4,357.1 M186.9,337l-3.9-3.8l-3.8,4l3.9,3.8
				L186.9,337 M180.1,324.2c0.8-1.3,1.5-2.7,2.1-4.2h-43.9c-1.1,2.3-2,4.7-2.8,7.3c-1.1,4.3-2.7,8.2-4.7,11.7
				c-0.8,1.4-1.8,2.8-2.8,4.1v18.1c5.9-8.5,14.1-14,24.6-16.6v-0.1c2.8-0.9,5.5-1.9,7.9-3l-4.6-2.1c-0.5-0.2-0.9-0.6-1.1-1.1
				c-0.3-0.5-0.4-0.9-0.3-1.4c0.1-0.5,0.4-1,0.8-1.4c0.4-0.3,0.9-0.5,1.4-0.5l5.7-0.5l0.8-5.6c0-0.5,0.2-1,0.6-1.4
				c0.4-0.4,0.9-0.6,1.4-0.7s1,0.1,1.5,0.4c0.4,0.3,0.8,0.6,1,1.1l2,5.3l3.6-0.6C175.9,330.4,178.2,327.4,180.1,324.2z"/>
			<path class="st19" d="M165.1,326.9c-0.5,0.1-0.9,0.3-1.4,0.7c-0.4,0.4-0.6,0.8-0.6,1.4l-0.8,5.6l-5.7,0.5c-0.5,0-1,0.2-1.4,0.5
				c-0.4,0.4-0.6,0.9-0.8,1.4c-0.1,0.5,0,0.9,0.3,1.4c0.2,0.5,0.6,0.9,1.1,1.1l4.6,2.1l0.5,0.3l-1.4,5.5c-0.1,0.5-0.1,1,0.1,1.5
				c0.2,0.5,0.5,0.8,1,1.1c0.5,0.3,1,0.4,1.5,0.3s1-0.3,1.4-0.7l3.9-4.2l4.8,3.1c0.4,0.3,0.9,0.4,1.4,0.3c0.5,0,1-0.2,1.4-0.6
				s0.6-0.8,0.7-1.3c0.1-0.5,0-1-0.3-1.5l-2.8-5l4.3-3.6c0.4-0.4,0.7-0.8,0.8-1.3s0.1-1-0.2-1.5c-0.2-0.5-0.6-0.9-1.1-1.1
				s-1-0.3-1.5-0.1l-1.9,0.4l-3.6,0.6l-2-5.3c-0.2-0.5-0.6-0.8-1-1.1C166.1,326.9,165.6,326.8,165.1,326.9 M164.6,329.8
				c0.2-0.3,0.5-0.4,0.8-0.4s0.6,0.1,0.9,0.3c0.3,0.2,0.4,0.5,0.4,0.8c0.1,0.3,0,0.6-0.3,0.9c-0.2,0.3-0.5,0.5-0.8,0.5
				s-0.6-0.1-0.9-0.3c-0.2-0.2-0.4-0.4-0.4-0.8S164.4,330.1,164.6,329.8 M165.8,332.6c0.4,0,0.8,0.1,1.1,0.3c0.3,0.3,0.5,0.6,0.6,1
				s0,0.8-0.3,1.1c-0.3,0.4-0.6,0.6-1,0.6c-0.4,0.1-0.8,0-1.1-0.3s-0.5-0.6-0.6-1.1c0-0.4,0.1-0.8,0.4-1.1
				C165,332.9,165.4,332.7,165.8,332.6 M171.3,337.7c-0.3-0.2-0.5-0.6-0.6-1c0-0.4,0.1-0.8,0.4-1.2c0.2-0.3,0.6-0.5,0.9-0.5
				c0.4,0,0.8,0.1,1.2,0.3c0.3,0.3,0.5,0.6,0.6,1.1c0.1,0.4,0,0.8-0.3,1.1c-0.3,0.3-0.6,0.5-1,0.5
				C171.9,338.1,171.6,338,171.3,337.7 M175.1,333.9c0.3,0,0.6,0.1,0.8,0.3c0.3,0.2,0.4,0.5,0.5,0.8c0,0.3,0,0.6-0.3,0.9
				c-0.2,0.3-0.4,0.4-0.8,0.5c-0.3,0.1-0.6,0-0.9-0.2c-0.2-0.2-0.4-0.5-0.4-0.8c-0.1-0.3,0-0.6,0.1-0.9
				C174.5,334.1,174.8,333.9,175.1,333.9 M174.3,345.6c0,0.3-0.1,0.6-0.3,0.9s-0.4,0.4-0.8,0.5c-0.3,0.1-0.7,0-0.9-0.3
				c-0.2-0.2-0.4-0.5-0.4-0.8c-0.1-0.3,0-0.6,0.2-0.9c0.3-0.2,0.6-0.4,0.9-0.5c0.3,0,0.6,0,0.8,0.3C174,345,174.2,345.3,174.3,345.6
				 M170.8,345c-0.4,0-0.8-0.1-1.1-0.4s-0.5-0.6-0.6-1c0-0.4,0.1-0.8,0.3-1.1c0.3-0.3,0.6-0.5,1-0.5c0.4-0.1,0.8,0,1.1,0.3
				c0.4,0.3,0.6,0.6,0.6,1c0.1,0.4-0.1,0.8-0.3,1.1S171.2,344.9,170.8,345 M162.9,343.4c0.3-0.3,0.6-0.5,1-0.6
				c0.4,0,0.8,0.1,1.1,0.3c0.4,0.3,0.6,0.6,0.6,1.1c0.1,0.4,0,0.8-0.3,1.1c-0.3,0.4-0.6,0.6-1.1,0.6c-0.4,0.1-0.8,0-1.1-0.3
				s-0.5-0.6-0.6-1C162.5,344.1,162.6,343.7,162.9,343.4 M162.1,346c0.3-0.1,0.6,0,0.9,0.2c0.3,0.2,0.4,0.5,0.5,0.9
				c0,0.3-0.1,0.6-0.3,0.9s-0.5,0.4-0.8,0.5c-0.3,0-0.6-0.1-0.8-0.3c-0.3-0.2-0.5-0.5-0.5-0.8c-0.1-0.3,0-0.6,0.3-0.9
				C161.6,346.1,161.8,346,162.1,346 M156.1,337.5c-0.1-0.3,0-0.6,0.2-0.9s0.5-0.4,0.9-0.5c0.3,0,0.6,0.1,0.8,0.3
				c0.3,0.2,0.4,0.5,0.5,0.8c0,0.3,0,0.6-0.3,0.9c-0.2,0.3-0.5,0.4-0.8,0.4s-0.6,0-0.9-0.3S156.1,337.8,156.1,337.5 M160.4,336.5
				c0.4-0.1,0.8,0,1.2,0.3c0.3,0.3,0.5,0.6,0.5,1c0.1,0.4,0,0.8-0.3,1.1c-0.3,0.3-0.6,0.5-1.1,0.6c-0.4,0.1-0.8,0-1.1-0.3
				c-0.3-0.2-0.5-0.6-0.6-1c0-0.4,0.1-0.8,0.3-1.2C159.6,336.8,159.9,336.6,160.4,336.5z"/>
			<path class="st35" d="M161.6,336.8c-0.4-0.2-0.8-0.3-1.2-0.3c-0.4,0.1-0.8,0.3-1,0.5c-0.3,0.3-0.4,0.7-0.3,1.2
				c0.1,0.4,0.3,0.8,0.6,1c0.3,0.3,0.7,0.4,1.1,0.3c0.4-0.1,0.8-0.3,1.1-0.6c0.2-0.3,0.3-0.7,0.3-1.1
				C162,337.4,161.8,337,161.6,336.8 M156.3,336.6c-0.2,0.3-0.3,0.6-0.2,0.9c0,0.3,0.2,0.6,0.4,0.8s0.6,0.3,0.9,0.3s0.6-0.2,0.8-0.4
				c0.2-0.3,0.3-0.6,0.3-0.9c-0.1-0.3-0.2-0.6-0.5-0.8c-0.2-0.2-0.5-0.3-0.8-0.3C156.8,336.2,156.5,336.3,156.3,336.6 M163,346.1
				c-0.2-0.2-0.5-0.3-0.9-0.2c-0.3,0-0.6,0.2-0.8,0.4c-0.2,0.3-0.3,0.6-0.3,0.9s0.2,0.6,0.5,0.8c0.2,0.2,0.5,0.3,0.8,0.3
				c0.3-0.1,0.6-0.2,0.8-0.5c0.2-0.2,0.3-0.5,0.3-0.9C163.4,346.7,163.3,346.4,163,346.1 M163.9,342.8c-0.4,0.1-0.7,0.3-1,0.6
				c-0.2,0.3-0.3,0.7-0.3,1.1c0.1,0.4,0.3,0.7,0.6,1s0.7,0.4,1.1,0.3c0.4,0,0.8-0.2,1.1-0.6c0.3-0.3,0.4-0.7,0.3-1.1
				c0-0.4-0.2-0.8-0.6-1.1C164.7,342.8,164.3,342.7,163.9,342.8 M169.7,344.6c0.3,0.3,0.7,0.4,1.1,0.4c0.4-0.1,0.8-0.3,1-0.6
				c0.3-0.3,0.4-0.7,0.3-1.1c0-0.4-0.2-0.8-0.6-1c-0.3-0.3-0.7-0.4-1.1-0.3c-0.4,0-0.7,0.2-1,0.5c-0.2,0.3-0.3,0.7-0.3,1.1
				C169.2,344,169.4,344.4,169.7,344.6 M174,346.5c0.2-0.3,0.3-0.6,0.3-0.9c-0.1-0.3-0.2-0.6-0.5-0.8c-0.2-0.2-0.5-0.3-0.8-0.3
				c-0.3,0.1-0.6,0.2-0.9,0.5c-0.2,0.3-0.2,0.6-0.2,0.9s0.2,0.6,0.4,0.8c0.3,0.2,0.6,0.3,0.9,0.3C173.6,346.9,173.8,346.8,174,346.5
				 M175.9,334.1c-0.2-0.2-0.5-0.3-0.8-0.3c-0.3,0.1-0.6,0.2-0.9,0.5c-0.2,0.2-0.2,0.5-0.1,0.9c0,0.3,0.2,0.6,0.4,0.8
				c0.3,0.2,0.6,0.3,0.9,0.2c0.3,0,0.6-0.2,0.8-0.5s0.3-0.6,0.3-0.9C176.4,334.6,176.2,334.3,175.9,334.1 M170.6,336.7
				c0.1,0.4,0.3,0.8,0.6,1c0.3,0.3,0.7,0.4,1.1,0.3c0.4,0,0.8-0.2,1-0.5c0.3-0.3,0.4-0.7,0.3-1.1c0-0.4-0.2-0.8-0.6-1.1
				c-0.4-0.2-0.8-0.3-1.2-0.3c-0.4,0.1-0.7,0.3-0.9,0.5C170.7,335.9,170.6,336.3,170.6,336.7 M166.9,332.9c-0.4-0.2-0.8-0.3-1.1-0.3
				c-0.4,0.1-0.8,0.3-1,0.6c-0.3,0.3-0.4,0.7-0.4,1.1c0.1,0.4,0.3,0.8,0.6,1.1c0.3,0.3,0.7,0.4,1.1,0.3c0.4,0,0.7-0.2,1-0.6
				c0.3-0.3,0.4-0.7,0.3-1.1C167.5,333.5,167.3,333.2,166.9,332.9 M165.4,329.4c-0.3,0-0.6,0.2-0.8,0.4s-0.3,0.6-0.3,0.9
				c0.1,0.3,0.2,0.6,0.4,0.8c0.3,0.2,0.6,0.3,0.9,0.3c0.3,0,0.6-0.2,0.8-0.5c0.2-0.2,0.3-0.5,0.3-0.9c0-0.3-0.2-0.6-0.4-0.8
				C166,329.4,165.7,329.3,165.4,329.4z"/>
		</g>
	</g>
</g>
<g>
	<rect x="288" y="288" class="st0" width="32" height="32"/>
	<g>
		<g id="Layer0_95_FILL_1_">
			<path class="st19" d="M302.8,292.3c-0.5,0.1-0.9,0.3-1.4,0.7c-0.4,0.4-0.6,0.8-0.6,1.3l-0.8,5.6l-5.6,0.5c-0.5,0-1,0.2-1.4,0.5
				c-0.4,0.4-0.6,0.9-0.8,1.4c-0.1,0.5,0,0.9,0.3,1.4c0.2,0.5,0.5,0.9,1,1.1l4.6,2.1l0.5,0.3l-1.4,5.5c-0.1,0.5-0.1,1.1,0.1,1.6
				s0.5,0.8,1,1c0.5,0.3,1,0.4,1.5,0.3s1-0.3,1.4-0.7l3.9-4.1l4.8,3c0.4,0.3,0.9,0.4,1.5,0.3c0.5,0,1-0.2,1.4-0.6s0.6-0.8,0.7-1.3
				s0-1-0.3-1.5l-2.8-5l4.3-3.6c0.4-0.4,0.7-0.8,0.8-1.3c0.1-0.5,0.1-1-0.2-1.5c-0.2-0.5-0.5-0.9-1-1.1s-1-0.3-1.5-0.1l-2,0.4
				l-3.6,0.6l-2-5.3c-0.2-0.5-0.6-0.8-1-1.1C303.9,292.4,303.4,292.3,302.8,292.3 M302.3,295.3c0.2-0.3,0.5-0.4,0.8-0.5
				c0.3,0,0.6,0.1,0.9,0.3c0.3,0.2,0.4,0.5,0.4,0.8c0.1,0.3,0,0.6-0.3,0.9c-0.2,0.3-0.5,0.5-0.8,0.5s-0.6-0.1-0.9-0.3
				c-0.2-0.2-0.4-0.4-0.5-0.8C302.1,295.9,302.1,295.6,302.3,295.3 M303.5,298.1c0.4,0,0.8,0.1,1.1,0.3c0.3,0.3,0.5,0.6,0.5,1
				c0.1,0.4,0,0.8-0.3,1.2c-0.3,0.4-0.6,0.6-1,0.6c-0.4,0.1-0.8,0-1.1-0.3s-0.5-0.6-0.6-1c0-0.4,0.1-0.8,0.4-1.1
				C302.8,298.4,303.1,298.2,303.5,298.1 M309,303.2c-0.3-0.2-0.5-0.6-0.6-1c0-0.4,0.1-0.8,0.4-1.1c0.2-0.3,0.6-0.5,1-0.6
				c0.4,0,0.8,0.1,1.2,0.3c0.3,0.3,0.5,0.6,0.6,1s0,0.8-0.3,1.1c-0.3,0.3-0.6,0.5-1,0.5C309.7,303.6,309.3,303.5,309,303.2
				 M312.9,299.3c0.3,0,0.6,0.1,0.8,0.3c0.3,0.2,0.4,0.5,0.5,0.8c0,0.3,0,0.6-0.3,0.9c-0.2,0.3-0.5,0.4-0.8,0.4
				c-0.3,0.1-0.6,0-1-0.2c-0.2-0.2-0.4-0.5-0.4-0.9c-0.1-0.3,0-0.6,0.1-0.9C312.3,299.6,312.6,299.4,312.9,299.3 M312,311.1
				c0,0.3,0,0.6-0.3,0.9c-0.2,0.3-0.4,0.4-0.8,0.5c-0.3,0.1-0.6,0-0.9-0.3c-0.2-0.2-0.4-0.5-0.4-0.8c-0.1-0.3,0-0.6,0.2-0.9
				c0.3-0.2,0.6-0.4,0.9-0.4s0.6,0,0.8,0.3C311.8,310.5,311.9,310.8,312,311.1 M308.5,310.5c-0.4,0-0.8-0.1-1.1-0.4
				c-0.3-0.3-0.5-0.6-0.6-1c0-0.4,0.1-0.8,0.3-1.1c0.3-0.3,0.6-0.5,1-0.5c0.4-0.1,0.8,0,1.1,0.3c0.4,0.3,0.6,0.6,0.6,1.1
				c0.1,0.4,0,0.8-0.3,1.1C309.3,310.2,309,310.4,308.5,310.5 M300.6,308.8c0.3-0.3,0.6-0.5,1-0.6c0.4,0,0.8,0.1,1.1,0.3
				c0.4,0.3,0.6,0.6,0.6,1c0.1,0.4,0,0.8-0.3,1.1c-0.3,0.4-0.6,0.6-1.1,0.6c-0.4,0.1-0.8,0-1.1-0.3c-0.3-0.3-0.5-0.6-0.6-1
				C300.3,309.6,300.4,309.2,300.6,308.8 M299.9,311.4c0.3-0.1,0.6,0,0.9,0.2s0.4,0.5,0.5,0.9c0,0.3,0,0.6-0.3,0.9
				c-0.2,0.3-0.5,0.4-0.8,0.5c-0.3,0-0.6,0-0.9-0.3c-0.3-0.2-0.5-0.5-0.5-0.8c-0.1-0.3,0-0.6,0.3-0.9
				C299.3,311.6,299.6,311.5,299.9,311.4 M293.8,303c-0.1-0.3,0-0.6,0.2-0.9s0.5-0.4,0.9-0.5c0.3,0,0.6,0.1,0.9,0.3
				c0.3,0.2,0.4,0.5,0.5,0.8c0,0.3,0,0.6-0.3,0.9s-0.5,0.4-0.8,0.5c-0.3,0-0.6-0.1-0.9-0.3C294,303.6,293.8,303.3,293.8,303
				 M298.1,302c0.4-0.1,0.8,0,1.2,0.3c0.3,0.3,0.5,0.6,0.5,1.1c0.1,0.4,0,0.8-0.3,1.1c-0.3,0.3-0.6,0.5-1.1,0.6
				c-0.4,0.1-0.8,0-1.1-0.3c-0.3-0.2-0.5-0.6-0.6-1c0-0.4,0.1-0.8,0.3-1.1C297.3,302.2,297.7,302.1,298.1,302z"/>
			<path class="st35" d="M299.3,302.2c-0.4-0.2-0.8-0.3-1.2-0.3c-0.4,0.1-0.8,0.3-1,0.6c-0.3,0.3-0.4,0.7-0.3,1.1s0.3,0.8,0.6,1
				c0.3,0.3,0.7,0.4,1.1,0.3s0.8-0.3,1.1-0.6c0.2-0.3,0.3-0.7,0.3-1.1C299.8,302.9,299.6,302.5,299.3,302.2 M294,302.1
				c-0.2,0.3-0.3,0.6-0.2,0.9c0,0.3,0.2,0.6,0.4,0.8c0.3,0.2,0.6,0.3,0.9,0.3s0.6-0.2,0.8-0.5s0.3-0.6,0.3-0.9
				c-0.1-0.3-0.2-0.6-0.5-0.8c-0.2-0.2-0.5-0.3-0.9-0.3C294.5,301.7,294.2,301.8,294,302.1 M300.7,311.6c-0.2-0.2-0.5-0.3-0.9-0.2
				c-0.3,0-0.6,0.2-0.8,0.4c-0.2,0.3-0.3,0.6-0.3,0.9s0.2,0.6,0.5,0.8c0.2,0.2,0.5,0.3,0.9,0.3c0.3-0.1,0.6-0.2,0.8-0.5
				c0.2-0.2,0.3-0.5,0.3-0.9C301.2,312.2,301,311.9,300.7,311.6 M301.6,308.2c-0.4,0.1-0.7,0.3-1,0.6c-0.2,0.3-0.3,0.7-0.3,1.1
				c0.1,0.4,0.3,0.7,0.6,1c0.3,0.3,0.7,0.4,1.1,0.3c0.4,0,0.8-0.2,1.1-0.6c0.3-0.3,0.4-0.7,0.3-1.1c0-0.4-0.2-0.8-0.6-1
				C302.4,308.3,302,308.2,301.6,308.2 M307.4,310.1c0.3,0.3,0.7,0.4,1.1,0.4c0.4-0.1,0.8-0.3,1-0.6c0.3-0.3,0.4-0.7,0.3-1.1
				c0-0.4-0.2-0.8-0.6-1.1c-0.3-0.3-0.7-0.4-1.1-0.3c-0.4,0-0.7,0.2-1,0.5c-0.2,0.3-0.3,0.7-0.3,1.1
				C306.9,309.5,307.1,309.9,307.4,310.1 M311.7,312c0.2-0.3,0.3-0.6,0.3-0.9c-0.1-0.3-0.2-0.6-0.5-0.8c-0.2-0.2-0.5-0.3-0.8-0.3
				c-0.3,0.1-0.6,0.2-0.9,0.4c-0.2,0.3-0.2,0.6-0.2,0.9s0.2,0.6,0.4,0.8c0.3,0.2,0.6,0.3,0.9,0.3C311.3,312.4,311.5,312.3,311.7,312
				 M313.7,299.6c-0.2-0.2-0.5-0.3-0.8-0.3c-0.3,0.1-0.6,0.2-0.9,0.5c-0.2,0.2-0.2,0.5-0.1,0.9c0,0.3,0.2,0.6,0.4,0.9
				c0.3,0.2,0.6,0.3,1,0.2c0.3,0,0.5-0.2,0.8-0.4c0.2-0.3,0.3-0.6,0.3-0.9C314.1,300.1,314,299.8,313.7,299.6 M308.4,302.2
				c0.1,0.4,0.3,0.8,0.6,1c0.3,0.3,0.7,0.4,1.1,0.3c0.4,0,0.8-0.2,1-0.5c0.3-0.3,0.4-0.7,0.3-1.1c0-0.4-0.2-0.8-0.6-1
				s-0.8-0.3-1.2-0.3c-0.4,0.1-0.7,0.3-1,0.6C308.5,301.4,308.4,301.8,308.4,302.2 M304.7,298.4c-0.4-0.2-0.8-0.3-1.1-0.3
				c-0.4,0.1-0.8,0.3-1,0.6c-0.3,0.3-0.4,0.7-0.4,1.1c0.1,0.4,0.3,0.8,0.6,1s0.7,0.4,1.1,0.3c0.4,0,0.7-0.2,1-0.6
				c0.3-0.3,0.4-0.7,0.3-1.2C305.2,299,305,298.7,304.7,298.4 M303.1,294.8c-0.3,0-0.6,0.2-0.8,0.5c-0.2,0.3-0.3,0.6-0.3,0.9
				c0.1,0.3,0.2,0.6,0.5,0.8c0.3,0.2,0.6,0.3,0.9,0.3s0.6-0.2,0.8-0.5c0.2-0.2,0.3-0.5,0.3-0.9c0-0.3-0.2-0.6-0.4-0.8
				C303.8,294.9,303.5,294.8,303.1,294.8z"/>
		</g>
	</g>
</g>
<g>
	<rect x="288" y="256" class="st0" width="32" height="32"/>
	<g transform="matrix( 1, 0, 0, 1, 0,0) ">
		<g>
			<g id="Layer0_94_FILL_1_">
				<path class="st7" d="M304.6,280.3c0.3-0.3,0.5-0.6,0.6-1c-2.7,0.1-5.2-0.5-7.5-2c-0.1,0.4,0,0.8,0.1,1.2s0.3,0.6,0.5,0.7
					l5.5,1.5C304.1,280.6,304.4,280.5,304.6,280.3 M302.7,263.9c-0.2,0.1-0.5,0.2-0.7,0.3l0.1,0.1l-0.6,2.9l0,0
					c-0.2,0.9-0.3,1.7-0.4,2.2c-0.2,0.6-0.4,0.9-0.6,0.8c-0.3-0.1-0.3-1,0-2.9c0.2-1.7,0.4-2.7,0.5-3.2c-2.4-0.4-3.9,0.3-4.5,2.2
					c-0.4,1-0.5,2-0.4,3c0.2,1.8,0.5,3.3,0.9,4.6c0.3,0.9,0.7,1.7,1.2,2.4c2.2,1.3,4.6,2,7.3,1.9c1.9-1,3.6-2.7,5.3-5
					c0.7-0.9,1.1-1.8,1.3-2.9c0.1-0.7,0.1-1.3-0.1-1.8c-0.4-1-1.3-1.8-2.7-2.3c-0.1,0.5-0.5,1.5-1.1,3c-0.1,0.3-0.3,0.6-0.4,0.9
					c-0.5,1.1-0.9,1.7-1.1,1.6h-0.1c-0.2-0.1-0.2-0.4,0-1c0-0.1,0-0.1,0.1-0.2c0.1-0.5,0.3-1.1,0.5-1.9l0,0l1.1-2.8
					c0-0.1,0-0.1,0-0.1c-0.2-0.3-0.4-0.5-0.6-0.8c-0.6-0.8-1.3-1.4-2.3-1.6C304.4,263.3,303.5,263.4,302.7,263.9z"/>
				<path class="st6" d="M305.3,278.5c0.1,0,0.1-0.1,0.1-0.1c-2.7,0-5.1-0.6-7.3-1.9c-0.2,0.2-0.3,0.5-0.4,0.7c0,0,0,0.1-0.1,0.1
					c2.3,1.5,4.8,2.1,7.5,2l0.1-0.1C305.3,278.9,305.4,278.7,305.3,278.5z"/>
				<path class="st34" d="M308.2,265.8L308.2,265.8c-0.1,0-0.1,0.1-0.1,0.1l-1.1,2.8l0,0c-0.3,0.8-0.4,1.4-0.5,1.9
					c0,0.1,0,0.1-0.1,0.2c-0.2,0.6-0.2,0.9,0,1h0.1c0.2,0.1,0.6-0.5,1.1-1.6c0.1-0.3,0.3-0.6,0.4-0.9c0.6-1.5,1-2.5,1.1-3
					c0-0.1,0-0.1,0-0.2S309,266,309,266l-0.6-0.2C308.4,265.8,308.3,265.8,308.2,265.8 M302,264.2c0-0.1-0.1-0.1-0.1-0.1l-0.5-0.1
					c-0.1,0-0.1,0-0.1,0h-0.1c-0.1,0-0.1,0-0.2,0l-0.1,0.1c-0.2,0.5-0.4,1.5-0.5,3.2c-0.2,1.9-0.2,2.8,0,2.9s0.4-0.2,0.6-0.8
					c0.1-0.5,0.3-1.2,0.4-2.2l0,0l0.6-2.9C302,264.3,302,264.2,302,264.2z"/>
			</g>
		</g>
	</g>
</g>
<g>
	<rect x="192" y="256" class="st0" width="64" height="64"/>
	<g transform="matrix( 1, 0, 0, 1, 0,0) ">
		<g>
			<g id="Layer0_118_MEMBER_2_MEMBER_0_FILL_1_">
				<path class="st31" d="M239,289c1.6,1.6,3.3,1.6,4.8,0l5.2-5c1.6-1.6,1.6-3.1,0-4.7l-5.2-5c-1.6-1.6-3.2-1.6-4.8,0l-5.1,5
					c-1.6,1.6-1.6,3.1,0,4.7L239,289z"/>
			</g>
		</g>
	</g>
	<g transform="matrix( 1, 0, 0, 1, 0,0) ">
		<g>
			<g id="Layer0_118_MEMBER_2_MEMBER_1_FILL_1_">
				<path class="st20" d="M197.8,288.3c0,0.8,0,1.5,0.1,2.3c0.5,5.1,2.6,9.5,6.3,13.2c4.3,4.3,9.4,6.5,15.5,6.5s11.3-2.1,15.6-6.5
					c4.3-4.3,6.4-9.4,6.4-15.5c0-1.3-0.1-2.5-0.3-3.7c0-0.1,0-0.2,0-0.3c-7.6-3.4-15.1-3.3-22.5,0.3c-0.3,0.1-0.5,0.2-0.7,0.4
					c-6.8,3.1-13.5,3.3-20.2,0.6C197.8,286.5,197.8,287.4,197.8,288.3z"/>
				<path class="st32" d="M218.1,285c0.2-0.1,0.4-0.3,0.7-0.4c7.4-3.7,14.9-3.8,22.5-0.3c-0.8-4.4-2.8-8.2-6-11.5
					c-4.3-4.3-9.5-6.4-15.6-6.4c-2.1,0-4,0.3-5.9,0.8c-3.6,1-6.8,2.9-9.6,5.7c-3.6,3.6-5.7,7.9-6.3,12.8
					C204.6,288.3,211.3,288.1,218.1,285z"/>
			</g>
		</g>
	</g>
	<g transform="matrix( 1, 0, 0, 1, 0,0) ">
		<g>
			<g id="Layer0_118_MEMBER_2_MEMBER_2_FILL_1_">
				<path class="st31" d="M216.4,285.9c2.5,2.6,5.3,4.5,8.4,5.5c0.3,0.1,0.5,0.1,0.8,0c0.2-0.1,0.4-0.3,0.5-0.6
					c1.8-4.2,1.8-8.5,0-12.6c-0.1-0.2-0.2-0.3-0.3-0.4s-0.3-0.2-0.5-0.2c-2.8-0.4-5.6-0.1-8.4,0.9c-0.2,0.1-0.4,0.2-0.5,0.3
					c-0.1,0.2-0.2,0.4-0.2,0.6v5.8C216.2,285.5,216.2,285.7,216.4,285.9z"/>
			</g>
		</g>
	</g>
	<g transform="matrix( 1, 0, 0, 1, 0,0) ">
		<g>
			<g id="Layer0_118_MEMBER_5_FILL_1_">
				<path class="st31" d="M229.7,269.8c0.2,1.4,1,2.3,2.5,2.7c0.1,0,0.3,0,0.5-0.1c0.1-0.1,0.2-0.2,0.3-0.4l2.1-4.1
					c0-0.1,0.1-0.3,0.1-0.4c0-0.2-0.1-0.3-0.2-0.5c-0.1-0.1-0.3-0.1-0.4-0.1c-0.2,0-0.3,0-0.4,0L230,269c-0.1,0.1-0.2,0.2-0.3,0.3
					C229.6,269.6,229.6,269.7,229.7,269.8z"/>
			</g>
		</g>
	</g>
	<g>
		<g id="Layer0_118_MEMBER_0_FILL_1_">
			<path class="st33" d="M217.9,308.7l1.4,4.4c0.1,0.1,0.2,0.3,0.3,0.4s0.3,0.1,0.4,0.1c0.2,0,0.3,0,0.4-0.1
				c0.1-0.1,0.2-0.2,0.3-0.4l1.4-4.4c0-0.1,0-0.3,0-0.5c0-0.1-0.1-0.2-0.3-0.3c-1.1-0.9-2.3-0.9-3.7-0.1c-0.1,0.1-0.2,0.2-0.3,0.4
				C217.9,308.3,217.9,308.5,217.9,308.7z"/>
		</g>
	</g>
	<g>
		<g id="Layer0_118_MEMBER_1_FILL_1_">
			<path class="st31" d="M220.4,262.5c-0.1,0-0.2,0.1-0.4,0.2c-0.1,0.1-0.2,0.2-0.3,0.3l-1.4,4.4c0,0.2,0,0.3,0,0.5
				c0.1,0.1,0.2,0.2,0.3,0.3c1.3,0.8,2.6,0.8,3.7,0c0.1-0.1,0.2-0.2,0.2-0.3c0.1-0.2,0.1-0.4,0.1-0.5l-1.4-4.5
				c-0.1-0.1-0.2-0.2-0.3-0.3C220.7,262.6,220.6,262.5,220.4,262.5z"/>
		</g>
	</g>
	<g>
		<g id="Layer0_118_MEMBER_2_MEMBER_1_MEMBER_0_FILL_1_">
			<path class="st31" d="M206.8,277.3c-0.5,0-0.9,0.2-1.2,0.6c-0.4,0.4-0.6,0.8-0.6,1.2c0,0.5,0.2,0.9,0.6,1.3
				c0.3,0.4,0.7,0.6,1.2,0.6s0.9-0.2,1.3-0.6c0.3-0.4,0.5-0.8,0.5-1.3c0-0.4-0.2-0.8-0.5-1.2C207.7,277.5,207.3,277.3,206.8,277.3z"
				/>
		</g>
	</g>
	<g>
		<g id="Layer0_118_MEMBER_3_FILL_1_">
			<path class="st33" d="M204.7,301.2c-0.1,0-0.3,0-0.4,0.1c-0.1,0.1-0.2,0.2-0.3,0.3l-2.1,4.1c0,0.1-0.1,0.3-0.1,0.4
				c0,0.2,0.1,0.4,0.2,0.5c0.1,0.1,0.3,0.1,0.4,0.1c0.2,0,0.3,0,0.4-0.1l4.2-2.1c0.1-0.1,0.2-0.2,0.3-0.3c0.1-0.1,0.1-0.2,0.1-0.4
				C207.1,302.4,206.2,301.5,204.7,301.2z"/>
		</g>
	</g>
	<g>
		<g id="Layer0_118_MEMBER_4_FILL_1_">
			<path class="st33" d="M239.8,303.7l-2.1-4.2c-0.1-0.1-0.2-0.2-0.3-0.3c-0.1-0.1-0.2-0.1-0.4,0c-1.4,0.2-2.3,1-2.6,2.5
				c0,0.1,0,0.3,0.1,0.5c0.1,0.1,0.2,0.2,0.3,0.3l4.1,2.1c0.1,0,0.3,0.1,0.4,0.1c0.2,0,0.4-0.1,0.5-0.2s0.1-0.3,0.1-0.4
				C239.9,303.9,239.9,303.8,239.8,303.7z"/>
		</g>
	</g>
	<g>
		<g id="Layer0_118_MEMBER_6_FILL_1_">
			<path class="st31" d="M204.4,267.5c0,0.1,0,0.3,0,0.4l2.2,4.1c0.1,0.2,0.2,0.3,0.3,0.4c0.2,0.1,0.3,0.1,0.4,0.1
				c1.5-0.4,2.4-1.3,2.6-2.7c0-0.1,0-0.2-0.1-0.3c-0.1-0.2-0.2-0.3-0.3-0.3l-4.2-2.1c-0.1-0.1-0.3-0.1-0.5,0c-0.1,0-0.3,0-0.4,0.1
				C204.5,267.2,204.4,267.4,204.4,267.5z"/>
		</g>
	</g>
</g>
<g>
	<rect x="256" y="256" class="st0" width="32" height="32"/>
	<g transform="matrix( 1, 0, 0, 1, 0,0) ">
		<g>
			<g id="Layer0_94_FILL_2_">
				<path class="st19" d="M272.6,280.3c0.3-0.3,0.5-0.6,0.6-1c-2.7,0.1-5.2-0.5-7.5-2c-0.1,0.4,0,0.8,0.1,1.2s0.3,0.6,0.5,0.7
					l5.5,1.5C272.1,280.6,272.4,280.5,272.6,280.3 M270.7,263.9c-0.2,0.1-0.5,0.2-0.7,0.3l0.1,0.1l-0.6,2.9l0,0
					c-0.2,0.9-0.3,1.7-0.4,2.2c-0.2,0.6-0.4,0.9-0.6,0.8c-0.3-0.1-0.3-1,0-2.9c0.2-1.7,0.4-2.7,0.5-3.2c-2.4-0.4-3.9,0.3-4.5,2.2
					c-0.4,1-0.5,2-0.4,3c0.2,1.8,0.5,3.3,0.9,4.6c0.3,0.9,0.7,1.7,1.2,2.4c2.2,1.3,4.6,2,7.3,1.9c1.9-1,3.6-2.7,5.3-5
					c0.7-0.9,1.1-1.8,1.3-2.9c0.1-0.7,0.1-1.3-0.1-1.8c-0.4-1-1.3-1.8-2.7-2.3c-0.1,0.5-0.5,1.5-1.1,3c-0.1,0.3-0.3,0.6-0.4,0.9
					c-0.5,1.1-0.9,1.7-1.1,1.6h-0.1c-0.2-0.1-0.2-0.4,0-1c0-0.1,0-0.1,0.1-0.2c0.1-0.5,0.3-1.1,0.5-1.9l0,0l1.1-2.8
					c0-0.1,0-0.1,0-0.1c-0.2-0.3-0.4-0.5-0.6-0.8c-0.6-0.8-1.3-1.4-2.3-1.6C272.4,263.3,271.5,263.4,270.7,263.9z"/>
				<path class="st35" d="M273.3,278.5c0.1,0,0.1-0.1,0.1-0.1c-2.7,0-5.1-0.6-7.3-1.9c-0.2,0.2-0.3,0.5-0.4,0.7c0,0,0,0.1-0.1,0.1
					c2.3,1.5,4.8,2.1,7.5,2l0.1-0.1C273.3,278.9,273.4,278.7,273.3,278.5z"/>
				<path class="st35" d="M276.2,265.8L276.2,265.8c-0.1,0-0.1,0.1-0.1,0.1l-1.1,2.8l0,0c-0.3,0.8-0.4,1.4-0.5,1.9
					c0,0.1,0,0.1-0.1,0.2c-0.2,0.6-0.2,0.9,0,1h0.1c0.2,0.1,0.6-0.5,1.1-1.6c0.1-0.3,0.3-0.6,0.4-0.9c0.6-1.5,1-2.5,1.1-3
					c0-0.1,0-0.1,0-0.2S277,266,277,266l-0.6-0.2C276.4,265.8,276.3,265.8,276.2,265.8 M270,264.2c0-0.1-0.1-0.1-0.1-0.1l-0.5-0.1
					c-0.1,0-0.1,0-0.1,0h-0.1c-0.1,0-0.1,0-0.2,0l-0.1,0.1c-0.2,0.5-0.4,1.5-0.5,3.2c-0.2,1.9-0.2,2.8,0,2.9s0.4-0.2,0.6-0.8
					c0.1-0.5,0.3-1.2,0.4-2.2l0,0l0.6-2.9C270,264.3,270,264.2,270,264.2z"/>
			</g>
		</g>
	</g>
</g>
</svg>
