<?xml version="1.0" encoding="utf-8"?>
<!-- Generator: Adobe Illustrator 23.0.6, SVG Export Plug-In . SVG Version: 6.00 Build 0)  -->
<svg version="1.1" id="Layer_1" xmlns="http://www.w3.org/2000/svg" xmlns:xlink="http://www.w3.org/1999/xlink" x="0px" y="0px"
	 viewBox="0 0 64 64" style="enable-background:new 0 0 64 64;" xml:space="preserve">
<style type="text/css">
	.st0{fill:none;}
	.st1{fill:#2CC66D;}
	.st2{fill:#27AE60;}
	.st3{fill:#25A65B;}
	.st4{fill:#1D8548;}
</style>
<rect class="st0" width="64" height="64"/>
<path class="st1" d="M18.8,26.2c-2-1.9-4-1.9-6,0l-6.3,6.2c-2,1.9-2,3.9,0,5.8l6.3,6.2c2,1.9,4,1.9,6,0l6.3-6.2c2-1.9,2-3.9,0-5.8
	L18.8,26.2z"/>
<path class="st1" d="M49.2,51.5c0.2-0.2,0.3-0.5,0.4-0.8l0.9-5.9c0-0.3,0-0.5-0.1-0.8s-0.3-0.5-0.6-0.6c-0.2-0.1-0.5-0.2-0.8-0.2
	c-5.1,0.4-10.2-0.5-15.4-2.5c-0.2-0.1-0.5-0.1-0.8-0.1c-0.3,0.1-0.5,0.2-0.7,0.4s-0.3,0.4-0.4,0.7l-1.2,5.7c-0.1,0.3,0,0.5,0.2,0.8
	c0.1,0.3,0.3,0.5,0.5,0.6c4.8,2.6,10.5,3.5,17,2.9C48.7,51.8,48.9,51.6,49.2,51.5z"/>
<path class="st1" d="M49.4,15.3c0-0.4-0.1-0.7-0.3-0.9c-0.3-0.2-0.6-0.4-1-0.4c-8.6,0-16.1,2.5-22.8,7.4c-0.3,0.2-0.4,0.5-0.5,0.8
	s0,0.6,0.1,0.9l3.8,8.1c0.1,0.3,0.3,0.5,0.6,0.6c0.3,0.2,0.6,0.2,0.9,0.1l18.2-4c0.3-0.1,0.6-0.2,0.8-0.5c0.2-0.2,0.3-0.5,0.3-0.8
	V15.3H49.4z"/>
<path class="st2" d="M40.3,22.5c-5.1,0.5-9.6,1.6-13.5,3.6c-5.1,2.5-7.7,5.6-7.7,9.2s2.6,6.6,7.7,9.2c4.1,2,9,3.3,14.5,3.7
	c-0.2-0.3-0.4-0.5-0.6-0.8c-2.7-3.5-4-7.7-4-12.7C36.7,30,37.9,25.9,40.3,22.5z"/>
<path class="st3" d="M55.1,44.5c2.6-2.5,3.9-5.6,3.9-9.2s-1.3-6.7-3.9-9.2c-2.5-2.5-5.6-3.7-9.2-3.8c-0.1,0-0.3,0-0.4,0
	c-1.8,0-3.5,0.1-5.2,0.3c-2.4,3.4-3.7,7.5-3.7,12.2c0,5,1.3,9.2,4,12.7c0.2,0.2,0.4,0.5,0.6,0.8c1.3,0.1,2.7,0.1,4.2,0.1
	c0.1,0,0.3,0,0.4,0C49.5,48.2,52.6,47,55.1,44.5z"/>
<path class="st4" d="M52.6,31.5c-0.5-0.5-1.2-0.8-1.9-0.8s-1.4,0.3-1.9,0.8S48,32.6,48,33.3s0.3,1.4,0.8,1.9S50,36,50.7,36
	s1.4-0.3,1.9-0.8s0.8-1.1,0.8-1.9C53.3,32.6,53.1,32,52.6,31.5z"/>
<path class="st1" d="M43.5,38.1c-0.1-0.3-0.3-0.5-0.5-0.6c-0.2-0.2-0.5-0.2-0.7-0.3c-4.8-0.2-9.6-1.1-14.3-2.5
	c-0.3-0.1-0.5-0.1-0.8,0s-0.5,0.2-0.7,0.4s-0.3,0.4-0.3,0.6L26,38.5c0,0.3,0,0.5,0.1,0.7c0.1,0.3,0.3,0.5,0.5,0.6
	c4.3,2.2,9,3.7,14,4.4c0.3,0,0.6,0,0.9-0.2c0.3-0.1,0.5-0.3,0.6-0.6l1.4-4.4C43.5,38.6,43.5,38.3,43.5,38.1z"/>
</svg>
