<?xml version="1.0" encoding="utf-8"?>
<!-- Generator: Adobe Illustrator 23.0.6, SVG Export Plug-In . SVG Version: 6.00 Build 0)  -->
<svg version="1.1" id="Layer_1" xmlns="http://www.w3.org/2000/svg" xmlns:xlink="http://www.w3.org/1999/xlink" x="0px" y="0px"
	 viewBox="0 0 64 64" style="enable-background:new 0 0 64 64;" xml:space="preserve">
<style type="text/css">
	.st0{fill:none;}
	.st1{fill:#BF3D31;}
	.st2{fill:#E74C3C;}
	.st3{fill:#F5503F;}
</style>
<rect class="st0" width="64" height="64"/>
<path class="st1" d="M17.1,23.5c-1.2-1.1-2.5-1.6-3.8-1.6c-0.8,0-1.7,0.5-2.5,1.6l-5.3,7c-1.7,2.1-1.7,4.2,0,6.4l5.3,6.9
	c0.9,1,1.7,1.6,2.5,1.6c1.3,0,2.6-0.5,3.8-1.6l8.2-6.9c2.6-2.2,2.6-4.3,0-6.4L17.1,23.5z"/>
<path class="st1" d="M47.8,43.7c-0.3-0.2-0.6-0.2-1-0.3c-6,0.4-12.1-0.6-18.3-3c-0.3-0.1-0.6-0.1-0.9-0.1c-0.3,0.1-0.5,0.3-0.7,0.4
	c-0.2,0.3-0.4,0.6-0.5,0.9L25,48.4c-0.1,0.3,0,0.5,0.2,0.9c0.1,0.4,0.3,0.6,0.7,0.8c5.7,3.1,12.5,4.2,20.3,3.5
	c0.3,0,0.6-0.2,0.9-0.4s0.4-0.5,0.5-1l1.1-6.9c0.1-0.3,0-0.6-0.2-1C48.3,44,48.1,43.8,47.8,43.7z"/>
<path class="st1" d="M49.6,25.6c0.3-0.1,0.6-0.3,0.9-0.5c0.2-0.3,0.3-0.5,0.3-0.9V11.7c0-0.4-0.1-0.8-0.4-1.1s-0.7-0.4-1.1-0.4
	C39.8,10.3,31.4,13,24,18.3c-0.3,0.2-0.5,0.5-0.5,0.9c-0.1,0.3-0.1,0.6,0,1l4.2,9c0.1,0.3,0.4,0.6,0.7,0.7c0.3,0.2,0.7,0.3,1,0.1
	L49.6,25.6z"/>
<path class="st2" d="M46.7,49.5c-2.2-10-2.2-20.4,0-30.9c-7.2,0.5-13.6,1.9-19.2,4.3C20.5,26,17,29.7,17,34s3.5,8,10.5,11.1
	C33.1,47.5,39.5,49,46.7,49.5z"/>
<path class="st3" d="M49.2,18.5c-0.8,0-1.6,0.1-2.5,0.1c-2.2,10.6-2.2,20.9,0,30.9c0.8,0,1.7,0.1,2.5,0.1c0.7,0,1.3,0.1,2,0.1
	c0.3,0,0.6,0,0.9,0h0.1c0.1,0,0.1,0,0.3,0c2-0.2,3.7-1.7,5.1-4.6c1.5-3,2.3-6.7,2.3-11.1s-0.8-8.1-2.3-11.1
	c-1.5-2.8-3.2-4.3-5.1-4.5l0,0c-0.1,0-0.2,0-0.3,0h-0.1c-0.3,0-0.6,0-0.9,0C50.5,18.4,49.8,18.4,49.2,18.5 M55.4,32.3
	c-0.3,0.4-0.8,0.6-1.4,0.6c-0.5,0-0.9-0.2-1.3-0.6c-0.4-0.4-0.5-0.8-0.5-1.4c0-0.5,0.2-1,0.5-1.4c0.4-0.4,0.8-0.6,1.3-0.6
	c0.6,0,1,0.2,1.4,0.6s0.6,0.9,0.6,1.4S55.8,31.9,55.4,32.3z"/>
<path class="st1" d="M54,32.9c0.6,0,1-0.2,1.4-0.6c0.4-0.4,0.6-0.8,0.6-1.4c0-0.5-0.2-1-0.6-1.4c-0.3-0.4-0.8-0.6-1.4-0.6
	c-0.5,0-0.9,0.2-1.3,0.6s-0.5,0.9-0.5,1.4s0.2,1,0.5,1.4C53.1,32.7,53.5,32.9,54,32.9z"/>
<path class="st1" d="M41.9,35.5c-0.2-0.3-0.4-0.6-0.6-0.8s-0.5-0.3-0.8-0.3c-5.3-0.3-10.5-1.2-15.7-2.8c-0.3,0-0.6,0-0.8,0
	c-0.3,0.1-0.5,0.3-0.7,0.5s-0.3,0.4-0.4,0.7l-0.4,2.9c0,0.3,0,0.6,0.1,0.9c0.2,0.3,0.4,0.5,0.6,0.6c4.7,2.4,9.8,4.1,15.3,4.9
	c0.4,0,0.7,0,1-0.3c0.3-0.1,0.4-0.4,0.5-0.8l1.6-4.8C41.9,36,41.9,35.8,41.9,35.5z"/>
</svg>
