<?xml version="1.0" encoding="utf-8"?>
<!-- Generator: Adobe Illustrator 23.0.6, SVG Export Plug-In . SVG Version: 6.00 Build 0)  -->
<svg version="1.1" id="Layer_1" xmlns="http://www.w3.org/2000/svg" xmlns:xlink="http://www.w3.org/1999/xlink" x="0px" y="0px"
	 viewBox="0 0 64 64" style="enable-background:new 0 0 64 64;" xml:space="preserve">
<style type="text/css">
	.st0{fill:none;}
	.st1{fill:#2F8AC6;}
	.st2{fill:#3498DB;}
	.st3{fill:#37A5EE;}
	.st4{fill:#2C84BF;}
</style>
<rect class="st0" width="64" height="64"/>
<path class="st1" d="M27.1,37.5l-1.9,3.9c-0.1,0.1-0.1,0.3-0.1,0.6c0,0.2,0.1,0.4,0.3,0.6c3,2.8,7,4.7,12,5.5c0.2,0,0.5,0,0.6-0.1
	s0.4-0.3,0.5-0.5l1.8-4.1c0.1-0.2,0.1-0.4,0-0.6c0-0.2-0.1-0.4-0.3-0.5c-0.1-0.1-0.3-0.2-0.5-0.3c-3.8-0.7-7.4-2.4-10.8-4.9
	c-0.2-0.1-0.3-0.2-0.5-0.3c-0.2,0-0.4,0.1-0.5,0.1C27.4,37.1,27.3,37.3,27.1,37.5z"/>
<path class="st1" d="M12.6,24.1c-0.8,0-1.7,0.4-2.5,1.2l-5.2,5.1c-1.6,1.6-1.6,3.1,0,4.8l5.2,5.1c0.8,0.8,1.7,1.1,2.5,1.1
	c1.3,0,2.5-0.4,3.7-1.1l8.1-5.1c2.5-1.6,2.5-3.2,0-4.8l-8.1-5.1C15.1,24.6,13.9,24.1,12.6,24.1z"/>
<path class="st1" d="M47.9,26.6v-9.5c0-0.3-0.1-0.6-0.3-0.8c-0.2-0.2-0.5-0.3-0.9-0.3c-7.2,0-13.6,2.1-19.2,6.2
	c-0.2,0.2-0.4,0.4-0.4,0.6c-0.1,0.2,0,0.5,0.1,0.8l3.2,6.9c0.1,0.3,0.3,0.4,0.6,0.5c0.2,0.2,0.5,0.2,0.8,0.1l15.3-3.4
	c0.2-0.1,0.5-0.2,0.7-0.4C47.8,27.1,47.9,26.9,47.9,26.6z"/>
<path class="st2" d="M41,23.2c-0.1,0-0.2,0-0.4,0c-6.1,0.1-11.3,1.1-15.6,2.9c-4.6,1.9-6.9,4.3-6.9,7c0,2.7,2.3,5.1,6.9,7
	c4.4,1.9,9.6,2.8,15.6,2.9c0.1,0,0.3,0,0.4,0C38.5,36.3,38.5,29.6,41,23.2z"/>
<path class="st3" d="M44.4,23.4c-2.2-0.1-3.3-0.2-3.4-0.2c-2.4,6.4-2.4,13,0,19.8c0.1,0,0.1,0,0.2,0c4.6-0.1,9.2-1.6,14-4.6
	c4.7-3,6.3-5.3,4.6-7c-1.7-1.6-4.2-3.4-7.4-5.2C49.1,24.4,46.5,23.5,44.4,23.4 M49.9,30.8c0.3-0.3,0.7-0.4,1.1-0.4s0.8,0.1,1.1,0.4
	s0.5,0.6,0.5,1.1c0,0.4-0.1,0.8-0.5,1c-0.3,0.3-0.7,0.5-1.1,0.5s-0.8-0.2-1.1-0.5s-0.4-0.6-0.4-1C49.5,31.4,49.6,31.1,49.9,30.8z"/>
<path class="st4" d="M51,30.4c-0.4,0-0.8,0.1-1.1,0.4s-0.4,0.6-0.4,1.1c0,0.4,0.1,0.8,0.4,1s0.7,0.5,1.1,0.5s0.8-0.2,1.1-0.5
	s0.5-0.6,0.5-1c0-0.4-0.1-0.8-0.5-1.1C51.8,30.5,51.4,30.4,51,30.4z"/>
<path class="st1" d="M42.9,39.6L43,36c0-0.2,0-0.4-0.1-0.6c-0.2-0.2-0.4-0.3-0.6-0.4s-0.4-0.1-0.5,0c-3.7,0.8-7.5,1.1-11.4,1
	c-0.2,0-0.4,0.1-0.6,0.1c-0.2,0.1-0.3,0.3-0.4,0.4c-0.1,0.2-0.1,0.4-0.1,0.6l0.3,2.1c0,0.2,0.1,0.4,0.3,0.5c0.1,0.2,0.3,0.3,0.6,0.3
	c3.7,0.8,7.5,1,11.4,0.5c0.3,0,0.5-0.1,0.7-0.3C42.8,40.1,42.9,39.9,42.9,39.6z"/>
</svg>
