<?xml version="1.0" encoding="utf-8"?>
<!-- Generator: Adobe Illustrator 23.0.6, SVG Export Plug-In . SVG Version: 6.00 Build 0)  -->
<svg version="1.1" id="Layer_1" xmlns="http://www.w3.org/2000/svg" xmlns:xlink="http://www.w3.org/1999/xlink" x="0px" y="0px"
	 viewBox="0 0 64 64" style="enable-background:new 0 0 64 64;" xml:space="preserve">
<style type="text/css">
	.st0{fill:none;}
	.st1{fill:#EC8D00;}
	.st2{fill:#FCB245;}
	.st3{fill:#CD7B00;}
	.st4{fill:#FF9900;}
</style>
<rect class="st0" width="64" height="64"/>
<path class="st1" d="M18,23.5c-1.2,0-2.3,0.4-3.4,1.3L7.2,30c-2.4,1.5-2.4,3.1,0,4.7l7.4,5.1c1.1,0.8,2.2,1.1,3.4,1.1
	c0.8,0,1.5-0.4,2.3-1.1l4.8-5.1c1.5-1.6,1.5-3.2,0-4.7l-4.8-5.2C19.5,24,18.7,23.5,18,23.5z"/>
<path class="st2" d="M44,38.9c0.1-0.3,0-0.5-0.2-0.8c-0.2-0.2-0.4-0.4-0.6-0.6c-0.2-0.1-0.5-0.2-0.9-0.2c-5.3,0.4-10.7-0.5-16.1-2.6
	c-0.3,0-0.6-0.1-0.9-0.1c-0.3,0.1-0.5,0.2-0.6,0.4c-0.2,0.3-0.4,0.6-0.5,0.8l-1.2,6c-0.1,0.2-0.1,0.5,0.1,0.8
	c0.1,0.3,0.3,0.6,0.6,0.7c5,2.7,11,3.8,18,3.1c0.3,0,0.6-0.1,0.8-0.4c0.2-0.2,0.4-0.5,0.5-0.8L44,38.9z"/>
<path class="st2" d="M26.2,25.5c-0.1,0.3-0.1,0.6,0,0.9l3.7,7.9c0.1,0.3,0.3,0.5,0.6,0.6c0.3,0.2,0.6,0.3,0.9,0.2L49,31
	c0.3-0.1,0.5-0.3,0.7-0.5S50,30,50,29.8v-11c0-0.4-0.1-0.7-0.3-0.9c-0.3-0.2-0.6-0.4-1-0.4c-8.3,0.1-15.6,2.4-22,7.1
	C26.4,24.9,26.2,25.2,26.2,25.5z"/>
<path class="st1" d="M53.8,38.9c4.1-3.4,5.6-6.4,4.5-9c-1.1-2.5-2.9-4.5-5.6-6c-3.3-1.8-7.3-2.2-12.2-1.1c0,7.4,3,13.8,9,19.3
	c0.4-0.2,0.7-0.4,1-0.6C51.5,40.7,52.6,39.9,53.8,38.9 M51.8,30.3c0.5,0,0.9,0.2,1.2,0.5c0.4,0.4,0.6,0.8,0.6,1.2
	c0,0.5-0.2,0.9-0.6,1.3c-0.3,0.4-0.7,0.5-1.2,0.5s-0.9-0.2-1.3-0.5C50.2,32.9,50,32.5,50,32c0-0.4,0.2-0.8,0.5-1.2
	C51,30.4,51.4,30.3,51.8,30.3z"/>
<path class="st3" d="M53,30.8c-0.3-0.4-0.7-0.5-1.2-0.5s-0.9,0.2-1.3,0.5C50.2,31.2,50,31.6,50,32c0,0.5,0.2,0.9,0.5,1.3
	c0.4,0.4,0.8,0.5,1.3,0.5s0.9-0.2,1.2-0.5c0.4-0.4,0.6-0.8,0.6-1.3C53.7,31.6,53.5,31.2,53,30.8z"/>
<path class="st4" d="M38.7,23.2c-3.8,1.2-7.7,2.4-11.8,3.8c-4.1,1.3-6.1,3.4-5.9,6.3c0.2,2.8,2.5,5.3,7.1,7.5
	c3.4,1.7,7.4,2.7,12,3.1c3.5,0.2,6.7-0.4,9.5-1.8c-6-5.5-9-11.9-9-19.3c-0.3,0-0.6,0.1-0.9,0.2C39.4,23,39,23.1,38.7,23.2z"/>
<path class="st1" d="M38.9,39.9l0.9-2.9c0-0.2,0.1-0.3,0.1-0.5c-0.1-0.2-0.2-0.4-0.4-0.4C39.3,36,39.2,35.9,39,36
	c-3.1-0.2-6.2-0.7-9.3-1.7c-0.2,0-0.3,0-0.5,0c-0.2,0.1-0.3,0.2-0.4,0.3s-0.2,0.2-0.3,0.4l-0.2,1.7c0,0.2,0,0.4,0,0.5
	c0.1,0.2,0.2,0.3,0.4,0.3c2.8,1.5,5.8,2.4,9,2.9c0.2,0,0.4-0.1,0.6-0.2C38.7,40.2,38.8,40.1,38.9,39.9z"/>
</svg>
