<?xml version="1.0" encoding="utf-8"?>
<!-- Generator: Adobe Illustrator 23.0.6, SVG Export Plug-In . SVG Version: 6.00 Build 0)  -->
<svg version="1.1" id="Layer_1" xmlns="http://www.w3.org/2000/svg" xmlns:xlink="http://www.w3.org/1999/xlink" x="0px" y="0px"
	 viewBox="0 0 64 64" style="enable-background:new 0 0 64 64;" xml:space="preserve">
<style type="text/css">
	.st0{fill:none;}
	.st1{fill:#C985D0;}
	.st2{fill:#D890E0;}
	.st3{fill:#E599EE;}
	.st4{fill:#AF75B6;}
</style>
<rect class="st0" width="64" height="64"/>
<path class="st1" d="M28.4,33.5c1.6-1.3,1.6-2.6,0-3.9l-4.9-4.3c-1.5-1.3-3.1-1.3-4.6,0l-5,4.3c-1.6,1.3-1.6,2.6,0,3.9l5,4.3
	c1.5,1.3,3.1,1.3,4.6,0L28.4,33.5z"/>
<path class="st1" d="M40.2,36.5c0.1-0.1,0.1-0.3,0.1-0.5s-0.1-0.4-0.2-0.5l-2.2-2.8c-0.1-0.1-0.2-0.2-0.4-0.2
	c-0.2-0.1-0.3-0.1-0.5,0c-0.1,0.1-0.3,0.2-0.4,0.3c-1.7,2.5-3.9,4.6-6.6,6.2c-0.1,0-0.2,0.1-0.3,0.3c-0.1,0.2-0.1,0.3-0.1,0.5
	s0.1,0.3,0.1,0.4l2,2.8c0.1,0.1,0.2,0.2,0.4,0.2c0.2,0.1,0.4,0.1,0.5,0C35.6,41.9,38.1,39.7,40.2,36.5z"/>
<path class="st1" d="M30.3,28.1c0.1,0.2,0.3,0.3,0.4,0.3l10.1,1.8c0.2,0,0.3,0,0.5,0c0.1-0.1,0.2-0.3,0.3-0.4l1.6-6.4
	c0-0.2,0-0.4,0-0.6c-0.1-0.2-0.3-0.3-0.5-0.4c-4.5-1.9-8.8-2.3-13-1.1c-0.1,0.1-0.2,0.2-0.3,0.3c-0.1,0.2-0.1,0.4-0.1,0.5l0.8,5.5
	C30,27.9,30.1,28.1,30.3,28.1z"/>
<path class="st2" d="M44.5,25c-0.1,0-0.3,0-0.4,0l-6.8,6.8l6.8,6.8c0.1,0,0.3,0,0.4,0c1.9,0,3.4-0.7,4.8-2c1.3-1.3,2-2.9,2-4.8
	c0-1.9-0.7-3.5-2-4.8C47.9,25.6,46.4,25,44.5,25z"/>
<path class="st3" d="M44.1,25c-5.9,0.1-10.9,0.7-15.2,1.9c-4.5,1.3-6.8,2.9-6.8,4.8s2.3,3.5,6.8,4.8c1,0.3,2,0.5,3,0.7
	c3.6,0.8,7.7,1.2,12.3,1.3l-6.8-6.8L44.1,25z"/>
<path class="st4" d="M49.1,31c0-0.5-0.2-1-0.6-1.4S47.7,29,47.1,29c-0.5,0-1,0.2-1.4,0.6s-0.6,0.9-0.6,1.4c0,0.6,0.2,1,0.6,1.4
	s0.9,0.6,1.4,0.6c0.6,0,1-0.2,1.4-0.6C48.9,32,49.1,31.6,49.1,31z"/>
</svg>
