<svg xmlns="http://www.w3.org/2000/svg" viewBox="0 0 64 64">
<path fill="#fff" d="M24.9,1.8C26,1.5,27,1.7,28,2.2c0.6,0.4,1.1,0.8,1.4,1.3c1.7-0.2,3.4-0.2,5.2,0C34.9,3,35.4,2.6,36,2.2
c1-0.5,2-0.7,3-0.4l1.8,0.5c1.1,0.3,1.9,0.9,2.4,1.9c0.4,0.6,0.6,1.3,0.6,1.9c1.6,0.7,3.2,1.6,4.6,2.6c0.6-0.4,1.2-0.6,1.8-0.6
c1.1,0,2.1,0.4,2.9,1.2l1.4,1.4c0.8,0.8,1.2,1.8,1.2,2.9c0,0.7-0.2,1.3-0.5,1.9l1.3,2.2l1.3,2.4c0.7,0,1.3,0.1,2,0.5
c0.9,0.6,1.6,1.4,1.9,2.4l0.4,1.9c0.3,1.1,0.2,2.1-0.3,3c-0.4,0.7-0.9,1.2-1.4,1.5l0,5.3l1.4,1.4c0.5,1,0.7,2,0.3,3L61.6,41
c-0.3,1.1-0.9,1.9-1.8,2.4l-2,0.5l-2.5,4.5c0.3,0.6,0.4,1.2,0.4,1.9c0,1.1-0.3,2-1.1,2.8l-1.4,1.4c-0.7,0.8-1.7,1.2-2.9,1.2
c-0.7,0-1.4-0.1-2-0.5l-2.3,1.4l-2.3,1.2c0,0.6-0.2,1.3-0.5,1.9c-0.6,1-1.4,1.6-2.4,1.9l-1.9,0.5c-1,0.3-2,0.2-3-0.4l-1.3-1.3
c-1.8,0.2-3.5,0.2-5.4,0c-0.4,0.6-0.9,1-1.5,1.3c-0.9,0.6-1.9,0.7-3,0.4L23,61.7c-1.1-0.3-1.9-0.9-2.5-1.9
c-0.4-0.6-0.5-1.2-0.5-1.9c-1.6-0.7-3.2-1.6-4.6-2.6l-1.8,0.5c-1.1,0-2.1-0.4-2.8-1.1l-1.4-1.4c-0.8-0.8-1.1-1.7-1.1-2.9
c0-0.7,0.1-1.3,0.4-1.8l-1.4-2.3L6.1,44l-1.9-0.5c-1-0.5-1.6-1.4-1.8-2.5l-0.5-1.9c-0.3-1-0.2-2,0.4-3c0.3-0.6,0.8-1,1.3-1.3
c-0.2-1.8-0.2-3.6,0-5.4c-0.5-0.4-1-0.8-1.4-1.4C1.6,27,1.5,26,1.7,25l0.5-1.9c0.3-1.1,0.9-1.9,1.9-2.4c0.6-0.3,1.3-0.5,1.9-0.5
c0.7-1.6,1.6-3.2,2.6-4.7c-0.3-0.5-0.5-1.1-0.5-1.8c0-1.1,0.4-2.1,1.2-2.9l1.4-1.4c0.8-0.8,1.7-1.2,2.8-1.1c0.7,0,1.4,0.2,2,0.5
l2.2-1.4c0.8-0.4,1.5-0.8,2.3-1.3c0-0.6,0.2-1.3,0.5-1.9C21.2,3.2,22,2.6,23,2.3L24.9,1.8"/>
</svg>