<svg xmlns="http://www.w3.org/2000/svg" viewBox="0 0 64 64">
<path fill="#fff" class="thought" d="M4,0h24c2.7,0,4,1.3,4,4v24c0,2.7-1.3,4-4,4H4c-2.7,0-4-1.3-4-4V4C0,1.3,1.3,0,4,0"/>
<path fill="#fff" class="thought" d="M22,32l-6,6l-6-6H22"/>
<path fill="#ff0054" class="emote" d="M16.5,10.4c0.9-1,2.1-1.5,3.5-1.5c1.4,0,2.6,0.5,3.6,1.5h0.1c0.9,1,1.4,2.2,1.4,3.6c0,1.2-0.3,2.2-1,3l-0.4,0.5
l-6.9,7L16,24.9c-0.3,0-0.5-0.1-0.7-0.3l-6.9-7L8,17.1c-0.7-0.9-1-1.9-1-3c0-1.4,0.5-2.6,1.4-3.6c1-1,2.2-1.5,3.6-1.5
c1.4,0,2.6,0.5,3.5,1.5L16,11L16.5,10.4"/>
</svg>