<svg xmlns="http://www.w3.org/2000/svg" viewBox="0 0 64 64">
<path fill="#fff" class="thought" d="M4,0h24c2.7,0,4,1.3,4,4v24c0,2.7-1.3,4-4,4H4c-2.7,0-4-1.3-4-4V4C0,1.3,1.3,0,4,0"/>
<path fill="#fff" class="thought" d="M22,32l-6,6l-6-6H22"/>
<path fill="#f90" class="emote" d="M4.9,19.2c-0.6-0.6-1-1.4-1-2.3c0-0.8,0.3-1.6,0.9-2.2c0.6-0.6,1.3-0.8,2.1-0.8c0.8,0,1.6,0.4,2.2,1l0.2,0.2
c1.5,1.6,2.6,3.1,3.4,4.6c0.9,1.8,1.1,3,0.5,3.6c-0.6,0.6-1.8,0.4-3.5-0.6c-1.5-0.8-3.1-1.9-4.7-3.3L4.9,19.2 M13,11.2
c0-0.9,0.3-1.7,0.9-2.3C14.5,8.3,15.2,8,16,8s1.6,0.3,2.1,0.9c0.6,0.6,0.9,1.3,0.9,2.3v0.3c-0.1,2.2-0.4,4.1-0.9,5.7
C17.6,19,16.8,20,16,20s-1.5-1-2.1-2.8c-0.5-1.6-0.8-3.5-0.9-5.7V11.2 M21.8,15.1c0.5-0.8,1.1-1.3,2-1.5c0.8-0.3,1.6-0.2,2.3,0.3
c0.7,0.4,1.2,1,1.5,1.8c0.2,0.8,0,1.6-0.5,2.4l-0.1,0.3c-1.2,1.8-2.3,3.3-3.5,4.4c-1.5,1.4-2.6,1.8-3.4,1.4
c-0.7-0.4-0.8-1.6-0.4-3.5c0.3-1.7,1-3.4,2.1-5.3L21.8,15.1"/>
</svg>