<?xml version="1.0" encoding="utf-8"?>
<!-- Generator: Adobe Illustrator 22.1.0, SVG Export Plug-In . SVG Version: 6.00 Build 0)  -->
<svg version="1.1" id="Layer_1" xmlns="http://www.w3.org/2000/svg" xmlns:xlink="http://www.w3.org/1999/xlink" x="0px" y="0px"
	 viewBox="0 0 576 512" style="enable-background:new 0 0 576 512;" xml:space="preserve">
<style type="text/css">
	.st0{fill:#262673;}
</style>
<path class="st0" d="M327.1,96c-90,0-168.5,54.8-212.3,101.6l-87.3-66.1c-12.1-9.2-30.2,0.6-27.1,14.7L24.5,256L0.3,365.8
	c-3.1,14.1,15,23.8,27.1,14.7l87.3-66C158.6,361.2,237.1,416,327.1,416C464.6,416,576,288,576,256S464.6,96,327.1,96z M414.5,280
	c-13.3,0-24-10.8-24-24c0-13.3,10.8-24,24-24c13.3,0,24,10.7,24,24C438.5,269.3,427.8,280,414.5,280z"/>
</svg>
